<svg xmlns="http://www.w3.org/2000/svg" width="1024" height="1024"><path fill="#080907" d="M403.2 72.95A130 130 0 0 1 428 89l1.67 1.35C451.3 107.91 469.38 130.58 481 156v2c4.38-2.25 6.98-5.19 9.94-9 8.5-10.45 18.96-18.13 31.06-24l2-1c4.2-.5 7.79-.65 11.56 1.38 2.7 4.94 2.03 10.14.76 15.5q-1.07 3.59-2.32 7.12l3.13-1.75a63.4 63.4 0 0 1 28.43-6.69l2.31-.03c4.53.07 7.54.65 11.13 3.47 1.47 2.95 1.36 4.7 1 8-2.82 6.73-7.4 12.4-12 18l3.94.13c6.1.56 11.5 2.65 17.17 4.87 6.24 2.39 6.24 2.39 9.89 1 1.6-1.22 1.6-1.22 3.18-2.77l1.8-1.74 1.9-1.87a231 231 0 0 1 20.46-17.35q2.38-1.82 4.69-3.72c14.33-11.47 30.3-20.9 46.97-28.55l3.6-1.68c14.68-6.56 32.05-12.88 48.04-7.47 5.47 2.66 8.37 6.73 10.64 12.28 2.8 8.6 3.86 16.96 3.96 25.98l.03 2.3q.03 3.66.04 7.34l.01 2.55c0 15.54-1.48 30.4-4.32 45.7l-.91 5.25c-5.1 28.31-13.7 57.5-26.9 83.17-3.73 7.67-1.1 14.56 1.31 22.2l1.34 4.36.64 2.07c.52 1.95.52 1.95.93 5.35.59 2.6.59 2.6 2.24 3.82l2.35.78 3.16 1.22 6.94 2.56C734 338 734 338 736 340c.51 6.07-.48 9.51-3 15l2.13-2.32 3-3.24 1.6-1.76q4.45-4.8 8.94-9.57 4.44-4.7 8.8-9.46 2.01-2.15 4.04-4.28c4.47-5.04 4.47-5.04 4.53-8.63A48 48 0 0 0 764 309c-3.73-12.47-4.57-28.87 1.52-40.63L767 266l1.39-2.28c3.98-5.85 9.1-10.95 16.15-12.5 3.46-1.22 3.46-1.22 5.43-4.01l1.53-3.4c5.17-10.39 12.22-16.53 23.32-20.45 9.6-1.57 20.79-1.71 29.18 3.64 5.57 4.03 9.77 7.8 12.38 14.25 1.43 3.34 2.21 4.52 5.4 6.35q3.12 1.23 6.28 2.27c7.78 3 12.26 10.04 16.02 17.17 1.62 3.87 2.04 7.28 2.23 11.46.34 5.2 1.89 7.64 5.19 11.55 4.91 6.39 5.14 14.2 4.5 21.95-.42 3.1-1.1 6-2 9l-.67 2.32c-5.56 16.29-19.22 27.4-33.99 35.06-4.85 2.34-8.87 3.7-14.22 4.37-8.73 1.94-12.95 10.28-17.7 17.22-1.75 2.5-3.62 4.86-5.54 7.22q-3.3 4.08-6.53 8.2a292 292 0 0 1-14.4 17.41 202 202 0 0 0-6.26 7.51 299 299 0 0 1-13.14 14.92q-3.05 3.31-5.99 6.7A400 400 0 0 1 766 452.5a489 489 0 0 0-11.27 12.51c-3.52 4.04-7.13 8.01-10.73 11.99l1.98-.64c7.14-2.15 13.6-2.82 21.02-2.74l3.04-.03c7.11.03 16.65.1 21.96 5.41.53 15.26-11.71 30.17-21.59 40.78C761.26 528.7 749.1 536 736 536l1.02 2.13c5.58 11.86 8.75 24.18 4.6 37.18A13 13 0 0 1 738 581c-17 4.46-37.2.88-52.38-7.38-8.06-5-15.04-11.9-17.28-21.42L668 550a313 313 0 0 0-16.5 14c-4.37 4.02-8.87 7.8-13.49 11.53a609 609 0 0 0-27.22 23.9q-4.05 3.7-8.16 7.32L598 611l-1.74 1.59c-10.2 10.4-13.4 29.02-13.45 42.85q.07 2.77.19 5.56l1.76-1.24c9.14-6.3 16.81-8.22 27.92-6.3 8.48 2.24 15.53 7 21.32 13.54l1.6 1.75c4.04 4.71 6.77 9.68 9.27 15.31l.9 2c2 4.67 2.8 8.9 3.23 13.94 29.2-12.98 45.77-46.87 61.93-72.56 9.24-14.68 18.96-29.1 30.07-42.44l1.32-1.6c24.6-29.58 54.78-52.91 93.68-59.4 4.21-.2 8.43-.19 12.65-.19l6.05-.03c7.38-.02 14.15.39 21.3 2.22l2.18.5c16.1 3.8 30.98 9.86 43.82 20.5l2.6 2.15a80 80 0 0 1 19.84 25.04l1.04 2.01c2.05 4.2 3.57 8.04 3.52 12.8-2.92 3.1-6.52 4.94-10.19 7.06-23.3 14.8-32.34 45.48-40.94 70.17-6.75 19.4-14.08 38.67-23.87 56.77l-.95 1.79c-8.18 15.23-18.42 28.47-30.05 41.21l-2.68 2.93C829.21 780.56 815.95 790.07 802 798l-3.4 1.98c-18.06 10.26-38.04 16.6-58.41 20.27l-2.93.53A86 86 0 0 1 720 822l1.4 2.82c8.49 17.5 13.3 35.1 8.04 54.5-3.21 8.67-9.39 16.84-17.9 20.83-10.13 4.17-20.54 5.89-31.23 2.29-17.22-7.22-27.7-19.7-35.31-36.44v-2l-1.36 1.21q-3.3 2.92-6.64 5.79l-2.45 2.19c-16.33 14.07-37.32 22.39-59.04 21.27-25.1-2.13-47.84-15.97-65.81-32.94-2.14-2-4.3-3.9-6.52-5.8a163 163 0 0 1-12.12-11.97l-2.12-2.27c-4.46-4.8-8.72-9.68-12.8-14.8a428 428 0 0 0-9.05-10.83c-3-3.52-5.87-7.13-8.71-10.79-6.15-7.52-13.48-11.48-22.38-15.06v2h2a85 85 0 0 1 4.13 6l1.2 1.9c11.55 18.7 19.79 38.7 16.2 61.06-2.3 8.96-7.18 16.05-15.12 20.82-8.63 4.36-17.82 5.8-27.3 3.53-12.66-4.23-23.3-12.46-29.49-24.36C381 847.6 381 847.6 381 841l-2.14.66c-18.95 5.14-41.43 3.7-58.86-5.66-15.5-9.8-24.77-21.94-29-40-2.82-15.46-1.55-31.79 2-47l.49-2.23a149 149 0 0 1 10.48-30.65c3.51-7.71 4.83-13 1.9-21.25a240 240 0 0 1-5.56-19.18l-.6-2.36c-3.8-15.74-4.1-32.04-4.02-48.14v-2.79c.06-13.67.47-26.98 3.31-40.4l.59-2.88c3.31-15.93 8.18-31.24 13.57-46.58 1.47-4.44 1.47-4.44 1.84-6.54-1.16-1.87-1.16-1.87-3.06-4-31.04-37-55.9-81.93-78.52-124.35a736 736 0 0 0-3.78-6.95c-7.22-13.24-13.4-26.98-19.64-40.7l-1.45-3.16a702 702 0 0 1-16.74-40.21l-.88-2.3-2.47-6.48-.76-1.96c-1.05-2.8-1.7-4.88-1.7-7.89l-2.68-.81c-16.4-5.86-28.39-19.82-35.73-35.13-4.38-10.54-5.82-24.25-2.34-35.31A45 45 0 0 1 151 207l1.88-2.62C155 202 155 202 158 200.3c3.76-2.9 4.51-5.49 6.09-9.86 3.32-8.95 11.42-15.78 19.94-19.74 2.02-.73 3.93-1.1 6.03-1.46 4.5-.98 6.3-3.65 9.09-7.15a30.7 30.7 0 0 1 21.39-10.5c11.69-.36 20.74.36 29.82 8.52 5.88 6.2 9.36 12.02 10.39 20.5.74 4.86.74 4.86 2.97 7.13q2.1 1.44 4.24 2.8c5.02 3.58 7.52 9.65 9.04 15.45 1.08 12.01 1.46 25.3-5.37 35.66-6.34 10.18-6.34 10.18-5.01 16.08 2.3 5.98 5.5 11.43 8.89 16.85a153 153 0 0 1 5.18 9.29q1.14 2.06 2.31 4.12l6-1a129 129 0 0 0-3.29-6.3c-2.98-5.48-4.8-9.44-3.71-15.7 3.5-2.65 6.8-3.56 11.06-4.37 19.59-4.3 30.95-14.38 42.24-30.31C337 228 337 228 339 226c.23-1.8.23-1.8.2-4l-.02-2.52-.06-2.75-.02-2.86q-.05-6.04-.14-12.1c-.25-19.79 1.07-39.06 4.53-58.56q.58-3.26 1.12-6.52c2.13-12.38 5-24.54 9.26-36.38l.77-2.13C359.12 85.95 363.94 74.1 376 68c9.3-3.1 18.76.9 27.2 4.95"/><path fill="#faeccc" d="M389.48 79.61C412.67 87.4 433.49 105.78 448 125l1.27 1.63a214 214 0 0 1 15.92 23.62l1.46 2.5 1.33 2.33 1.18 2.07C470 159 470 159 470 162l-2.08.8-2.73 1.07-2.71 1.06C460 166 460 166 457 168l-1 3 3.48-.62 4.7-.82 2.49-.44c4.86-.83 9.44-1.2 14.4-1.18 5.2-.32 7.31-1.65 10.8-5.5Q494 159.75 496 157c7.5-9.55 17.65-18.42 29-23h2c-.18 7.9-1.99 14.48-4.84 21.84-1 2.74-1.69 5.29-2.16 8.16 3.69-1.54 7.32-3.13 10.91-4.9 12.79-6.3 24.51-11.06 39.09-10.1-2.93 8.59-10.14 15.5-16.69 21.56C552 172 552 172 551 175l1.7.16c19.35 1.98 35.96 7.12 53.11 16.24 2.5 1.25 4.47 2.12 7.19 2.6l-1.31-3.25-.74-1.83A33 33 0 0 0 607 183a205 205 0 0 1 22-20l2.11-1.66c23.82-18.6 58.84-44.57 90.89-41.34 3.66.92 5.19 1.68 7.17 4.9 18.98 41.4-3.42 105-18.04 144.99A524 524 0 0 1 703 290h-2l-1.4-3.3c-8.2-19.1-17.8-38.17-32.52-53.15L666 232c1.14-3.42 2.59-4.3 5.3-6.5 4.65-4.11 7.87-8.23 8.58-14.5q.1-2 .12-4c-8.41-5.61-20.4-3.33-29.81-1.5q-3.6.72-7.19 1.5c1.63-4.93 4.45-8.82 7.44-13l1.62-2.28A243 243 0 0 1 668 172l1.42-1.6c4.99-5.64 10.02-11.09 15.83-15.9A90 90 0 0 0 691 149c-23.65 11.44-47.47 34.18-59 58-.41 3.62-.38 4.53 1.94 7.44 4.5 2.3 7.4.96 12.06-.44 6-1.75 11.26-2.26 17.5-2.12l2.5.02 6 .1a19 19 0 0 1-5.07 7.06l-1.78 1.67-3.71 3.4c-4.41 4.2-4.41 4.2-4.54 7.58 1.2 2.51 2.3 3.74 4.41 5.54 22.55 21.66 32.68 53.53 41.73 82.53 5.48 17.54 5.48 17.54 11.96 21.22 3.62 1.8 7.28 3.44 11 5-4.1 11.3-13.98 19.83-24 26 2.76 2.76 5.2 2.58 9 3 0 2 0 2-1.26 3.3l-1.87 1.57-2.21 1.9L703 384l-4.86 4.17-5.43 4.65q-3.63 3.1-7.23 6.23a457 457 0 0 1-19.02 15.67A583 583 0 0 0 652.5 426c-5.2 4.3-10.42 8.55-15.75 12.69a387 387 0 0 0-13.5 11q-5.85 5.01-11.81 9.87l-2.32 1.88A33 33 0 0 1 603 465v2l-2.24.52-3.07.73-3 .7c-3.06.87-5.97 1.86-8.96 2.98-18.23 6.73-37.58 10.1-56.73 13.07l-2.58.4C471.26 493.7 417.9 480.92 373 448a264 264 0 0 1-21.52-17.73q-3-2.73-6.09-5.36c-4.82-4.22-9.37-8.7-13.9-13.23l-4.27-4.23A230 230 0 0 1 310 388q-2.34-2.7-4.69-5.37a198 198 0 0 1-12.62-17.32l-1.78-2.66a287 287 0 0 1-7.89-12.6l-1.26-2.15c-.76-1.9-.76-1.9.24-4.9 2.65-1.17 2.65-1.17 5.94-2.19l3.27-1.04C294 339 294 339 296 339a153 153 0 0 0-11.37-12.19c-6.07-6-13.6-14.1-14.63-22.81l1.63-.53C282.67 299.83 293.01 296 303 290c-2.07-4.61-5.25-8.36-8.32-12.34C293 275 293 275 293 271l2.79-.63c20.63-5.02 33.77-15.12 46.36-31.68 17.13-22.43 38-41.83 63.85-53.69-1.88-5.15-4.69-9.6-7.54-14.26C397 168 397 168 397 165a49 49 0 0 1 21.69 9.44c2.55 1.83 3.7 2.58 6.86 2.5A42 42 0 0 0 432 175c-4.41-25.19-14.61-46.27-32-65q1.97 4 4.14 7.88A204 204 0 0 1 419 152l1.1 3.24c1.3 4.1 2.03 7.41 1.9 11.76l-3.29-1.46-4.33-1.91-2.17-.97c-11.24-4.95-11.24-4.95-16.96-4.91l-2.3-.02C391 158 391 158 389 160c-.66 5.21.9 8.23 3.5 12.69 3.5 6.02 3.5 6.02 3.5 9.31l-2.94 1.55a174 174 0 0 0-37.04 26.61A74 74 0 0 1 350 215c-.47-24.68-.34-48.63 4-73l.57-3.2c3.55-19.3 8.25-44.22 22.43-58.8 3.98-1.99 8.29-1.42 12.48-.39"/><path fill="#ada18d" d="M838.63 235.69c4.24 2.99 7.53 5.64 9.14 10.74 2.25 7.06 2.25 7.06 5.5 8.74q2.61.7 5.27 1.28c6.45 1.45 10.74 6.39 14.46 11.55 2.73 4.71 3.14 8.18 3.38 13.63.33 6.03.33 6.03 2.93 9.12L882 293c4.06 6.32 5.07 12.63 4 20-3.42 14.4-11.8 24.85-24 33-7.8 4.55-16.44 8.9-25.62 9.06-5.7 1.58-8.05 6.28-11.38 10.94q-2.83 3.82-5.69 7.63l-1.53 2.06c-8.67 11.58-17.98 22.67-27.38 33.67l-4.44 5.2a784 784 0 0 1-15.95 18.21q-2.79 3.1-5.51 6.23a861 861 0 0 1-10.17 11.42l-4.66 5.2a257 257 0 0 1-11.9 12.57 107 107 0 0 0-4.98 5.5 243 243 0 0 1-11.85 12.5l-2.27 2.27-4.71 4.71-11.77 11.77-2.13 2.14c-3.95 3.93-8 7.7-12.24 11.34-3.13 2.72-6.12 5.6-9.13 8.46a263 263 0 0 1-16.15 14.05 181 181 0 0 0-7.54 6.57q-4.97 4.52-10.19 8.75a547 547 0 0 0-15.05 12.74q-5.54 4.83-11.14 9.59A531 531 0 0 0 597 598l-1.77 1.66a592 592 0 0 0-5.3 5.09l-1.62 1.53c-5.82 5.74-8.55 12.65-10.93 20.35l-1.23 3.78c-2.96 10.77-3.54 21.86-3.52 32.97v3.81c.27 22.71.27 22.71 6.37 28.81l.07-1.7c.92-18.4.92-18.4 5.05-23.24 1.87-1.65 1.87-1.65 3.88-3.06l2.13-1.53c6.8-4.51 12.77-5.31 20.87-4.47 10.1 3 17.3 10.5 22.27 19.53 9.1 17.75 12.7 39.58 6.64 58.98L639 743l-.84 2.62A48.3 48.3 0 0 1 620 769q-2 .55-4 1l-.06-2.38q-.15-5.44-.32-10.87l-.09-3.74A140 140 0 0 0 613 730c-3.82 10.09-4.43 20.75-5.07 31.42l-.26 4.05-.66 10.56-.69 10.82L605 808c4.24-4 5.4-7.6 7.07-13.12 2.98-4.44 7-5.2 11.93-6.88q3.27-1.28 6.53-2.58l6.97-2.67 3.51-1.4c9.78-3.7 17.7-5.09 27.42-.73 24.37 13.13 44.21 41.94 52.13 68.24.5 2.47.57 4.75.57 7.27v14.69C721 873 721 873 720 875c-8.75-2.02-15.41-9.25-22-15 2.62 8.38 9.47 16.09 17.21 20.16l1.79.84c-2.03 4.98-5.55 8.06-10 10.94-3 1.06-3 1.06-5.43.3-9.64-4.66-16-13.08-22.57-21.24.53 4.4 1.54 7.44 3.88 11.19q.75 1.25 1.55 2.54a18 18 0 0 0 3.27 3.95C689 890 689 890 689 892l3 1v1c-11.87-.55-19.52-5.93-27.59-14.37-4.03-4.67-6.72-10.12-9.41-15.63l-1.48-2.76c-2.16-4.46-2.9-7.31-1.46-12.12L654 844c2.37-7.8 3.43-14.85 3-23l-.85 2.17c-9.26 23.02-23.48 44.3-47 54.64-17.52 7.08-37.38 8.09-55.07 1.02C530.24 868.45 509.74 849.6 493 830l-3-3.45a661 661 0 0 1-14.62-17.17l-2.14-2.62-3.54-4.4-4.2-5.17-1.26-1.6c-7.5-9.1-17.37-12.35-28.22-15.86a1208 1208 0 0 1-15.22-5.05 667 667 0 0 1-27.18-10l-2.26-.87L379 759c11.65 11.77 26.7 19.07 42 25a114 114 0 0 1-8.87 8.25c-4.79 4.13-9.29 9.06-12.13 14.75l8.13-4.25 2.3-1.2a68 68 0 0 0 9.81-5.97c2.76-1.58 2.76-1.58 5.33-1.2 3.13 2.1 5.13 4.62 7.24 7.68l1.3 1.85c9.2 13.57 16.05 29.32 16.01 45.84l.01 3.98C450 857 450 857 449 859c-5.9-1.34-8.87-4.38-12.87-8.62l-1.8-1.86q-2.18-2.25-4.33-4.52c3.1 10.03 8.44 16.08 17 22-4.2 5.39-6.98 8.2-13.81 9.56-6.53-1.15-10.22-6.1-13.92-11.3C412 853.7 412 853.7 412 851h-2c1.45 8.03 5.26 14.85 9 22l1 2c-10.35-2.5-17-8.6-22.87-17.37-3.63-6.1-8.42-14.3-7.13-21.63 2.3-2.1 2.3-2.1 5.31-4.06 3.59-2.37 6.33-4.32 8.69-7.94l-1.59.48-10.4 3.12a848 848 0 0 1-17.66 5.17c-17.57 4.31-36.92 1.23-52.44-7.79-7.73-5.26-12.96-11.56-16.91-19.98l-1.69-3.37c-8.9-24.62-1.94-56 8.8-79A311 311 0 0 1 315 717h2a85 85 0 0 1 3.44 4.75c4.66 6.6 10 12.4 15.56 18.25a49 49 0 0 0-3.26-7.47c-5.97-11.63-11.4-23.2-15.74-35.53l-1.36-3.76c-5.98-17.67-9.68-36.98-9.88-55.67l-.03-2.35c-.34-33.91 4.64-65.13 16.02-97.22l1.14-3.22 1.1-2.97.95-2.6A15 15 0 0 1 329 524l.73 2.16c13.61 40.04 32.27 78.23 61.18 109.56q1.93 2.1 3.75 4.28c1.46 1.69 1.46 1.69 4.34 4 14.98-.73 30.75-14.32 42.98-22.08l8.4-5.3c31.11-19.58 62.32-39.71 89.47-64.65q3-2.73 6.09-5.35c13.87-12.13 26.55-26.37 35.37-42.62 3.23-5.72 7.29-9.77 12.05-14.25 3.34-3.48 5.62-7.21 7.91-11.44 2.2-2.95 4.42-3.73 7.73-5.31 2.56-1.84 4.96-3.85 7.38-5.87l6.46-5.35q5.03-4.13 10.1-8.22 8.38-6.8 16.68-13.69c5.14-4.24 10.3-8.41 15.57-12.5 5.4-4.19 10.6-8.56 15.77-13.03q5.17-4.48 10.48-8.78a625 625 0 0 0 31.98-28.1l4.72-4.32a556 556 0 0 0 18.24-17.39l1.98-1.97c3.82-3.83 7.45-7.78 11-11.88 2.83-3.27 5.78-6.42 8.72-9.59a79 79 0 0 0 6-7.17L776 323h4l-1.24-3.15c-5.7-14.66-10.3-30.13-4.73-45.7 2.6-5.75 6-10.11 11.54-13.26 6.87-2.51 14.23-1.85 20.8 1.17 7.75 4.5 13.12 10.22 15.63 18.94.66 4.65.3 8.85-2 13-3.19 3.7-5.34 4.84-10.25 5.31-8.09-.67-12.15-5.47-17.25-11.29C791 286 791 286 791 284l-2 1c.03 7.27 1.9 11.79 7 17 4.56 3.8 8.84 5.08 14.69 5.56l3 .26 2.31.18c1.3 4.39.6 7.06-.94 11.31l-1.15 3.24L813 325c4.22-2.53 6.78-4.57 9-9 3.3.1 6.01.54 9 2 1.89 2.67 3.2 5.4 4.6 8.36 2.42 4.56 5.56 6.03 10.4 7.64 7.64.98 13.74-.47 20-5 2.32-2.5 4.23-5.1 6-8l-2.5 1.31c-6.81 3.4-12.8 6.35-20.5 4.69-3.86-2-5.6-3.4-8-7 .05-2.43.05-2.43 1-5 2.26-2.1 2.26-2.1 5.13-4.19A47 47 0 0 0 860 296v-2l-1.36 1.04-6.2 4.71-2.14 1.63c-10.97 8.3-10.97 8.3-16.92 9.12-3.92-.58-5.58-1.78-8.38-4.5.57-4 1.9-6.59 4-10a33.7 33.7 0 0 0-1.5-24.37c-6.36-11.17-15.26-17.09-27.5-20.63 1.41-7.05 6.3-11.46 12.04-15.4 8.24-4.34 18.49-4.54 26.59.09"/><path fill="#ada18d" d="M389.48 79.61C412.67 87.4 433.49 105.78 448 125l1.27 1.63a214 214 0 0 1 15.92 23.62l1.46 2.5 1.33 2.33 1.18 2.07C470 159 470 159 470 162l-2.08.8-2.73 1.07-2.71 1.06C460 166 460 166 457 168l-1 3 3.48-.62 4.7-.82 2.49-.44c4.86-.83 9.44-1.2 14.4-1.18 5.2-.32 7.31-1.65 10.8-5.5Q494 159.75 496 157c7.5-9.55 17.65-18.42 29-23h2c-.18 7.9-1.99 14.48-4.84 21.84-1 2.74-1.69 5.29-2.16 8.16 3.69-1.54 7.32-3.13 10.91-4.9 12.79-6.3 24.51-11.06 39.09-10.1-2.93 8.59-10.14 15.5-16.69 21.56C552 172 552 172 551 175l1.7.16c19.35 1.98 35.96 7.12 53.11 16.24 2.5 1.25 4.47 2.12 7.19 2.6l-1.31-3.25-.74-1.83A33 33 0 0 0 607 183a205 205 0 0 1 22-20l2.11-1.66c23.82-18.6 58.84-44.57 90.89-41.34 3.66.92 5.19 1.68 7.17 4.9 18.98 41.4-3.42 105-18.04 144.99A524 524 0 0 1 703 290h-2l-1.4-3.3c-8.2-19.1-17.8-38.17-32.52-53.15L666 232c1.14-3.42 2.59-4.3 5.3-6.5 4.65-4.11 7.87-8.23 8.58-14.5q.1-2 .12-4c-8.41-5.61-20.4-3.33-29.81-1.5q-3.6.72-7.19 1.5c1.63-4.93 4.45-8.82 7.44-13l1.62-2.28A243 243 0 0 1 668 172l1.42-1.6c4.99-5.64 10.02-11.09 15.83-15.9A90 90 0 0 0 691 149c-23.65 11.44-47.47 34.18-59 58-.41 3.62-.38 4.53 1.94 7.44 4.5 2.3 7.4.96 12.06-.44 6-1.75 11.26-2.26 17.5-2.12l2.5.02 6 .1a19 19 0 0 1-5.07 7.06l-1.78 1.67-3.71 3.4c-4.41 4.2-4.41 4.2-4.54 7.58 1.2 2.51 2.3 3.74 4.41 5.54 22.55 21.66 32.68 53.53 41.73 82.53 5.48 17.54 5.48 17.54 11.96 21.22 3.62 1.8 7.28 3.44 11 5-4.1 11.3-13.98 19.83-24 26 2.76 2.76 5.2 2.58 9 3 0 2 0 2-1.26 3.3l-1.87 1.57-2.21 1.9L703 384l-4.86 4.17-5.43 4.65q-3.63 3.1-7.23 6.23a457 457 0 0 1-19.02 15.67A583 583 0 0 0 652.5 426c-5.2 4.3-10.42 8.55-15.75 12.69a387 387 0 0 0-13.5 11q-5.85 5.01-11.81 9.87l-2.32 1.88A33 33 0 0 1 603 465v2l-2.24.52-3.07.73-3 .7c-3.06.87-5.97 1.86-8.96 2.98-25.47 9.4-55.5 15.55-82.73 15.07a58 58 0 0 1 8.7-4.61c25.46-11.51 46-29.98 56.3-56.39 2.4-6.85 4.7-13.7 5-21l.16-3.3c.36-14.78-2.84-27.43-9.16-40.7a34 34 0 0 1 9.5 5.25c16.63 11.88 36.27 16.11 56.38 12.98 17.21-3.07 31.62-10.16 45.12-21.23-.72-3.53-2.1-6.5-3.66-9.73l-1.64-3.4L661 327l-1.25-2.57C642.47 288.94 619.83 258.75 582 244l-2.59-1.02c-17.4-6.35-37-5.7-54.41.02l-3.16 1.03c-14.51 5.38-26.2 15.75-35.26 28.05-2.3 2.8-3.96 3.86-7.58 4.23-3-.31-3-.31-4.61-1.5-1.8-2.35-2.1-4.23-2.6-7.15l-.58-3.2-.58-3.4c-3.02-16.11-7.48-30.31-21.63-40.06-16.4-8.67-34.36-8.82-52-4-25.46 8.42-45.8 25.75-63.12 45.83q-3.15 3.62-6.38 7.17-5.05 5.6-10 11.3a96 96 0 0 1-4.5 4.7c1.86 6.92 4.74 12.27 9 18l1.23 1.8c7.58 10.12 22.5 17.66 34.75 19.5 4 .44 8 .63 12.02.7l-1.07 1.33C355.1 345.1 350.47 362.79 352 385c2.68 19.84 12.87 38.21 26 53l2.63 3c9.44 10.62 19.86 19.69 31.37 28-3 1-3 1-4.92.28l-2.19-1.2-2.45-1.34-2.63-1.49-2.7-1.52a248 248 0 0 1-45.63-33.46q-3-2.73-6.09-5.36c-4.82-4.22-9.37-8.7-13.9-13.23l-4.27-4.23A230 230 0 0 1 310 388q-2.34-2.7-4.69-5.37a198 198 0 0 1-12.62-17.32l-1.78-2.66a287 287 0 0 1-7.89-12.6l-1.26-2.15c-.76-1.9-.76-1.9.24-4.9 2.65-1.17 2.65-1.17 5.94-2.19l3.27-1.04C294 339 294 339 296 339a153 153 0 0 0-11.37-12.19c-6.07-6-13.6-14.1-14.63-22.81l1.63-.53C282.67 299.83 293.01 296 303 290c-2.07-4.61-5.25-8.36-8.32-12.34C293 275 293 275 293 271l2.79-.63c20.63-5.02 33.77-15.12 46.36-31.68 17.13-22.43 38-41.83 63.85-53.69-1.88-5.15-4.69-9.6-7.54-14.26C397 168 397 168 397 165a49 49 0 0 1 21.69 9.44c2.55 1.83 3.7 2.58 6.86 2.5A42 42 0 0 0 432 175c-4.41-25.19-14.61-46.27-32-65q1.97 4 4.14 7.88A204 204 0 0 1 419 152l1.1 3.24c1.3 4.1 2.03 7.41 1.9 11.76l-3.29-1.46-4.33-1.91-2.17-.97c-11.24-4.95-11.24-4.95-16.96-4.91l-2.3-.02C391 158 391 158 389 160c-.66 5.21.9 8.23 3.5 12.69 3.5 6.02 3.5 6.02 3.5 9.31l-2.94 1.55a174 174 0 0 0-37.04 26.61A74 74 0 0 1 350 215c-.47-24.68-.34-48.63 4-73l.57-3.2c3.55-19.3 8.25-44.22 22.43-58.8 3.98-1.99 8.29-1.42 12.48-.39"/><path fill="#312e28" d="M852 536v3l3.81 1c18.54 6.19 30.89 25.11 39.24 41.73 5.25 11.04 7.17 22.59 7.39 34.7l.14 3.05c.12 8.26-2.25 14.2-5.72 21.6-1.52 3.4-2.77 6.88-4.04 10.37l-.78 2.15-1.56 4.34-3.97 10.94-.72 2A74 74 0 0 0 883 680h-2l-.25 2.9c-.72 4.95-2.68 9.3-4.69 13.85l-1.21 2.78c-10.25 23.12-23.13 44.49-41.5 62.11-1.35 1.36-1.35 1.36-3.04 3.67-1.57 2.02-3.03 2.55-5.31 3.69l-2.27 2.27c-13.95 13.95-33.06 24.7-51.73 30.73l-2.58.85c-12.25 4-24.35 7.57-37.21 8.91q-2.22.24-4.42.56c-4.8.68-9.03.93-13.79-.32-3.76-3.3-6.17-6.98-8.8-11.2a63 63 0 0 0-6.76-8.11l-1.38-1.5a86 86 0 0 0-9.31-8.5c-2.2-1.9-2.2-1.9-3.75-3.69-.19-3.5-.19-3.5 1-7 3.56-11.9 4.55-28.24-.73-39.71L682 730l-1.43-2.7c-2.67-4.73-5.44-8.7-9.57-12.3l-2.44-2.12c-2.73-2-5.5-3.46-8.56-4.88v-2a89 89 0 0 1 4.69-3.31c13.5-9.67 23.02-22.07 32.31-35.69l1.3-1.88c6.41-9.3 12.34-18.9 18.3-28.49A513 513 0 0 1 730 616l1.35-1.95c6.2-9 12.5-17.77 19.65-26.05l2.06-2.4c19.56-22.22 19.56-22.22 31.94-29.6h2v-2c10.72-6.22 21.25-11.95 33-16l2.96-1.03c7.64-2.27 21.6-4.69 29.04-.97"/><path fill="#312e29" d="M451.77 222.05c14.34 12.47 17.5 25.8 20.79 44.06l.5 2.7.41 2.33C474 273 474 273 476 275c2.81.44 2.81.44 6 0 3.3-3 6.2-6.32 9.15-9.66 10.89-12.2 23.93-21 39.85-25.34l2.07-.62c22.95-5.8 48.1.83 68.05 12.52A108 108 0 0 1 616 263l2.59 2.26q3.74 3.33 7.41 6.74l1.83 1.67C637.88 283.2 645.27 295 652 307l1.06 1.87c6.13 10.97 11.38 22.35 16.6 33.77l1.62 3.54 1.44 3.18A32 32 0 0 0 676 355c-.05 1.92-.05 1.92-1 4-16.37 15.51-39.42 22.6-61.6 22.18-21.48-1.15-41.55-11.66-56.27-27.18-8.13-8.33-17.41-13.4-28.07-17.75-8.97-3.7-15.22-9.14-22.28-15.66-19.1-17.03-40.28-23.75-65.63-22.81-22.11 1.56-48.6 9.42-65.09 24.72-5.15 4.27-9.64 4.47-16.19 4.09-14.81-2.24-29.28-10.24-38.78-21.94-7.8-10.7-7.8-10.7-9.09-16.65 1.06-3.05 2.72-4.9 5.06-7.06a99 99 0 0 0 8.44-9.44c3.1-3.85 6.28-7.4 9.83-10.84a93 93 0 0 0 4.98-5.47c24.9-28.65 74.65-60.35 111.46-33.14"/><path fill="#fac51d" d="M352 444c3.72 1.64 6.64 3.98 9.81 6.5 28.5 22.23 61.08 38.3 97.1 43.21l5.72.81c4.77.6 9.5.64 14.3.65h2.84l5.96.02q4.46 0 8.9.03c17.42.06 34.35-1.13 51.37-4.97l3.58-.78c8.85-2 17.51-4.4 26.15-7.17 4.37-1.39 8.79-2.38 13.27-3.3-14.08 24.5-52.4 36.22-77 47a125 125 0 0 0 21.25-5.75l3.05-1.08c10.38-3.7 20.6-7.59 30.03-13.38L570 505l2 1c-37.48 50.67-93.01 83.96-145.81 116.56l-3.28 2.03q-4.44 2.73-8.91 5.41l-2.58 1.6-2.37 1.43-2.02 1.24c-2.7.97-4.32.55-7.03-.27-18.55-13.7-31.42-40.06-42-60l-1.08-2.03C345.5 550.42 328.76 517.05 333 492a63 63 0 0 1 5-10h3a93 93 0 0 1 4.81 6.63A76 76 0 0 0 357 502l-.84-1.89C340.54 464.83 340.54 464.83 342 457a44 44 0 0 1 10-13"/><path fill="#ada18c" d="M237.5 163.5c5.32 3.26 10.22 8.66 12.5 14.5.13 2.75.13 2.75 0 5l-2.71.08c-13.88.65-23.51 4.56-33.04 14.73-5.3 6.4-7.9 12.46-7.5 20.83.66 6.15 2.44 9.63 6.25 14.36l-1 3c-3.28 1.64-6.47 1.64-10 1-5.8-3.13-9.8-9.24-13.79-14.32A94 94 0 0 0 181 215c2.07 9.1 6.2 16.5 12.22 23.63C195 241 195 241 195 244.13c-1.14 3.28-2 4.2-5 5.87-4.99 1.66-9.18 1.63-13.94-.62-4.33-2.36-8.2-5.3-12.06-8.38 2.98 7.25 6.09 12.08 13 16 5.52 1.84 11.9 2.11 17.43.13 3.7-2.13 5.68-3.96 7.38-7.88 2.19-3.25 2.19-3.25 4.87-3.92A83 83 0 0 1 215 245l.7 1.6c2.12 4.6 3.98 7.52 8.3 10.4l-.66-1.94c-3.86-12.01-3.86-12.01-1.34-17.06q3.27-.47 6.56-.75c6.62-.87 10.92-2.26 15.44-7.25a28 28 0 0 0 5-11l-1.98 1.43c-12.97 9.23-12.97 9.23-21.61 9-3.97-.7-5.7-2.5-8.41-5.43-2-4-1.5-8.66-1-13 2.66-7.18 8.88-12.88 15.57-16.32 7.06-2.87 14.3-4.24 21.72-1.98 6.1 2.71 9.43 6.87 12.52 12.74 4.28 12.72.46 25.24-5.19 36.69A151 151 0 0 1 252 257h3l18 36-2.73.87-3.14 1-3.31 1.06C261 297 261 297 259 299c0 12.55 7.7 21.3 15.6 30.25A37 37 0 0 1 279 335l-1.71.7-2.23.99-2.21.95C271 339 271 339 270.04 341.18c-.06 3.94 1.47 6.8 3.27 10.2l1.1 2.12c13.84 26.14 34.69 48.64 55.4 69.44l2.47 2.47c4.09 4.09 8.2 7.99 12.72 11.59-1.85 4.08-4.52 7.24-7.34 10.68-3 4.19-3.93 7.65-3.85 12.76l.02 2.74c.17 2.82.17 2.82.88 5.86.37 3.82-.59 4.9-2.96 7.83-5.97 7.49-7.17 13.86-6.75 23.25.27 6.16.4 10.46-3 15.88h-2c-1.26-1.52-1.26-1.52-2.69-3.66l-1.6-2.38-1.71-2.58-3.56-5.3-1.78-2.64q-3.25-4.74-6.66-9.38c-6.35-8.79-12.16-17.93-18-27.06l-1.5-2.32c-9.22-14.33-17.88-28.98-26.5-43.68l-1.9-3.22a231 231 0 0 1-8.85-16.22c-2.16-4.4-4.35-8.78-6.68-13.1-11.74-21.78-21.62-44.47-31.07-67.33l-.9-2.18c-2.74-6.59-5.45-13.14-7.47-20-3.8-12.87-3.8-12.87-10.7-16.87q-3.15-1.6-6.34-3.05c-12.46-5.8-21.59-18.15-26.36-30.7-2.52-8.07-3.8-19.14.02-26.96A61 61 0 0 1 158 214l1.75-2.69c2.13-2.18 3.67-3.1 6.31-4.5 2.57-1.5 3.72-2.3 4.91-5.07q.66-2.58 1.28-5.18c2.02-6.9 7.28-11.64 13.18-15.4 2.98-1.34 5.52-1.65 8.76-1.97 5.3-.65 5.3-.65 7.6-3.1q1.4-2.34 2.71-4.76c6.49-10.07 22.5-12.53 33-7.83"/><path fill="#312e29" d="M711 645c26.7 3.69 47.11 14.66 63.84 36 16.56 23.03 24.4 49.78 20.7 78.18-2.45 13.62-8.05 27.17-15.54 38.82-4.09 2.73-8.4 3.9-13.06 5.38l-2.97.93c-10.79 3.35-21.74 6.2-32.98 7.46q-2.97.35-5.92.78c-4.46.37-7.68.4-12.07-.55-3.8-3.27-6.16-6.97-8.8-11.2a63 63 0 0 0-6.76-8.11l-1.38-1.5a86 86 0 0 0-9.31-8.5c-2.2-1.9-2.2-1.9-3.75-3.69-.19-3.5-.19-3.5 1-7 3.56-11.9 4.55-28.24-.73-39.71L682 730l-1.43-2.7c-2.67-4.73-5.44-8.7-9.57-12.3l-2.44-2.12c-2.73-2-5.5-3.46-8.56-4.88v-2a89 89 0 0 1 4.69-3.31c13.5-9.67 23.04-22.06 32.31-35.69l1.48-2.15c4.42-6.49 8.68-13 12.52-19.85"/><path fill="#050705" d="M394 321h2l-.14 2.75c-.27 8.93.01 15.43 5.95 22.36 8.85 8.64 20.3 12.47 32.19 14.89l1.93.5c8.79 2.13 17.71 1.9 26.7 1.88h2.62c19.25-.05 37.23-2.46 55.58-8.43C524 354 524 354 527 354v-2l-4-2v-1c5.26-.32 8.55.1 13 3 2.87 2.63 4.88 4.87 5.31 8.88L541 363a42 42 0 0 1-8-5l-.11 2.13c-2.29 34.32-18.55 68.59-43.45 92.31-9.74 8.22-21.54 14.23-34.48 13.93-10.82-1.35-19.23-7.4-25.86-15.77-13.72-19.95-16.75-46.62-19.79-70.04l-.4-3.01A123 123 0 0 1 408 359l-2.12-.69c-7.6-3.46-11.13-9.1-14.88-16.31-1.71-5.13-2.11-11.17-.1-16.28 1.1-1.9 1.1-1.9 3.1-4.72"/><path fill="#aea28e" d="m753.01 604.65 1.99.35 3.2.45c22.54 4.36 44.64 22.4 57.8 40.55l1.22 1.67c9.5 13.15 16.9 27.5 20.78 43.33l.53 2.17c5.29 23.55 1.27 48.52-9.53 69.83l-1.1 2.41c-3.61 6.94-10.63 11.23-16.9 15.59l-1.71 1.2a184 184 0 0 1-21.04 12.42l-2.1 1.08A89 89 0 0 1 781 798l-2-1 1.57-2.6C793.5 772.65 799.3 747.97 793 723l-.55-2.76c-5.5-25.48-22.02-48.18-43.7-62.37-11.43-7.07-23.49-10.02-36.75-11.87a55 55 0 0 1 4.65-9.55l1.59-2.6q3.5-5.6 7.07-11.16 2.27-3.65 4.4-7.4c6.14-10.23 11.48-12.55 23.3-10.64"/><path fill="#ada18d" d="M852 536v3l3.81 1c18.54 6.19 30.89 25.11 39.24 41.73 5.25 11.04 7.17 22.59 7.39 34.7l.14 3.05c.1 7.5-1.67 12.9-4.83 19.66-1.99 4.27-3.6 8.66-5.18 13.1l-.86 2.39-4.38 12.26q-2.18 6.05-4.33 12.11h-1l-.21-2.33c-2.7-28.94-2.7-28.94-6.79-40.67l-1.27-3.66A118 118 0 0 0 851 594l-2.14-2.54C832.4 572.34 811.43 560.97 787 556v-2c10.72-6.22 21.25-11.95 33-16l2.96-1.03c7.64-2.27 21.6-4.69 29.04-.97M685.66 689.55l2.34.45 2.37.45c15.13 3.78 27.08 14.24 35.13 27.3 9.29 15.66 12.8 35.8 8.6 53.75A103 103 0 0 1 730 783l-1.32 3.27c-3.69 8.2-10 18.17-18.68 21.73l-1.43-1.84C691.7 784.81 691.7 784.81 683 779c.46-3.66 1-6.99 2.02-10.54 2.98-11.8 2.95-27.72-3.02-38.46l-1.43-2.7c-2.67-4.73-5.44-8.7-9.57-12.3l-2.44-2.12c-2.73-2-5.5-3.46-8.56-4.88v-2a94 94 0 0 1 5-3.62 54 54 0 0 0 10.13-8.88c3.4-3.53 5.64-4.45 10.53-3.95"/><path fill="#1f1e1a" d="M401 502a381 381 0 0 1 25.5 2.75l3.43.44c11.91 1.69 23.35 5.5 31.67 14.55 4.2 5.64 4.37 11.45 3.4 18.26-1.84 6.71-6.43 11.07-12 15-3.83 2.15-7.7 3.2-12 4l1.1 3.65 2.8 9.44.64 2.12C446 574 446 574 446 576l2.94-.06C452 576 452 576 453 577c.27 2.18.27 2.18.38 4.88l.14 2.67c-.52 2.45-.52 2.45-2.54 4.24-3.72 1.51-7.09 1.69-11.04 1.65l-2.15.06c-3.25 0-5.3-.12-7.9-2.16-2.21-2.74-2.93-4.9-3.81-8.31l-.92-3.48-.91-3.61-.96-3.63C421 560.5 421 560.5 421 557l-12-2c-2.14 11.71-2.14 11.71-3 17l4 1a168 168 0 0 1-2 12c-6.65.2-12.53-.48-19-1.94l-2.6-.55c-6.25-1.36-6.25-1.36-7.4-2.51q.07-2.44.31-4.87l.24-2.68C380 570 380 570 382 567c2.63-.19 2.63-.19 5 0l.3-1.62c2.55-13.37 6.18-26.27 10.41-39.2l.9-2.73.81-2.46C400 519 400 519 400 517l-3-2c.5-4.97 1.55-8.64 4-13"/><path fill="#faeccd" d="M709 143c3.83 2.69 4.86 5.56 6 10 .35 3.9.38 7.78.38 11.69l-.01 3.44c-.26 18.28-3.46 36.3-8.37 53.87l-.82 3.38c-2.13 8.6-4.88 16.93-7.74 25.3l-1.18 3.49-1.14 3.28-1.02 2.95a25 25 0 0 1-4.1 6.6l-.93-1.52c-5.76-9.41-11.57-18.59-18.6-27.11-2.19-2.68-4.1-5.18-5.47-8.37l1.32-1.03c6.05-4.93 11.64-9.88 12.55-17.97q.11-2 .13-4c-8.41-5.61-20.4-3.33-29.81-1.5q-3.6.72-7.19 1.5c1.63-4.93 4.45-8.82 7.44-13l1.62-2.28A243 243 0 0 1 668 172l1.42-1.6c7.53-8.5 15.3-15.85 24.58-22.4l1.56-1.57c3.74-3.71 8.41-3.98 13.44-3.43"/><path fill="#faeccc" d="M384.56 99.56c4.46.11 7.07 1.47 10.45 4.32 12.78 13.58 26.57 42.15 27.06 60.9 0 .37 0 .37-.07 2.22l-3.29-1.46-4.33-1.91-2.17-.97c-11.24-4.95-11.24-4.95-16.96-4.91l-2.3-.02C391 158 391 158 389 160c-.66 5.21.9 8.23 3.5 12.69 3.5 6.02 3.5 6.02 3.5 9.31l-3 1.62a207 207 0 0 0-24.4 15.5C366 201 366 201 365 201c-1.35-80.54-1.35-80.54 15-100 1-1 1-1 4.56-1.44"/><path fill="#fac61f" d="M511.36 404.64 513 406c-5.62 18.71-20.73 38.66-37.94 48.19-8.14 4.14-16.72 5.24-25.62 2.81-6.01-2.25-11.84-6.7-14.67-12.53-1.96-6.28-.93-11.85 1.65-17.76 7.54-12.97 20.6-21.96 34.76-26.4 12.5-3.05 29.25-3.27 40.18 4.33"/><path fill="#302e28" d="M838 534h22v1l2.35-.14c21.34-.71 42.97 9.55 58.36 23.87 7.52 7.23 15.44 15.7 17.29 26.27l-2.05 1.4c-12.2 8.55-20.37 17.98-27.95 30.6q-2.45 4.02-5 8h-1l-.08-3.81c-.66-22.54-6.27-42.57-20.92-60.19l-2.37-2.87c-7.64-8.8-15.76-14.9-26.63-19.13v-3l-14-1z"/><path fill="#302d28" d="m661.8 707.56 2.39 1.44 2.56 1.52L669 712l2.69 1.69c11.88 11.88 15.55 25.12 15.64 41.3A62 62 0 0 1 683 778l-2.3-1.2c-14.9-7.65-24.16-9.67-40.43-4.57a256 256 0 0 0-15.74 6.13l-2.49 1.03-2.22.94C618 781 618 781 616 781v-2l1.69-.66c14.67-6.1 22.24-16.1 28.48-30.31 4.76-11.67 4.5-24.62 4.83-37.03 6.98-4.2 6.98-4.2 10.8-3.44"/><path fill="#f9c41c" d="M708.3 524.76c11.1 4.56 18.62 12.09 23.58 23.05 1.83 5.2 2.26 9.8 2.25 15.32v3.69C734 570 734 570 733 573c-18.84.55-36.51-.17-51.02-13.75-3.77-4.28-6.48-9.12-7.38-14.78.57-3.5 2.2-4.57 4.9-6.78l2.53-2.12L684 534c3.42 1.14 3.8 1.81 5.75 4.69 2.95 4.1 6.28 7.2 10.25 10.31a39 39 0 0 0-2.92-6.65l-1.1-2.1-2.36-4.36c-2.78-5.32-2.78-5.32-1.96-8.28 4.9-5.9 9.71-5.13 16.64-2.85"/><path fill="#f9ebcb" d="m586 226 3.63 1.54c24.05 11.14 40 31.21 49.5 55.55C640 286 640 286 639 288l-2.09-2.53c-18.69-22.45-42.53-42.26-72.57-46.22-20.9-1.56-41.12.65-58.34 13.75h-2c1.43-4.45 3.86-7.51 7-10.87l1.49-1.6c19.36-20.28 47.94-25.47 73.51-14.53"/><path fill="#f9c41b" d="M782 484c-1.7 12.31-11.51 22.6-20 31l-1.8 1.87c-6.08 5.82-14.92 9.86-23.2 11.13l-2.1.34c-7.24.55-11.46-2.9-16.9-7.34a62 62 0 0 1 9.69-6.12c5.21-2.78 5.21-2.78 6.31-3.88-6.1.74-11.65 2.33-17.5 4.16-3.63.87-6.79.99-10.5.84 6.52-15.45 26.15-25.15 40.85-31.17 8.72-2.74 26.75-5.03 35.15-.83"/><path fill="#fcc419" d="M258 50c4.98.56 9.02 2.18 13.44 4.44l2.08 1.06a187 187 0 0 1 14.92 8.69l1.95 1.22c2.63 1.76 4.4 3.12 5.74 6.02-.18 3.6-1.57 5.51-3.57 8.5l-2.23 3.43-1.17 1.79q-1.75 2.83-3.34 5.78l-1.05 1.93q-1 1.86-1.98 3.73c-1.32 2.42-2.3 4.14-4.75 5.5-2.94-.13-4.08-1.3-6.35-3.15-6.02-4.62-12.39-8.52-18.88-12.44l-3.19-1.93L242 80c.72-5 2.2-8.9 4.63-13.31l1.07-1.99A85 85 0 0 1 258 50"/><path fill="#282623" d="M227 785c3.77 1.46 4.96 3.15 6.78 6.7l1.53 2.94 1.63 3.17c11.9 22.55 25.56 43.73 42.06 63.19l2.5 3.03c23.78 28.65 51.53 52.47 82.67 72.85l2.28 1.51 2.01 1.31C370 941 370 941 371 944c-5.33-.55-9.24-2.37-13.87-4.87l-2.25-1.2c-8.02-4.41-15.5-9.52-22.88-14.93l-1.73-1.27c-18.1-13.37-35.69-28.57-50.27-45.73l-2.56-2.94c-19.69-22.7-36.35-48.04-48.25-75.68l-1.04-2.4c-1.57-3.78-2.43-6.07-1.15-9.98"/><path fill="#292723" d="M199 821c2.96.33 4.56.55 6.68 2.71l1.48 2.24 1.7 2.49 1.76 2.68 5.62 8.3a356 356 0 0 0 32.56 41.17q2.72 3 5.35 6.07c4.33 4.96 8.94 9.62 13.6 14.28l2.7 2.69c5.14 5.1 10.29 9.95 16.01 14.4 2.39 1.85 4.67 3.8 6.95 5.78 12 10.4 25.01 19.62 38.22 28.42C334 954 334 954 336 957c-2.23.76-3.54 1.15-5.82.41l-1.87-1-2.1-1.11-2.21-1.24-2.3-1.26c-20.52-11.34-39.08-26.48-56.2-42.41a366 366 0 0 0-4.43-4A261 261 0 0 1 229 872l-1.35-1.72C199 833.63 199 833.63 199 821"/><path fill="#050705" d="M478.85 313.79c2.15 2.21 2.15 2.21 2.65 5.2-1.11 6.69-6.8 10.87-12.09 14.67a170 170 0 0 1-15.63 9.7l-1.9 1.03c-2.36.77-3.58.46-5.88-.39-7.86-6.69-14.93-18.2-16.34-28.45-.1-6.05-.1-6.05 2.09-8.55 14.28-6.35 34.46-1.15 47.1 6.79"/><path fill="#fcc41a" d="M158.48 676.8c3.93 1.86 6.18 4.94 8.9 8.26l1.74 2.07 3.38 4.06a333 333 0 0 0 7 8.17 96 96 0 0 0 4.94 4.95C187 707 187 707 187 710c-1.4 1.47-1.4 1.47-3.37 3.06C170.46 724.1 170.46 724.1 168 729c-8.97-1.47-15.72-13.37-21-20l-3.05-3.68-3.07-3.76-1.51-1.79c-3.3-4.1-3.3-4.1-3.56-6.87 1.87-2.99 4.57-4.86 7.38-6.9l1.71-1.29a218 218 0 0 1 3.42-2.5q2.41-1.76 4.8-3.59c2.88-1.62 2.88-1.62 5.36-1.81"/><path fill="#fcc419" d="M211.1 520.73c7.06 4.72 13.96 16.5 16.9 24.27-.17 1.99-.17 1.99-1 4-1.88 1.37-1.88 1.37-4.34 2.59q-1.35.67-2.72 1.38l-2.88 1.4-5.52 2.78-2.78 1.38a127 127 0 0 0-10.57 6.45c-2.19 1.02-2.19 1.02-4.26.94-2.57-1.22-3.67-2.71-5.35-5l-1.86-2.52-1.9-2.65-1.95-2.6c-5.16-7.07-5.16-7.07-5.87-12.15 7.7-5.7 15.53-11.14 23.63-16.25l2.33-1.52 2.2-1.37 1.96-1.24c1.88-.62 1.88-.62 3.99.11"/><path fill="#fcc41a" d="M950 358c9.97 18.46 9.97 18.46 10.01 28.6-1.57 3.72-4.7 4.71-8.2 6.27l-4.37 2.05-2.24 1.04q-3.16 1.5-6.24 3.18l-1.9 1.01-5.17 2.8c-2.89 1.05-2.89 1.05-4.92.34-2.18-1.43-3.09-2.58-4.4-4.81l-1.28-2.1-1.29-2.2c-2.77-4.63-5.5-9.05-9-13.18 1.46-4.6 5.12-6.04 9.13-8.12 6.73-3.63 13.2-7.52 19.55-11.78 3.57-2.31 6.02-3.68 10.32-3.1"/><path fill="#2f2c28" d="M108.44 123.25c10.75 3.15 20.68 21.67 26.61 30.45.95 2.3.95 2.3.24 4.27-1.43 2.25-2.7 3.3-4.91 4.76l-2.15 1.43c-.36.25-.36.25-2.23 1.47l-4.37 2.9-1.97 1.3C118 171 118 171 116 173c-3.95-.41-5.5-2.4-7.96-5.4l-1.48-1.85a149 149 0 0 0-15.63-16.4c-3.87-3.65-3.87-3.65-4.14-6.88 1.66-3.38 4.08-5.56 6.9-7.97l1.57-1.4q2.35-2.06 4.74-4.1l1.65-1.43c4.06-3.48 4.06-3.48 6.79-4.32"/><path fill="#fcc419" d="M803 869c5.7.77 10.6 3.34 15.75 5.75l2.94 1.3q1.37.66 2.8 1.3 1.25.59 2.55 1.18c1.96 1.47 1.96 1.47 2.83 3.89a12 12 0 0 1-1.24 6.51l-.98 2.2-1.09 2.3-1.1 2.4c-9.5 20.3-9.5 20.3-13.28 21.98-2.99.26-4.31-.7-6.84-2.27l-2.65-1.62-2.75-1.73-2.76-1.7A341 341 0 0 1 787 904c.64-4.36 2.2-7.85 4.13-11.8q.44-.94.93-1.92l1.94-4q1.5-3.05 2.98-6.13c4.86-10 4.86-10 6.02-11.15"/><path fill="#fcc51b" d="M104 314c6.04.32 11.44 1.58 17.19 3.38l2.05.63A71 71 0 0 1 135 323q-3.01 13.02-6.19 26l-.5 2.08c-1.2 4.8-1.2 4.8-2.31 5.92-10.12-.07-20.1-2.11-30-4-.71-7.8.41-14.79 2.31-22.31l.65-2.57A85 85 0 0 1 104 314"/><path fill="#f8ebcc" d="M452.31 203.25c8.89 9.1 11.08 19.37 11.69 31.75l-2.06-2.06-1.4-1.39a74 74 0 0 1-3-3.23c-8.9-9.8-21.76-13.8-34.64-14.48-19.59-.49-35.88 6.22-52.9 15.16 6.85-15 26.37-24.1 40.76-30.16 13.14-4.43 30.23-3.92 41.55 4.41"/><path fill="#fcc51b" d="M645 26c7.27 3.16 13.7 11.93 17 19-.13 2.77-.69 3.7-2.71 5.6l-2.23 1.59C651.73 56.14 646.9 60.52 642 65l-5.62 5.06-2.54 2.29L632 74a22 22 0 0 1-7.23-5.04l-1.74-1.76-1.78-1.83-1.82-1.85Q617.2 61.27 615 59c3.18-9.13 11-16.18 17.69-22.94l1.62-1.64A58 58 0 0 1 645 26"/><path fill="#fcc41a" d="M799 82c5.2.43 9.25 2.3 13.81 4.63l2.13 1.07A72 72 0 0 1 830 98c-.6 3.66-2.1 5.54-4.5 8.31-5.3 6.42-9.36 13.5-13.5 20.69a67 67 0 0 1-14.94-3.56l-2.07-.71L790 121c-.28-7.23.72-13.65 2.31-20.69l.65-3.05c2.61-11.83 2.61-11.83 6.04-15.26"/><path fill="#fcc51b" d="m517 924 1.76 3.4 3.6 6.9a97 97 0 0 0 8.74 13.94c.9 1.76.9 1.76.75 3.66-1.2 2.97-2.92 3.82-5.62 5.52l-2.94 1.86-3.1 1.9-3.07 1.95c-8.22 5.15-8.22 5.15-12.12 5.87a324 324 0 0 1-13.06-16.81l-2.35-3.21c-1.59-2.98-1.59-2.98-1.63-5.6C491.4 935.48 508.49 924 517 924"/><path fill="#2d2b26" d="M94.3 493.97c4.32 1.2 7.32 2.97 10.95 5.53l1.96 1.35c6.98 4.85 13.87 10.02 19.79 16.15-1.53 3.94-3.96 5.81-7.25 8.38a74 74 0 0 0-9.19 8.25L108 536c-3.81-.21-5.73-2.37-8.37-4.94-5.2-4.82-10.73-8.86-16.53-12.9q-3.6-2.5-7.1-5.16c1.4-4.2 3.37-6.84 6.38-10.06l2.33-2.54L87 498l1.85-2.37C91 494 91 494 94.3 493.97"/><path fill="#2f2c27" d="M864 430c4.45.87 7.12 3.38 10.44 6.31l5 4.34q3.22 2.74 6.56 5.35c-.57 3.58-1.78 5.04-4.44 7.44a95 95 0 0 0-9.93 11.37l-1.3 1.7A158 158 0 0 0 865 474c-4.33-1.5-7.86-3.8-11.56-6.44l-1.71-1.2A289 289 0 0 1 843 460c1.44-5.6 4.21-9.4 7.69-13.87l1.62-2.14c3.71-4.83 7.53-9.54 11.69-13.99"/><path fill="#2e2b27" d="M888 159a92 92 0 0 1 17.94 3.31l2.28.61c5.36 1.55 5.36 1.55 7.15 3.8.93 3.36-.21 5-1.73 8.07l-1.63 3.35-1.76 3.49-1.71 3.5c-4.2 8.54-4.2 8.54-6.54 10.87-4.7-.46-9.3-2.26-13.75-3.75l-2.36-.73-2.25-.75-2.05-.67c-1.59-1.1-1.59-1.1-2.43-3.34-.2-3.37.53-5.56 1.71-8.72l1.24-3.37 1.33-3.48 1.31-3.55q1.61-4.32 3.25-8.64"/><path fill="#f4f4f4" d="M574.6 292.23c7.95 5.86 12.96 14.1 15.09 23.68.78 5.24 1.3 9.6-1.69 14.09h-3l-.48-1.65c-3.51-11.35-8.52-20.1-19.01-26.06-7.38-3.8-15.29-4.56-23.35-2.6a52 52 0 0 0-15.19 8.14C525 309 525 309 521 309c1.55-6.9 5.77-11.67 11.4-15.74q3.72-2.3 7.6-4.26l2.03-1.04c11.01-4.85 22.85-1.88 32.58 4.27"/><path fill="#fcc41b" d="M656.5 600.03c6.56 2.55 11.02 9.3 14.79 15.01.98 2.7.52 4.23-.29 6.96-1.53 1.73-1.53 1.73-3.5 3.26l-2.13 1.7-2.25 1.73-2.22 1.76c-8.31 6.55-8.31 6.55-11.16 6.57-4.07-1.51-6.6-4.21-9.62-7.27l-1.83-1.74c-4.17-4.16-4.17-4.16-4.63-7.49 2.12-3.98 5.3-6.63 8.65-9.58l4.05-3.66 1.94-1.71c1.7-1.57 1.7-1.57 3.87-4.07 1.83-1.5 1.83-1.5 4.33-1.47"/><path fill="#070908" d="M569.48 303.47c5.93 4.2 9.21 9.15 12.52 15.53.3.53.3.53 1.88 3.19 1.36 3.41 1.34 6.17 1.12 9.81-4 0-4 0-6-1.98l-2.12-2.64c-6.87-8-16.38-13.7-26.88-15.38-7.7-.4-14.6-.15-22 2-3 .13-3 .13-5 0l-1-3c13.4-13.32 30.77-17.45 47.48-7.53"/><path fill="#f5f4f4" d="M421.56 260c6.04 4.72 11.3 10.56 13.44 18 .22 3.68.18 7.32 0 11h-3l-1.69-3.62c-4.3-8.49-9.48-12.44-18.31-15.38-9.65-1.08-17.15 1.63-24.81 7.44a85 85 0 0 0-7.13 6.5L378 286h-2c-.77-5.06.1-7.72 2.94-12A49 49 0 0 1 392 262l2.01-1.32c7.52-4.1 19.94-5.07 27.55-.68"/><path fill="#080a09" d="M421 273c5.8 4.02 9.81 9.1 11.88 15.88C433 291 433 291 432 293c-2.74-.4-4.03-1.02-6.19-2.81-8.15-6.35-17.67-8.16-27.81-7.19-4.9 1.25-9.7 2.78-14.18 5.16-2.53 1.17-4.2.57-6.82-.16a40.8 40.8 0 0 1 22.97-18.6c7.8-1.5 14.2-.4 21.03 3.6"/><path fill="#f6c51e" d="M420 520c7.67-.52 15.69.86 22.19 5.06 2.25 2.41 2.76 3.46 3.12 6.75-.39 3.97-1.52 5.4-4.31 8.19-3.8 2.64-7.93 2.3-12.37 2.25l-2.25.02A31 31 0 0 1 414 540a81 81 0 0 1 6-20"/><path fill="#fcc51a" d="M152 413c3.77 1.64 5.8 3.56 8 7 .8 4.03.93 8.2-.98 11.91-3.37 4.22-6.13 5.8-11.33 6.59-4.91-.67-7.4-2.91-10.69-6.5-1.86-3.72-1.57-7.94-1-12 3.73-6.96 8.73-7.7 16-7"/><path fill="#fcc51d" d="M880 811c3.82 1.85 6.34 4.16 7.8 8.2.7 4.14.42 6.33-1.42 10.17-3.45 3.81-5.68 5.41-10.82 6.07-4.24-.52-6.3-1.7-9.56-4.44-2.55-4.17-2.83-8.23-2-13 3.73-6.69 8.76-8.2 16-7"/><path fill="#fcc71f" d="M509 67c3.62 1.65 6.13 3.45 8 7 .41 3.78.33 6.25-1.19 9.75-2.85 3.54-5.28 5.06-9.81 5.63-4.56-.57-6.99-2.09-9.81-5.7-1.44-3.26-1.7-5.14-1.19-8.68 3.64-6.53 6.46-8.65 14-8"/><path fill="#fcc51e" d="M237 623c3.03 1.74 5.42 3.84 7 7 .38 4.98.18 8.06-3 12a16 16 0 0 1-7.87 3.56c-3.85-.69-5.93-1.93-8.77-4.58-2.16-3.15-2.13-5.9-1.86-9.64.7-3.27 2.05-5.1 4.5-7.34 3.23-1.61 6.51-1.6 10-1"/><path fill="#ebeae4" d="m282 273 2 3 1.54 2.16 1.65 2.34 1.67 2.34L290 285l-1 3-6 1c-3.08-4.43-3.08-4.43-2.69-7.31L281 280h2z"/><path fill="#f3f1eb" d="M436 790c9.6 2.9 9.6 2.9 13 6-3.38 3.02-3.38 3.02-6.06 2.94-2.5-1.2-3.52-2.6-4.94-4.94v-2h-2z"/><path fill="#0d0d0a" d="M379 759c5.05.63 9.3 2.13 14 4l-5 4a34 34 0 0 1-9-6z"/><path fill="#191603" d="m530 520-1 3c-5.63 2.61-10.84 3.59-17 4a44 44 0 0 1 9.56-5.75l2.88-1.36C527 519 527 519 530 520"/><path fill="#a59b86" d="M399 460c4.64 2.6 8.79 5.77 13 9-3 1-3 1-6.14-.43l-3.55-2q-.9-.52-1.84-1.03-2.24-1.26-4.47-2.54z"/><path fill="#a59b89" d="M371 208c0 3 0 3-2.27 5.6q-1.48 1.46-2.98 2.9l-1.49 1.47A67 67 0 0 1 356 225l-2-1 6.81-6.87 1.95-1.98 1.88-1.9q.86-.85 1.73-1.74C368 210 368 210 371 208"/><path fill="#dfb41c" d="M706 524v1l-3.87 1.06-2.18.6C698 527 698 527 696 526l-.87 2.44C694 531 694 531 692 532l-1-4c5-5.25 8.02-5.57 15-4"/><path fill="#ede9dc" d="M742 570c1.98 3.27 2.17 5.41 1.75 9.19l-.27 2.67L743 584l-2 1c-2-1-2-1-2.81-2.75-.27-3.16 1.14-4.61 2.81-7.25.69-2.81.69-2.81 1-5"/><path fill="#dbd3b9" d="M420 159c2 3 2 3 2 8l-11-5v-1l6.15-.68C419 160 419 160 420 159"/><path fill="#13120f" d="M657 819h1v13l-2-2-4 3a182 182 0 0 1 5-14"/><path fill="#e5b91c" d="m591 480-7 8-2-2 2-4-2-1c5.63-2.12 5.63-2.12 9-1"/><path fill="#272621" d="M394 321h2l-1 11-3-2-2 2c.74-7.74.74-7.74 4-11"/><path fill="#1f1e1a" d="m691 148 2 1c-6.9 6.86-6.9 6.86-11.5 7.44L679 156a27 27 0 0 1 12-8"/><path fill="#585247" d="M838 534h22c-3 2-3 2-7 2l-1 3v-3l-14-1z"/><path fill="#ede7d0" d="m509 245 1 2 4-1c-2.51 2.6-4.99 5-8 7h-2c1.19-3.38 2.28-5.65 5-8"/><path fill="#1a1301" d="M696 541c2.97 2.54 4.36 5.49 6 9-3.91-1.27-5.8-2.51-8-6z"/><path fill="#dbd9d2" d="M754 465c0 3.6-.63 4.02-3 6.56-3 3.23-3 3.23-3 5.44l-5 1c3.39-4.7 6.78-9.03 11-13"/><path fill="#211a01" d="M353 492a60 60 0 0 1 5 9l-1 2-6-6z"/><path fill="#181713" d="M410 851h2q1.6 2.95 3 6l-1 2h-3c-1.35-2.7-1.07-5-1-8"/><path fill="#13120f" d="m429 843 7 6-3 3c-2.5-2.94-3.47-5.18-4-9"/><path fill="#282723" d="m628 773 2 1c-3.6 4.76-8.47 5.6-14 7v-2l1.86-.8 2.45-1.08 2.43-1.05C625 775 625 775 628 773"/><path fill="#baad98" d="M882 663h1c2.67 10.37 2.67 10.37 0 16h-1z"/><path fill="#e0b81e" d="M682 536c0 3.95-1.53 5.02-4 8-.7 1.31-1.4 2.64-2 4-1-1-1-1-1.5-3.19.78-4.4 4.03-6.24 7.5-8.81"/><path fill="#9d9382" d="m679 690 2 2-8 8-1-3z"/><path fill="#e1d9c1" d="m667 173 2 1-3.87 5-2.18 2.81L661 184h-2c1.36-3 2.95-5.29 5.13-7.75l1.63-1.86z"/><path fill="#3d3a35" d="M106 124c2.13-.44 2.13-.44 5 0a51 51 0 0 1 6 7c-4.3 0-5.87-2.2-9-5z"/><path fill="#2c2923" d="M398 108h2a46 46 0 0 1 3.63 4l1.9 2.25L407 116l-3 3z"/><path fill="#cdcbc2" d="m536 138 4 8-6 2z"/><path fill="#d9d7d2" d="m599 609 2 2-6 6-3-1z"/><path fill="#a39885" d="m588 495 1 3a112 112 0 0 1-5 6l-1 2-2-1 2.38-3.87 1.33-2.18C586 497 586 497 588 495"/><path fill="#dfb41a" d="m723 498 2 1q-1.61 1.73-3.25 3.44l-1.83 1.93c-2.02 1.72-3.33 2.22-5.92 2.63a43 43 0 0 1 9-9"/><path fill="#a59c87" d="m513 484 2 2-12 1c6.33-4.22 6.33-4.22 10-3"/><path fill="#22211b" d="M538 355c1.5 1.19 1.5 1.19 3 3 .19 2.69.19 2.69 0 5l-4-2z"/><path fill="#efe8d2" d="M399 342h4q1.6 2.95 3 6l-1 2-3-2.87-1.69-1.62C399 344 399 344 399 342"/><path fill="#dcac15" d="M733 556h1v14l-4 1 .96-1.64c1.22-2.78 1.45-5.1 1.66-8.11l.23-2.98z"/><path fill="#c7c5bd" d="M736 342h1c.29 3.38.45 6.63 0 10-2.5 2.63-2.5 2.63-5 4l.88-1.94c1.44-3.94 2.28-7.95 3.12-12.06"/><path fill="#cbcac6" d="m436 790 7 2-2 5c-1.5-1.37-1.5-1.37-3-3v-2h-2z"/><path fill="#d4aa16" d="m570 505 2 1c-1.06 2-1.06 2-3 4-3.69.25-3.69.25-7 0 2.55-2 4.98-3.8 8-5"/><path fill="#352a05" d="m735 510-5 5-1-3-2-1c2.93-.98 4.96-1.08 8-1"/><path fill="#efe5c8" d="m493 448 2 1-7 7-2-2z"/><path fill="#3a3631" d="m500 256 1 3-7 6-2-1z"/><path fill="#181713" d="m379 759 6 1v3l-3 1c-1.5-1.37-1.5-1.37-3-3z"/><path fill="#cecdc8" d="M742 570c2 4 2 4 1.88 6.13C743 578 743 578 739 580z"/><path fill="#e8e5df" d="M124 521v3l-5 2zm-7 5 2 1-4 2z"/><path fill="#110e02" d="m532 517 2 1-1 4-4 1c.38-2.44.38-2.44 1-5z"/><path fill="#e9e6dd" d="m723 889 1 3c-1.81 2.69-1.81 2.69-4 5h-2a40 40 0 0 1 5-8"/><path fill="#292603" d="m518 523 3 1v2l-9 1a37 37 0 0 1 6-4"/><path fill="#dcb01b" d="m724 518-1 5-5-2c3.75-3 3.75-3 6-3"/><path fill="#e7dfca" d="M533 358c3.88 1.75 3.88 1.75 5 4l-5 1z"/><path fill="#e1d8be" d="m365 193 4 4-1 3-3 1z"/><path fill="#a19785" d="m397 165 5 1-2 4h-2z"/></svg>