<svg xmlns="http://www.w3.org/2000/svg" width="1024" height="1024"><path fill="#090806" d="M439.56 38.5C470.38 54.3 487.08 97.14 498 128l.92 2.6.83 2.4.73 2.13C501 137 501 137 501 140l1.72.3A38 38 0 0 1 517 146l-1-3a29 29 0 0 1-1-12c2-3 2-3 5-5 12.1-1.39 24.02 4.38 33.51 11.55 10.4 8.32 20.48 19.3 25.43 31.83 2.7 6.47 5.47 9.24 11.93 12l2.94 1.12 2.91 1.32c6.87 2.76 6.87 2.76 10.52 1.25A50 50 0 0 0 613 180a201 201 0 0 1 3.36-2.75l1.66-1.38c33.88-27.97 81.82-54.06 126.67-54.3l3.26-.1c8.41-.06 13.23 1.93 19.3 7.66 5.04 8.27 6.9 17.14 6.92 26.7v2.3l.02 4.8.03 7.2c.19 47.96-17.15 98.72-46.22 136.87l-2.02 2.66a252 252 0 0 1-11.8 13.9l-1.41 1.6c-2.24 2.44-3.57 3.77-6.77 4.84a2876 2876 0 0 0 4.7 19.41c4.94 20.63 10.76 40.17 27.3 54.59l2 1 .26-2.93c.7-4.78 2.6-8.9 4.62-13.26l1.2-2.63c20.03-42.93 52.3-83.05 97.75-100.4 14.47-5.23 28.67-8.86 44.1-9.03l2.16-.03c5.3.04 10.04.41 13.91 4.28.15 6.35-4.11 10.43-8 15l1.7-.05c19.9-.48 37.96.95 56.3 9.05l3.38 1.48c7.45 3.48 14.76 7.17 18.12 15.02-.67 4.7-2.74 6.2-6.32 9.12A15 15 0 0 1 963 333v2l2.16.3c7.89 1.93 14.43 7.77 19.7 13.7 1.52 2.65 1.71 3.99 1.14 7-3.82 4.5-8.64 8.13-13.18 11.9A127 127 0 0 0 963 377l-2.18 2.22c-17 18.14-26.33 42.66-30.82 66.78l-.38 2.01c-2.45 13.05-3.06 25.7-3.06 38.96l-.04 6.17q-.06 8.05-.07 16.1l-.12 25.74-.03 8.87c-.11 29.08-4.3 58.47-13.3 86.15l-.74 2.4A228 228 0 0 1 865 716l-1.57 1.8C834.17 750.98 793.95 775.46 750 783l-2.26.41c-19.15 3.4-39.43 4.18-58.74 1.59l1.25 3.06c7.19 17.87 13.22 36.14 17.3 54.97.62 2.74 1.34 5.46 2.04 8.18 1.96 7.53 3.4 15.06 4.41 22.79l2.35.66c4.94 1.81 9.42 4.26 14.02 6.78l2.95 1.61c22.02 12.24 47.04 28.71 56.9 52.95 2.22 8.54 1.8 17.2-2.67 24.88-6.3 8.62-15.55 12.44-25.74 14.58-13.52 1.92-25.84.56-38.81-3.46l-3.1-.87c-25.3-7.63-48.17-24.95-66.9-43.13l-2.43-2.32c-4.86-4.96-7.87-10.01-10.88-16.18-4.13-8.26-9.09-13.22-16.69-18.5l-4.3-3.12a746 746 0 0 0-59.27-38.46l-7.45-4.4C521.7 827.21 491.2 816.34 457 809l-2.81-.62c-20.65-4.4-37.14 1.87-55.19 11.62l-1.97 1.06c-12.71 6.92-12.71 6.92-18.03 11.94-.34 8.94 6.07 18.21 10.19 25.88l3.84 7.18c2.71 5.44 2.72 11 1.97 16.94-3.27 8.52-10.05 12.29-17.98 15.9-29.56 13.11-64.52 22.82-97.02 24.1l-2.3.1c-13.7.51-29.26 1.1-40.25-8.55-4.65-4.95-5.04-9.89-4.86-16.45 1.37-10.32 8.46-18.01 16.41-24.1 14.29-9.98 30.15-15.14 47-19l-2.27-1.95c-14.67-12.83-29.46-31.02-30.89-51.25-1.43-29.69 13.6-52.73 32.16-74.8l2.56-3.12c4.46-5.36 9-10.51 14.03-15.34l2.37-2.29q2.32-2.22 4.7-4.39c5.3-5.06 5.3-5.06 5.48-8.99-1.19-3-2.4-5.94-3.76-8.87a178 178 0 0 1-7-18.87l-.84-2.61a238 238 0 0 1-8.92-40.23q-.46-3.44-.95-6.87l-.62-4.54q-.14-1.1-.32-2.25a70 70 0 0 1-.68-11.07c.2-10.24.2-10.24-3.22-13.86a64 64 0 0 0-9.7-4.7q-2.78-1.26-5.53-2.54-1.9-.9-3.83-1.76c-6.92-3.14-13.4-6.96-19.9-10.89l-3.42-2.05A637 637 0 0 1 229 545l-2.36-1.58A523 523 0 0 1 198 523l-1.65-1.27a489 489 0 0 1-34.4-29.03 250 250 0 0 0-6.77-6c-4.43-3.87-8.6-7.97-12.74-12.14l-2.17-2.16c-4.63-4.63-9-9.44-13.27-14.4l-3-3.36a337 337 0 0 1-17.75-21.76l-1.94-2.58a148 148 0 0 1-7.8-11.29c-4.43-7.23-7.97-10.32-16.17-12.85C65.51 401.03 55.23 388.36 48 375c-5.64-12.08-8.53-24.25-8.44-37.56l-.06-3.17c0-9.51 2.27-17.95 7.94-25.7l1.8-2.5C51 304 51 304 54 301.87l2-1.87a41 41 0 0 0-1-8 192 192 0 0 1-2.37-32.06v-2.31c.15-41.12 16.15-79.39 45.06-108.75 21.28-21.1 47.87-34.55 77.31-39.88l2.79-.53c5.6-.82 11.24-.7 16.88-.71q3.24-.02 6.49-.07c34.3-.26 67.27 14.5 91.75 38.2C316.13 169 329.26 199.32 336 231a74 74 0 0 0 11.31-8.81l2.62-2.46 1.4-1.34c1.67-1.39 1.67-1.39 4-2.7 2.8-1.69 4.66-3.1 6.67-5.69 1.05-4.7 1.06-9.2.93-14-.1-3.94-.04-7.88-.02-11.82v-2.39c.18-45.86 14.9-102.03 47.8-135.55 8.6-8.02 17.22-12.38 28.85-7.74"/><path fill="#afa592" d="M323 410a51 51 0 0 1 9.94 9.88 166 166 0 0 0 12.62 13.87l1.86 1.86a254 254 0 0 0 15.53 14.06A351 351 0 0 0 411 484l2.14 1.27A228 228 0 0 0 463 507l1.91.58c18.74 5.61 37.95 9.78 57.11 13.7 48.84 10.04 48.84 10.04 59.47 25.95 3.73 6.45 4.7 11.38 4.7 18.83v2.37c-.09 9.2-.21 19.52-2.7 28.42-4.32 19.28-.84 43.52 9.51 60.15a114 114 0 0 0 15.36 18.4c2.42 2.35 4.57 4.9 6.77 7.45q3.05 3.47 6.18 6.84c5.26 5.84 10.02 12 14.69 18.31l1.39 1.85c9.25 12.44 17.05 25.63 24.61 39.15l1.43 2.56C679.3 780.15 710.37 838.8 704 873c-7.99 11.84-22.85 17.29-36 21l-2.39.75c-2.21.6-4.33.97-6.61 1.25l-3.68.46c-5.73.5-10.42.64-15.5-2.3-2.54-2.18-4.94-4.4-7.32-6.75a78 78 0 0 0-7.87-6.28l-1.81-1.32a787 787 0 0 0-60.5-39.4C528.3 820.37 494.55 807.5 456 800c-28.19-5.6-55.51-12.3-81-26 12.64 13 30.08 19.47 47 25-3.27 2.18-6.65 3.6-10.25 5.13-16.04 6.92-35.77 15.9-45.75 30.87l1.83.04c2.17.96 2.17.96 3.65 4.27q.66 2.06 1.27 4.13l.67 2.1c1.58 5.08 1.58 5.08 1.58 7.46q-2.62 1.17-5.25 2.31l-2.95 1.3c-9.72 3.77-19.06 4.87-29.43 4.76l-3.48.04c-17.1-.06-27.33-7.7-39.14-19.22A93 93 0 0 1 275 813l-.96-2.24c-5.04-13.8-2.24-28.25 3.5-41.25 10.61-22.19 27.38-41.3 44.27-58.95l2.14-2.31A36 36 0 0 1 330 703c3.46.27 3.46.27 7 1 3.15-.88 5.97-2.33 8.88-3.81l2.5-1.24C362.22 692 375.28 683.8 388 675l1.83-1.27A304 304 0 0 0 413 656l1.72-1.45C428.46 643 439.9 630.98 450 616l2.7.73c16.42 4.36 33.28 7.68 50.3 8.27v-2l-2.8-.37c-47.65-7.05-92.48-32.25-129.2-62.63l-2.88-2.32c-8.32-6.82-15.95-14.33-23.56-21.93l-1.57-1.57A282 282 0 0 1 326 516l-1.46-1.75c-15.3-18.46-28.6-38.4-40.29-59.31l-1.3-2.33C280 447.25 280 447.25 280 445l3.63-.06c12.45-1.47 22.78-9.4 30.37-18.94 3.42-5.1 6.25-10.5 9-16"/><path fill="#aea492" d="M435 48c3.13 1.63 3.13 1.63 6 4l1.6 1.27a70 70 0 0 1 11.65 12.42l1.7 2.24c13 17.6 34.05 48.56 34.05 71.07l-1.93.84-2.5 1.1-2.5 1.09C481 143 481 143 480 144c-1.06 7.18 1.4 10.92 5.47 16.78C487 163 487 163 487 164l-3.6.26c-8.36.7-16.37 1.66-24.4 4.18l-2.01.62c-3.33 1.11-5.78 2.15-7.99 4.94l2.7-.66c16.49-3.61 34.62-3.92 51.3-1.34-2.83-5.07-6.44-9.38-10.15-13.83-2.69-3.33-4.5-5.75-4.85-10.17 15.44-.89 27.34 5.5 38.9 15.36C529 165 529 165 532 166l-.52-1.68-2.36-7.7-.81-2.63c-1.8-5.95-3.2-11.88-4.31-17.99 10.62.35 20.31 5.69 28 13v2l1.7.65c8.34 4.91 13.92 16.73 18.34 25.06 3.15 5.89 5.29 8.25 11.51 10.7l3.3 1.31 3.46 1.34 3.42 1.36A272 272 0 0 0 609 197l1.2-1.28c4.67-4.82 9.67-8.91 15.05-12.9l2.66-1.98c32.51-23.87 75.21-48.6 116.65-49.15l2.21-.09c5.2-.06 8.2.84 12.23 4.4 9.78 15.6 5.53 41.63 3 59l-.36 2.61c-2.2 15.73-6.3 30.46-11.64 45.39l-.95 2.68c-9 24.8-21.94 47.28-39.05 67.32l-1.82 2.23A129 129 0 0 1 704 320h-2l-.88-2.68c-6.22-18.8-12.38-36.54-23.12-53.32v-2l1.9-.48c6.22-1.7 12.43-3.85 17.1-8.52.27-2.37.27-2.37 0-5-4.48-5.32-11.61-7.77-18-10a74 74 0 0 1 8-7.31 28 28 0 0 0 8-10.69c-.19-3-.19-3-1-5-10.74-3.58-23.77.25-34 4 1.46-4.5 3.99-7.68 7.06-11.19l1.5-1.73 3.02-3.46q1.88-2.14 3.72-4.3c18.13-20.75 43.71-40.2 70.7-47.32v-1c-20.44-2.09-42.3 14.56-57.37 26.7-17.51 14.35-34.9 32.15-41.63 54.3l1.57-.69c25.44-11.07 25.44-11.07 38.43-10.31-3.3 7.97-12.14 13.42-19.29 17.71C666 239 666 239 665 242l1.73.04c7.59.45 14.47 2.54 21.27 5.96l2 3c-7.23 3.87-13.6 6.42-22 6l6.24 11.22c12.53 22.6 19.16 45.86 24.46 71.02 7.1 33.57 14.5 59.04 44.3 78.76-8.77 12.32-28.16 17.63-42 22 1 3 1 3 3.73 4.54l3.46 1.52 3.42 1.54c3.1 1.28 6.2 2.39 9.39 3.4-1.22 3.67-2.06 3.9-5.36 5.71l-2.84 1.57-3.11 1.66-3.24 1.73A388 388 0 0 1 626 493l-2.76.74c-21.32 5.64-41.42 10.6-63.45 6.42-11.75-2.21-23.5-2.32-35.42-2.29h-7.6c-8.6-.01-17.15.2-25.73.77a275 275 0 0 1-20.1.42l-3.53-.01L459 499v-1l2.61.03C483.5 497.5 504.72 486.4 520 471c12.73-13.73 19.85-30.67 19.34-49.52A49.5 49.5 0 0 0 524 390l1-2 2.72 1.31c18.52 8.88 37 17.56 56.28 24.69l2.46.91c16.04 5.84 33.52 11.2 50.68 11.22h19.88C660 426 660 426 663 425l-10-12c2.5-1.25 3.96-.73 6.64-.3 5.4.68 10.87.69 16.3.86l3.8.13 9.26.31a85 85 0 0 0-6.77-9.85C666.65 384.23 655.38 361.47 644 339c-16.98-33.5-35.46-66.91-72.2-81.25-18.46-5.96-38.04-4.36-55.32 3.94-27.4 14.08-45.06 41.56-54.67 70.06l-.7 1.99c-1.08 3.43-1.28 4.9.28 8.21L463 344a20 20 0 0 1-9.31-3.69 75 75 0 0 0-13.56-6.5l-1.9-.72a85 85 0 0 0-31.42-5.4l-3.36-.01c-5.74.04-10.95.47-16.52 1.88-5.47 1.25-11.42.85-16.33-1.91-5.75-4.7-9.01-10.46-10.6-17.65-1.32-13.5.03-24.85 6-37l1.57-3.23c7.25-13.53 18.98-25.73 33.58-31.12 9.77-2.24 19.78-1.49 28.35 3.85 6.7 4.6 10.5 11.73 12.5 19.5 1.95 20.66-3.22 39.17-15.37 56l-2.63 3h-2v2l2.15.18 2.79.26 2.77.24C432 324 432 324 433 325l1.3-2.24a81 81 0 0 1 4.89-6.95c11.63-16.54 16.94-36.57 17.12-56.56l.09-3.1c.1-10.96-3.28-20.71-10.4-29.15-9.3-8.98-21-11.31-33.55-11.31-27.62.55-51.43 20-72.06 36.3C339 253 339 253 338 253c-.7-4.18-.87-7.84 0-12 2.65-3.23 5.86-5.39 9.28-7.75 3.14-2.28 5.96-4.92 8.85-7.5A365 365 0 0 1 379 207.49l5.45-4.1A193 193 0 0 1 433 177a15 15 0 0 0-5.25-6.75A44 44 0 0 1 418 159v-2c7.66.3 13.34 3.37 20 7l-.84-2.68c-2.26-7.48-3.84-14.5-4.16-22.32 8.42 5.73 13.03 15.27 17.07 24.43C451 165 451 165 454 166c.62-32.52.06-72.02-23-98-2.17-1.23-2.17-1.23-4-2l1.57 3.04C441.05 93.4 448.7 119.47 448 147l-1.75-2.2a260 260 0 0 0-6.25-7.49l-2-2.32c-1.98-1.97-3.36-3.1-6-3.99-2.25.38-2.25.38-4 1-.24 7.62.16 14.59 2 22l-2.25-1c-5.26-1.4-10.34-1.16-15.75-1-.81 7.78 2.69 11.9 7.19 17.94C421 172 421 172 423 173v2l-2.94 1.21a204 204 0 0 0-40 22.34C375.18 202 375.18 202 373 202c-.45-50.74 8.48-110.56 45.38-148.75 5.07-4.97 9.61-6.23 16.62-5.25"/><path fill="#f8ecd2" d="m547.19 253.56 3.33.03c22.97.47 40.8 11.24 57.1 26.6 16.93 17.74 27.53 39.99 38.62 61.58 24 46.7 24 46.7 38.37 63.87 2.3 2.78 3.68 4.83 4.39 8.36q-6.5.05-13 .06l-3.7.03c-6.2.01-12.17-.12-18.3-1.09l10 12c-5.87 2.94-11.45 2.38-17.94 2.38h-2.04A137 137 0 0 1 609 423l-2.42-.62c-23-5.99-44.59-16.12-66.05-26.11l-2.23-1.03-4.15-1.94c-3-1.4-5.88-2.67-9.15-3.3l1.32 1.33c9.98 10.63 14.25 22.52 13.99 36.9-1.56 19.03-11.08 36.18-25.42 48.52-14.92 12.21-34.2 23.3-54.1 22.02-9.51-1.18-18.26-5.63-26.79-9.77l-2.55-1.23c-25.03-12.23-47.6-28.94-68.13-47.66q-3.05-2.76-6.2-5.42A194 194 0 0 1 332 408l-2.26-2.48c-2.1-3.04-2.08-4.24-1.55-7.83l.35-2.68.46-3.01c2.35-16.47 2.82-34.59-5.31-49.62-1.95-3.9-2.02-5.3-.69-9.38a100 100 0 0 1 3-6c3.58.42 7.13.84 10.68 1.49 8.73 1.55 17.24 1.85 26.08 1.83q3.56 0 7.11.04c7.62.03 14.23-.33 21.54-2.66 20.96-5.64 43.97 1.58 62.34 11.57A66 66 0 0 0 462 343l-1.67-1.4c-1.57-3.08-1.33-3.69-.44-6.92q.86-2.63 1.8-5.24l.98-2.82c5.45-15.04 12.96-28.46 23.33-40.62l2.4-2.89c14.96-17.33 35.48-29.77 58.79-29.55"/><path fill="#fcc41b" d="m229 121 2.08.57c18.23 5.09 34.83 13.77 48.92 26.43l1.78 1.6C295.7 162.31 305.1 176.97 313 194l1.38 2.86c1.8 3.83 2.62 5.79 2.62 10.14h2c4.19 11.89 8.03 23.51 10 36l.52 3.29c2.12 16.36 1.68 34.73-2.52 50.71l-.67 2.57c-2.56 9.73-5.44 19.14-9.33 28.43-3.89 0-4.77-1.25-7.75-3.69-6.57-4.96-13.43-7.11-21.25-9.31a133 133 0 0 1 3.62-10.03c3.77-9.23 6.7-18.1 8.38-27.97l.62-2.91c3.2-16.62 2.5-34.7-1.62-51.09l-.49-1.96c-4.08-15.78-11-31.52-21.51-44.04l-2.18-2.6c-16-18.36-39.03-32.5-63.82-34.4-25.37-1.33-46.66 1.16-69 14l-3.11 1.79c-15.79 9.58-15.79 9.58-17.95 16.71l.06 2.5a37 37 0 0 0 8.31-6.06c21.17-18.82 48.83-26.52 76.69-24.94 5.43.58 10.7 1.72 16 3l2.65.59c12.5 3.2 24.44 10.33 34.35 18.41l2.54 2.05c20.31 17.25 32.5 43.68 35.46 69.95 1.76 22.7-1.43 44.93-10 66l-1.14 3.38c-2.58 6.97-2.58 6.97-6.15 8.78q-2.58.72-5.2 1.25c-4.98 1.17-8.42 4.1-11.38 8.15-1 2.18-1.6 4.12-2.13 6.44l-3.56.75c-7.32 1.86-12.02 5-16.44 11.25-2.7 5-3.37 9.19-3.5 14.77-.5 2.23-.5 2.23-2.09 3.81-21.66 12.75-48.47 16.4-72.93 10.53-15.35-4.89-28.31-12.58-40.48-23.11l-2.18-1.71c-4.98-4.24-5.57-7.98-6.3-14.35-1-5.68-3.95-9.52-8.14-13.31L100 317c-.34-2.1-.34-2.1-.37-4.62-.4-5.46-2.08-9.24-5.63-13.38l-1.98-1.2c-4.63-4.13-4.73-12.97-5.19-18.97-.23-4.5-.26-9-.22-13.52q.01-3.46-.02-6.93a111 111 0 0 1 6.28-37.63l.78-2.27Q96.76 209.5 101 201l-5-2-.82 2.58c-1.2 3.46-2.57 6.8-4 10.17-5.27 12.86-9.33 26.43-9.35 40.4v2.33l-.02 4.86-.03 7.37c-.03 7.75.2 14.75 2.22 22.29.13 3.06.13 3.06 0 5l-3.14.18-4.11.26-2.07.12c-3.34.2-6.45.56-9.68 1.44-8.15-41.26-1.89-82.27 21.13-117.75q1.89-2.66 3.87-5.25l2.04-2.7c19-24.19 44.17-41.25 73.96-49.3l3.59-1.02c18.16-4.3 41.5-4.1 59.41 1.02"/><path fill="#312e29" d="m865 542 2.34 1.91c19 16.04 36.48 43.84 38.84 69.05.24 6.67-1.49 12.23-3.68 18.48l-1.1 3.2a244 244 0 0 1-28.46 56.61l-1.41 2.08A100 100 0 0 1 868 698h-2l-.77 1.7c-17.84 33.41-61.4 57.04-95.98 68.55q-5.09 1.49-10.25 2.75l-2.16.55c-9.05 2.26-17.45 4.04-26.84 3.45l.48-3.75c3.04-27.59-1.02-54.05-18.48-76.25-8.6-10.12-18.46-18.26-31-23a20 20 0 0 1 4.9-6.96l1.75-1.66 1.85-1.75c8.8-8.56 15.52-17.93 21.5-28.63h2l.27-2.02c.94-3.82 2.66-7.12 4.42-10.6 7.44-15.4 11.51-31.57 14.31-48.38l.53-3.06c1.6-9.94 1.9-19.77 2.1-29.82l.11-5L735 522l7.07-2.89 1.99-.82C784.82 501.8 832.2 515.16 865 542"/><path fill="#322e29" d="m547.19 253.56 3.33.03c22.97.47 40.8 11.24 57.1 26.6 16.93 17.74 27.53 39.99 38.62 61.58 24 46.7 24 46.7 38.37 63.87 2.3 2.78 3.68 4.83 4.39 8.36q-6.5.05-13 .06l-3.7.03c-6.2.01-12.17-.12-18.3-1.09l10 12c-5.87 2.94-11.45 2.38-17.94 2.38h-2.04A137 137 0 0 1 609 423l-2.42-.62C564.85 411.51 517.43 390.44 484 363l-2.64-2.15-5.57-4.57a879 879 0 0 0-10.8-8.65C463 346 463 346 461 344v-3l-2-2c5.87-19.72 13.58-37.26 27-53l2.4-2.89c14.96-17.33 35.48-29.77 58.79-29.55"/><path fill="#312e29" d="M874.6 453.96q3.77 2.96 7.4 6.04l2.53 2.12c12.62 10.93 21.93 24.65 30.47 38.88l1-27h1q.07 14.85.1 29.7l.05 13.81c.2 40.03.2 40.03-2.15 58.49l-.48 3.8a289 289 0 0 1-1.4 9.08l-.5 3.1A310 310 0 0 1 907 618h-1l-.45-2.94c-5.09-31.3-22.66-59.6-48.26-78.31-26.88-19.28-60.36-27.96-93.29-22.88a114 114 0 0 0-19.29 5.17c-3.19 1.13-6.46 2.03-9.71 2.96v36h-1a8952 8952 0 0 1-1.11-56.61c-1.02-52.05-1.02-52.05 5.47-60.08 2.75-2.2 5.88-3.7 9.01-5.25l2.17-1.07c40.93-19.77 90.18-7.3 125.07 18.97"/><path fill="#aea592" d="M134 403a55 55 0 0 1 10.5 4.31c11.42 5.8 24.3 10.27 37.15 11 9.32.55 15.16 1.11 22.13 7.81C224 445.2 255.5 460.57 281.46 470c4.09 1.61 5.9 2.9 7.79 7a146 146 0 0 0 10.63 17.06l1.84 2.63c3.97 5.6 8.08 10.96 12.6 16.12 1.92 2.5 3.06 4.09 3.68 7.19a58 58 0 0 1-3.62 7.56q-1.15 2.17-2.27 4.34l-1.12 2.13c-5.17 10.25-6.28 21.38-7.7 32.62q-.6 4.68-1.29 9.35c-42.11-20.8-81.92-45.84-118-76l-1.58-1.32a585 585 0 0 1-36.98-34.12l-1.95-1.93A253 253 0 0 1 131 449l-2.92-3.32C108 422.72 108 422.72 108 419l2.41-.11c7.64-.48 12.8-.96 18.28-6.7A51 51 0 0 0 134 403"/><path fill="#afa593" d="m865 542 2.34 1.91c19 16.04 36.48 43.84 38.84 69.05.24 6.67-1.49 12.23-3.68 18.48l-1.1 3.2c-7.82 22.29-18.34 44.02-33.4 62.36h-1l-.21-1.87c-4.24-36.67-17.56-69.72-46.72-93.72-26.08-20.49-54.49-27.26-87.07-26.41a444 444 0 0 1-.1-6.25c.1-2.9.48-5.73.86-8.6.4-3.6.48-7.2.56-10.8l.06-2.4.31-12.54L735 522l7.07-2.89 1.99-.82C784.82 501.8 832.2 515.16 865 542"/><path fill="#faf7ee" d="M725 460q.1 19.84.16 39.7.01 9.22.07 18.43.05 8.93.05 17.84l.04 6.76c.13 18.48-1.35 35.77-7 53.46l-1.06 3.34a127 127 0 0 1-10.26 23.7q-1.52 2.7-2.96 5.46A111 111 0 0 1 689 650l-2.52 2.96c-11.65 13.43-26.03 23.35-41.8 31.41l-2.02 1.05c-7.5 3.73-7.5 3.73-11.66 3.58-2.22-2-3.79-3.72-5.56-6.06l-3.14-3.9-1.63-2.03c-2.68-3.23-5.59-6.23-8.48-9.26-10.84-11.52-17.93-23.17-21.19-38.75l-.56-2.36c-1.84-11.13-.35-22.6 1.42-33.63 1.44-9.3 1.85-18.6 2.14-28.01 2.94 1.47 3.34 3.6 4.69 6.56 8.24 16.75 24.95 26.07 42 32.32A84 84 0 0 0 668 607c4.74-9.48 1-27.33-2-37-2.58-7.58-6.11-14.16-10.55-20.82C654 547 654 547 653 545l3.27-.37c21.98-2.89 39.8-12.28 55.73-27.63l2.27-2.03c1.73-1.97 1.73-1.97 1.98-5.72L716 506l-1.6-.73a70 70 0 0 1-6.92-4.34c-10.75-7.3-22.53-12.13-35.48-13.93 1.27-2.54 2.08-2.6 4.7-3.56l2.38-.9 2.6-.98a268 268 0 0 0 23-10.19l2.72-1.34a124 124 0 0 0 14.9-8.9C724 460 724 460 725 460"/><path fill="#302d28" d="M892 286c-2.05 4.94-5.94 8.34-9.59 12.15A35 35 0 0 0 877 307l2.3-.43c8.72-1.49 17.18-1.92 26.01-1.88h2.06c10.19.04 19.79.54 29.63 3.31l3.12.84c8.42 2.54 21.1 6.41 25.88 14.16l-2.96 1.9-3.85 2.48q-.97.6-1.95 1.25A581 581 0 0 0 949 334v3l3.11 1.25c8.9 3.67 16.4 7.63 23.89 13.75-1.52 4.17-4.53 6.14-8 8.63-27.3 20.36-40.02 50.99-47 83.37h-1l-.78-3.49a67 67 0 0 0-4.78-12.7l-1.06-2.23c-5.46-11.15-12.8-20.64-21.38-29.58l-2.21-2.37A87 87 0 0 0 873 380l-3.15-2c-10.95-6.62-22.57-10.57-34.85-14a85 85 0 0 1 2-7c-10.37.32-20.2.89-30.31 3.38-2.69.62-2.69.62-5.69.62.57-5.45 1.95-9.91 4-15a140 140 0 0 0-30 10c1.56-4.97 4.49-8.48 7.75-12.44l1.75-2.13c18.27-21.87 40.39-39.05 67.5-48.43l3.83-1.5a96 96 0 0 1 12.8-3.69l2.34-.53c7.08-1.48 13.8-1.7 21.03-1.28"/><path fill="#aea592" d="M805 346c-.67 5.26-2.24 10.03-4 15l3.05-.87c11.15-3.01 21.44-3.58 32.95-3.13a85 85 0 0 1-2 7l1.63.23c27.55 4.62 52.1 22.65 68.18 45.08 11.43 17.4 16.7 30.18 13.75 51.07-1.87 14.18-2.28 28.33-2.56 42.62a66 66 0 0 1-6.62-9.5c-18.27-30.95-48.72-52.85-83.05-62.66-27.57-6.98-57.55-6.35-82.7 8.1-.34.2-.34.2-2.03 1.27l-1.6.79-2-1c.44-5.82 2-8.28 6.43-12.16q1.68-1.38 3.4-2.72c3.15-2.56 4.12-3.75 4.7-7.84-.53-3.28-.53-3.28-3.03-5.22L747 411c1.84-7.5 4.2-14.43 7.44-21.44l1.3-2.83a261 261 0 0 1 10.38-19.8l1.42-2.5c4.87-8.1 11.55-11.38 20.15-14.68l1.93-.77c5.23-2.06 9.77-3.14 15.38-2.98"/><path fill="#facc28" d="m229 121 2.08.57c18.23 5.09 34.83 13.77 48.92 26.43l1.78 1.6C295.7 162.31 305.1 176.97 313 194l1.38 2.86c1.8 3.83 2.62 5.79 2.62 10.14h2c4.19 11.89 8.03 23.51 10 36l.52 3.29c2.12 16.36 1.68 34.73-2.52 50.71l-.67 2.57c-2.56 9.73-5.44 19.14-9.33 28.43-3.89 0-4.77-1.25-7.75-3.69-6.57-4.96-13.43-7.11-21.25-9.31a133 133 0 0 1 3.62-10.03c3.77-9.23 6.7-18.1 8.38-27.97l.62-2.91c3.2-16.62 2.5-34.7-1.62-51.09l-.49-1.96c-4.08-15.78-11-31.52-21.51-44.04l-2.18-2.6c-16-18.36-39.03-32.5-63.82-34.4-25.37-1.33-46.66 1.16-69 14l-3.11 1.79c-15.98 9.7-15.98 9.7-17.76 16.59 1.54 6.4 3.6 11.83 8.87 16 5.39 2.52 11.29 4 17 5.62v2l-2.34.7c-16.32 5.1-16.32 5.1-20.75 13.27-1.59 3.53-2.37 7.2-3.16 10.97l-.52 2.36L119 229h-2l-.7-3.22c-4.07-17.96-4.07-17.96-11.11-22.65L103 202v-2l-7-1-.82 2.58c-1.2 3.46-2.57 6.8-4 10.17-5.27 12.86-9.33 26.43-9.35 40.4v2.33l-.02 4.86-.03 7.37c-.03 7.75.2 14.75 2.22 22.29.13 3.06.13 3.06 0 5l-3.14.18-4.11.26-2.07.12c-3.34.2-6.45.56-9.68 1.44-8.15-41.26-1.89-82.27 21.13-117.75q1.89-2.66 3.87-5.25l2.04-2.7c19-24.19 44.17-41.25 73.96-49.3l3.59-1.02c18.16-4.3 41.5-4.1 59.41 1.02"/><path fill="#fbc41c" d="M323 526a20 20 0 0 1 7.33 5.39l1.9 2.07 2.02 2.23c11.5 12.42 23.59 23.85 37.1 34.05a264 264 0 0 1 4.74 3.74c20.05 15.94 42.76 27.8 65.91 38.52-2.11 5.99-5.94 10.2-10 15q-1 1.2-2.04 2.41C405.35 657.67 370.4 681.37 336 696c-12.68-21.65-18.67-45.1-23.25-69.56l-.5-2.63c-2.18-12.23-2.49-24.48-2.5-36.87v-2.35c.03-20.5 1.94-40.84 13.25-58.59"/><path fill="#fccc26" d="M190 172h18v19l7.31 2.06c11.15 3.38 19.57 8.58 26.69 17.94-1.48 5.23-4.82 8.17-8.62 11.81l-1.86 1.81q-2.25 2.2-4.52 4.38a33 33 0 0 1-7.56-4.87c-4.7-3.63-9.82-5.37-15.44-7.13l.04 1.67c.1 10.12-.51 20.22-1.04 30.33l2.2.66c13.64 4.3 26.15 9.61 33.8 22.25 4.33 9 4.35 20.37 1.75 29.98-3.86 10.85-9.8 19.13-19.94 24.8A68 68 0 0 1 196 333l-2 17h-17v-19l-9-1c-13.63-4.24-23.44-11.78-33-22 2.06-4.5 5.1-7.66 8.44-11.25l1.77-1.97 1.72-1.86 1.57-1.7C150 290 150 290 153 290v2l1.75.79a35 35 0 0 1 6.31 4.58c4.92 3.92 9.98 5.81 15.94 7.63l3 1c.66-11.68 1.16-23.3 1-35l-2.27-.66c-12.75-3.95-23.76-9.82-30.47-21.74-4.45-9.2-4.88-20.63-1.7-30.29 5.18-12.46 13.19-19.94 25.4-25.27 5.26-1.8 10.53-2.39 16.04-3.04z"/><path fill="#afa593" d="M711 633c23.53.1 44.48 13.78 60.71 29.65C786.67 678.33 795.77 697.9 800 719l.59 2.92c.84 6.26.6 12.54.43 18.83-.02 2 .12 4 .27 6 .03 3.95-.17 5.89-2.29 9.25-5.55 3.85-12.06 5.95-18.4 8.11q-3.19 1.11-6.3 2.37c-7.15 2.85-14.49 4.64-21.99 6.33l-2.88.67A76 76 0 0 1 730 775l.48-3.75c3.04-27.59-1.02-54.05-18.48-76.25-8.6-10.12-18.46-18.26-31-23a20 20 0 0 1 4.9-6.96l1.75-1.66 1.85-1.75c8.8-8.56 15.52-17.93 21.5-28.63"/><path fill="#aea592" d="M435 48c3.13 1.63 3.13 1.63 6 4l1.6 1.27a70 70 0 0 1 11.65 12.42l1.7 2.24c13 17.6 34.05 48.56 34.05 71.07l-1.93.84-2.5 1.1-2.5 1.09C481 143 481 143 480 144c-1.06 7.18 1.4 10.92 5.47 16.78C487 163 487 163 487 164l-3.77.33c-8.3.78-16.25 1.53-24.2 4.18C457 169 457 169 454 168q.01-1.86.05-3.72c.5-32.05-.37-70.73-23.05-96.28-2.17-1.23-2.17-1.23-4-2l1.57 3.04C441.05 93.4 448.7 119.47 448 147l-1.75-2.2a260 260 0 0 0-6.25-7.49l-2-2.32c-1.98-1.97-3.36-3.1-6-3.99-2.25.38-2.25.38-4 1-.24 7.62.16 14.59 2 22l-2.25-1c-5.26-1.4-10.34-1.16-15.75-1-.81 7.78 2.69 11.9 7.19 17.94C421 172 421 172 423 173v2l-2.94 1.21a204 204 0 0 0-40 22.34C375.18 202 375.18 202 373 202c-.45-50.74 8.48-110.56 45.38-148.75 5.07-4.97 9.61-6.23 16.62-5.25"/><path fill="#080605" d="m412.31 335.19 2.8.68c11.09 2.82 23.6 6.84 31.89 15.13-.13 3.53-.5 5.43-2.83 8.13-9.71 7.52-22.5 14.87-35.17 14.87 2.03 9.67 5.03 16.4 13.19 22.25 13.1 8.12 27.73 9.35 42.66 6.57 9.32-2.43 17.89-6.46 25.15-12.82l-7-4v-2c6.59-.55 11.6 0 17 4 7.37 7.11 7.37 7.11 9 12q.06 3.5 0 7a70 70 0 0 1-8-9l-.63 3.9c-4.63 27.17-14.39 55.97-36.37 74.1-9.7 6.2-18.75 9.83-30.33 7.54-9.87-2.94-17.3-8.8-22.67-17.54-8.71-17.11-9.16-34.41-9.06-53.12l.01-5.22L402 395l-3.33-.42c-6.43-1.02-11.35-4.86-15.54-9.76-4.07-5.84-7.82-12.49-7.13-19.82h2l1.25 2.6c4.99 9.87 10.15 16.49 20.63 20.76 2.77.84 5.25.93 8.12.64l-.53-1.67c-.54-2.68-.28-4.86-.03-7.58.04-5.1.04-5.1-1.94-7.75a241 241 0 0 0-4.2-3.7c-2.85-2.85-4.7-5.87-6.68-9.36l-1.96-3.48c-3-6.26-4.73-12.52-3.66-19.46 4.53-6.5 16.95-2.4 23.31-.81"/><path fill="#f8edd2" d="M326 327c3.58.42 7.13.84 10.67 1.49 8.8 1.58 17.39 1.82 26.3 1.77q3.63-.01 7.25.01h6.83c4.63-.04 8.54-.89 12.95-2.27 2.87-.2 2.87-.2 5.44-.12l2.62.05 1.94.07-1 4h6v1l-2.52.15-3.3.23-3.26.2C393 334 393 334 390 336c-1.3 11.68 4.08 21.87 11 31q1.93 1.8 3.94 3.5c2.3 2.13 3 3.05 3.46 6.2-.02 2.92-.02 2.92-.25 5.65-.16 2.75.2 4.99.85 7.65-7.29 1-12.96-2.1-19-6-5.5-4.84-9.17-10.28-12-17v-2h-2c2.51 11.6 6.34 19.86 16.34 26.63 3.13 1.61 6.27 2.44 9.66 3.37l.06 3.16a3253 3253 0 0 0 .36 16.9c.84 44.17.84 44.17 15.52 58.88A99 99 0 0 0 423 478l-1 3c-5.16-.53-8.94-3.08-13.25-5.75l-2.39-1.47c-8.55-5.37-16.48-11.47-24.36-17.78l-1.64-1.3a331 331 0 0 1-17.04-14.6q-3.05-2.75-6.2-5.41A194 194 0 0 1 332 408l-2.26-2.48c-2.1-3.04-2.08-4.24-1.55-7.83l.35-2.68.46-3.01c2.35-16.47 2.82-34.59-5.31-49.62-1.95-3.9-2.02-5.3-.69-9.38a100 100 0 0 1 3-6"/><path fill="#4c4843" d="M293.73 323.58c9.77 3.41 17.1 10.86 22.02 19.8 8.44 17.74 8 37.33 3.9 56.26-.56 2.9-.79 5.41-.65 8.36h4l1 2c-3.73 8.98-9.1 16.2-16 23l-1.96 2c-6.38 6.05-13.78 10.29-22.73 10.31q-2.16-.11-4.31-.31l-.69-2.37c-1.67-3.36-2.9-3.33-6.31-4.63-7.73-4.86-12.77-10.83-16.37-19.19-1.1-6.65-1.79-14.34.37-20.81l-1.65-.45c-7.13-2.12-13.34-5.26-18.41-10.8-1.79-5.23-1.83-10.55.25-15.69 2.82-3.21 5.49-4.87 9.76-5.5 10.73 0 19 2.8 28.05 8.44-4.1-6.73-8.5-10.48-16-13-4.31-.91-8.62-1.54-13-2-.32-5.26.1-8.55 3-13 4.95-4.74 8.81-7.04 15.63-7.37 12.95.38 23.71 8.2 32.37 17.37-3.23-9.11-9.27-15.78-18-20a104 104 0 0 0-9-3c.8-4.63 3.31-6.21 7-9 5.04-2.52 12.37-1.56 17.73-.42"/><path fill="#f8f8f8" d="M566.61 287.54c10.06 6.17 15.57 17.28 18.39 28.46.43 3.2.53 6.33.5 9.56l-.02 2.63a61.2 61.2 0 0 1-16.3 40.19c-10.96 10.24-22.56 13.02-37.26 12.9-12.56-.9-25.53-6.72-33.92-16.28-5.73-9.93-6.9-21.8-4.16-32.93a106 106 0 0 1 5-12.98c7.22-15.82 18.39-28.14 34.6-35.03 11.76-4.2 22.36-2.24 33.17 3.48"/><path fill="#4e4a43" d="M704 870h1l.1 1.78c.47 3.65.86 6.32 3.73 8.8 2.49 1.4 5 2.58 7.6 3.73l5.76 2.8 2.94 1.44c12.96 6.57 24.71 15.21 35.87 24.45l2.13 1.67c8.37 6.7 17.6 17.45 19.34 28.26.17 5.35-.29 9.61-3.47 14.07-2.74 2.74-5.27 4.76-9 6v-1.98A39.7 39.7 0 0 0 758 934a94 94 0 0 0-8-5l1.54 1.77c7.99 9.5 13.11 17.85 13.16 30.52-.7 2.71-.7 2.71-2.65 4.57-4.26 1.6-8.1 1.5-12.61 1.39l-2.58-.02c-3.8-.04-7.19-.2-10.86-1.23l-.26-2.5c-1.36-10.81-4.25-18.62-12.1-26.32C722 936 722 936 719 936l1.14 1.4c6.62 8.44 10.91 15.63 9.86 26.6-5.75-.54-10.33-2.16-15.56-4.56l-2.39-1.09C689.44 947.91 658.66 929.17 647 906a87 87 0 0 1-3-10l2.61-.04c20.54-.8 39.3-6.85 54.58-20.98C703 873 703 873 704 870"/><path fill="#f9edd3" d="M748 152c9.27 18.53-2.54 54.3-8.6 73-8.15 24.41-21.37 59.73-43.4 75l-.81-2.06c-4.28-10.58-9.03-21.18-15.19-30.81-2-3.13-2-3.13-2-5.13l1.9-.48c6.22-1.7 12.43-3.85 17.1-8.52.27-2.37.27-2.37 0-5-4.48-5.32-11.61-7.77-18-10a74 74 0 0 1 8-7.31 28 28 0 0 0 8-10.69c-.19-3-.19-3-1-5-10.74-3.58-23.77.25-34 4 1.46-4.5 3.99-7.68 7.06-11.19l1.5-1.73 3.02-3.46q1.88-2.14 3.72-4.3c15.72-18 35.26-32.13 56.83-42.32l1.86-.88c4.84-2.2 8.7-3.12 14.01-3.12"/><path fill="#060605" d="M429.5 242.5c6.7 4.6 10.5 11.73 12.5 19.5 1.95 20.66-3.22 39.17-15.37 56l-2.63 3h-2v2l10 1v2l2.58-.19c9.7.53 20.74 8.5 27.42 15.19l1 3a20 20 0 0 1-9.31-3.69 75 75 0 0 0-13.56-6.5l-1.9-.72a85 85 0 0 0-31.42-5.4l-3.36-.01c-5.74.04-10.95.47-16.52 1.88-5.47 1.25-11.42.85-16.33-1.91-5.75-4.7-9.01-10.46-10.6-17.65-1.32-13.5.03-24.85 6-37l1.57-3.23c7.25-13.53 18.98-25.73 33.58-31.12 9.77-2.24 19.78-1.49 28.35 3.85"/><path fill="#322e29" d="m680 670 1 2 5 1c7.75 3.65 13.87 9.13 20 15l2.13 1.9c14.35 13.29 23.09 34.8 24.01 54.1.32 10.57.55 20.71-2.14 31l4 1-22.16.08-8.11.02-2.5.01a242 242 0 0 1-9.96-.19c-6.72-.4-6.72-.4-9.2-2.78l-1-2.46-1.2-2.78-1.18-3.02-2.77-6.33-1.43-3.29a189 189 0 0 0-8.05-15.26l-1.67-2.92A311 311 0 0 0 650 714l-1.6-2.28q-5.16-7.38-10.4-14.72c1.71-3.42 5.78-4.15 9.19-5.56 28.13-12.07 28.13-12.07 32.81-21.44"/><path fill="#f9c31b" d="M323 526a20 20 0 0 1 7.33 5.39l1.9 2.07 2.02 2.23C346.24 548.64 358.89 560.4 373 571l2.4 1.8 1.6 1.2c-.6 3.36-1.85 5.38-4 8l1.83.79c3.8 2.12 5.58 5.22 7.17 9.21.98 6.77.75 14.09-3 20-3.6 4.07-6.57 6.19-12 7q1.35 4.69 2.75 9.38l.77 2.69.78 2.58.7 2.38c1 1.97 1 1.97 5 3.97l-1 10c-5.47-.59-5.47-.59-8-1l-1.9-.01c-2.55-.23-3.96-.57-6.1-1.99-2.21-4.29-3.34-8.85-4.56-13.5-3.38-12.76-3.38-12.76-6.28-14.79-1.94-.55-1.94-.55-5.16-.71l-.18 1.8c-.44 4.11-.9 8.16-1.82 12.2l5 1-2 10c-8.32-.58-16.01-2.74-24-5l-2 5-3-1-2.44-12.25-.7-3.45c-2.57-13.12-3.1-26.04-3.11-39.36v-2.35c.03-20.5 1.94-40.84 13.25-58.59"/><path fill="#312e28" d="M441.75 222.28c8.02 6.13 13.19 14.82 15.25 24.72 1.64 27.78-4.16 53.47-21.93 75.48C434 324 434 324 434 326h-2v-2l-10-1v-2h2l.82-1.75a54 54 0 0 1 4-6.31A84 84 0 0 0 437 297l1.2-2.82c4.41-11.87 5.31-27.33.55-39.24-2.54-5.22-5.69-9.64-10.69-12.69l-1.96-1.23c-7.33-3.55-17.66-3.15-25.4-1.18-17.91 6.91-28.17 21.91-36.31 38.43-3.06 7.27-3.84 13.72-3.89 21.54l-.02 2.64c.15 7.33 1.32 14.95 6.52 20.49l1.5 1.65c3.07 2.88 5.65 3.8 9.69 4.54l2.73.5 2.08.37v1q-7.25.12-14.5.16l-4.91.07c-11.28.17-21.57-.75-32.59-3.23l-5-1 .58-1.61c6.3-17.72 12.87-37.3 10.94-56.36-1.12-13.42-1.12-13.42 1.66-17.96 3.32-3.64 7.36-6.18 11.56-8.7a111 111 0 0 0 6.74-4.48c23.85-16.7 56.38-33.85 84.27-15.6"/><path fill="#4e4a44" d="m376 853 4.98 8.58c2.76 4.8 5.29 9.2 5.46 14.86l.12 2.18c-1.18 5.04-4.62 7.8-8.82 10.4a134 134 0 0 1-3.87 1.8l-2.21 1C343.82 904 311.49 912.92 281 914l-2.48.1q-3.6.15-7.2.21l-2.17.06c-1.97 0-1.97 0-5.15-.37-2.47-3.7-2.26-5.27-1.66-9.53 1.92-7.19 6.85-12.13 12.73-16.38A18 18 0 0 1 281 886v-2c-9.03 2.67-16.08 6.27-21.44 14.25-2.37 4.57-2.38 9.7-2.56 14.75-5.64-.93-9.81-1.81-14-6-1.76-3.52-1.53-7.16-1-11 1.24-3.03 2.95-5.45 5-8l1.4-1.77c10.85-12.18 29.18-18.07 44.54-21.6l3.26-.83c7.86-1.83 14.8-1.84 22.8-.8l-2-4 2.69.48c16.79 2.37 34.42 1.81 50.01-5.12C373 853 373 853 376 853"/><path fill="#4c4842" d="M90 305c2.14 3.2 2.23 4.02 2.13 7.69l-.06 2.45L92 317l-1.9.3c-9.64 1.68-18.5 5.27-24.39 13.5-1.75 2.94-3.17 5.8-3.71 9.2l2.06-2.12c7.82-7.73 15.2-14.06 26.69-14.44 5.4.21 8.28.9 12.25 4.56l1.81 1.56c2.82 3.4 2.34 7.25 2.19 11.44l-1 3-2.05.23c-9.9 1.4-17.4 5.2-23.8 12.96A34 34 0 0 0 77 364l2.6-2.08 3.46-2.73 1.7-1.37c6.46-5.05 12.3-7.5 20.64-7.22 4.42.68 5.88 1.8 8.6 5.4.9 4.2.69 7.58-1.2 11.46-2.13 3-4.53 5.23-7.3 7.67-6.1 5.4-6.1 5.4-8.5 7.87l1.87-.5c6.83-1.33 6.83-1.33 10.27.86a178 178 0 0 1 4.23 4.17c3.23 3.04 6.73 5.37 10.44 7.78l5.6 3.63A91 91 0 0 1 135 403c-3 6.24-6.15 11.12-12 15-3.42 1.14-6.09 1.1-9.69 1.06l-3.57-.02L107 419l-4-7h12c-18.55-9-18.55-9-24.94-11.12-15.49-5.4-26.92-15.97-34.4-30.4A89 89 0 0 1 50 355l-.68-2.44c-3.08-12.8-2.57-26.84 4.24-38.31 4.32-5.96 10.43-10.66 17.56-12.69 7.62-1.1 12.43-1.08 18.88 3.44"/><path fill="#906203" d="m187.84 165.76 2.23.01h2.47l2.59.04h2.51c14.28.1 14.28.1 17.36 3.19.14 1.88.14 1.88-.02 4.13l-.16 2.44-.2 2.56-.17 2.57-.45 6.3 3.69.56c11.55 2.59 22.08 9.78 29.31 19.06 2.06 3.48 2.58 4.5 2 8.38-2.77 3.83-6.26 7-9.62 10.31l-2.74 2.82-2.68 2.67-2.44 2.44c-3.1 2.17-4.81 2.22-8.52 1.76-2.16-1.43-2.16-1.43-4.06-3.31-2.97-2.9-5.23-4.46-8.94-6.69v20l5.88 2.13c14.06 5.45 23.44 12.35 30 26.14 4.78 11.6 2.59 26.38-2.1 37.67-6.5 13-16.63 19.8-29.78 25.06a40 40 0 0 1-13 2l.04 1.72c.05 4.86-.06 9.5-1.04 14.28-3.15 3.15-6.62 2.3-10.92 2.32h-3.52q-1.73 0-3.5.04h-3.37l-3.09.01c-2.6-.37-2.6-.37-4.44-1.77-1.5-2.07-1.5-3.25-1.41-5.79l.08-2.38q.39-5.23 1.17-10.43l-1.7-.2c-15.85-2.41-28.2-12.15-38.9-23.53-1.96-3.18-2.15-4.58-1.4-8.27 2.1-2.98 4.6-5.5 7.19-8.06q1-1.05 2.04-2.1 1.97-2.04 3.97-4.02a86 86 0 0 0 3.23-3.43c1.99-2.21 3.2-3.31 6.15-3.93 3.09.69 4.05 1.79 6.1 4.17 4.86 5.2 10.54 9.11 17.32 11.37l-.04-2.75c-.05-6.85.1-13.46 1.04-20.25l-1.77-.41c-11.8-3.1-23.23-9.46-29.76-20.07-6.05-11.58-7.43-23.6-3.9-36.27 4.55-12.98 12.35-22.3 24.56-28.62 6.5-3.04 11.63-4.73 18.87-4.63l-.07-3.65-.06-4.72-.05-2.41c-.01-2.07.08-4.15.18-6.22 2-2 2-2 3.84-2.24M190 172l-2 18-7.31 1.13A49 49 0 0 0 161 199l-2.75 1.75c-8.22 8.22-13.36 18.06-13.69 29.75.37 9.97 2.65 18.95 9.44 26.5a60 60 0 0 0 27 14c.16 11.7-.34 23.32-1 35-9.03-2.5-17.04-5.86-23.65-12.71C155 292 155 292 153 292v-2c-3.53.57-5.07 1.75-7.45 4.38l-1.88 2.04-1.92 2.14-1.97 2.16L135 306c5.72 12.04 18.22 17.98 29.85 23.02C168 330 168 330 177 331v19h17l2-17 5.81-.75c12.94-2.02 24.14-6.69 32.62-16.98 7.44-10.77 8.54-22.46 7.57-35.27a30 30 0 0 0-4-9l-1.25-2.07c-7.56-11.28-21-16.74-33.75-19.93l1-32c12.22 4.44 12.22 4.44 17.25 8.63A30 30 0 0 0 227 229q3.48-3.37 6.94-6.75l2-1.92 1.9-1.88 1.76-1.71A9.7 9.7 0 0 0 242 211c-5.4-9.77-16.5-14.85-26.69-17.94L208 191v-19z"/><path fill="#f8ecd2" d="M425 67c15.48 14.05 21.13 44.8 23 65 .2 5 .12 10 0 15l-1.75-2.2a260 260 0 0 0-6.25-7.49l-2-2.32c-1.98-1.97-3.36-3.1-6-3.99-2.25.38-2.25.38-4 1-.24 7.62.16 14.59 2 22l-2.25-1c-5.26-1.4-10.34-1.16-15.75-1-.81 7.78 2.69 11.9 7.19 17.94C421 172 421 172 423 173v2l-2.94 1.21a206 206 0 0 0-23.92 11.86A43 43 0 0 1 388 192a216.6 216.6 0 0 1 19-97l.9-2.03c4.3-9.46 9.49-18.76 17.1-25.97"/><path fill="#fbcd29" d="m122 358 2.05 1.32 5.9 3.75q2.74 1.72 5.44 3.52c21.6 13.87 48.3 16.7 73.07 11.34 4.48-1.18 8.84-2.56 13.18-4.16C224 373 224 373 227 373l.08 2.34c.46 8.48 1.58 14.32 7.67 20.41A74 74 0 0 0 246 402c-2.64 2.64-5.6 3.38-9.06 4.5l-2.06.67c-19.94 6.4-41.59 6.85-61.88 1.83l-2-.46c-20.43-4.72-42.48-16.2-57-31.54l1.81-2.12c4.22-5.55 5.6-10.07 6.19-16.88"/><path fill="#343128" d="M334 571c14.93.96 34.44 3.38 45 15 4.01 5.43 3.6 11.53 3 18-1.07 5.8-3.62 9.13-8.09 12.87-2.27 1.34-4.31 1.74-6.91 2.13q1.35 4.69 2.75 9.38l.77 2.69.78 2.58.7 2.38c1 1.97 1 1.97 5 3.97l-1 10c-5.47-.59-5.47-.59-8-1l-1.9-.01c-2.55-.23-3.96-.57-6.1-1.99-2.21-4.29-3.34-8.85-4.56-13.5-3.38-12.76-3.38-12.76-6.28-14.79-1.94-.55-1.94-.55-5.16-.71l-.18 1.8c-.44 4.11-.9 8.16-1.82 12.2l5 1-2 10c-8.03-.55-15.34-2.66-23-5-.12-7.75-.12-7.75 1-10h6l.1-1.77c.65-9.3 2.58-18.3 4.46-27.42l1-4.9q1.2-5.96 2.44-11.91l-4-1c-.12-6.62-.12-6.62 1-10"/><path fill="#f6f6f6" d="M425.04 246.62c7.2 5.06 11.1 11.86 12.96 20.38 2.05 17.6-4.17 35.35-14.81 49.25-4.68 5.7-4.68 5.7-7.14 5.95L410 322l1.17-1.36q1.63-1.88 3.24-3.78l3.71-4.3c6.7-9.14 9.09-19.32 7.88-30.56-1.28-4.47-3.25-7.27-6.56-10.5-5.48-2.39-10.89-2.5-16.65-.87-9.31 4.11-15.14 12.14-18.79 21.37-2.4 6.64-3.45 13.97-1.02 20.72 2.09 4.37 4.2 8.17 8.02 11.28-8.72 4.17-8.72 4.17-13.25 3.56-7.2-4.09-10.72-8.5-13.34-16.3-3-16.35 2-30.45 10.59-44.26a65 65 0 0 1 20-19l2.2-1.38c8.32-4.43 19.52-4.44 27.84 0"/><path fill="#f8c31c" d="M702 506q2.54 1.95 5 4c-3.6 9.36-19.38 17-27.94 20.88-15.88 6.77-32.53 7.82-48.73 1.57L627 531l-3.36-1.45A234 234 0 0 1 616 526v-8l2.6-.08 13.83-.42c7.89-.23 15.73-.55 23.57-1.5v-2l-40-1-2-5c27.62-18 60-19.65 88-2"/><path fill="#2e1611" d="M494 394c3.14 8.63-2.39 21.96-4.94 30.44l-.73 2.53-.73 2.34-.64 2.09c-.96 1.6-.96 1.6-2.88 2.42-3.19.28-5.29-1.37-8.08-2.82-13.94-2.98-26.66-1.28-38.61 6.34-10.3 7.17-15.11 15-19.39 26.66-3.3-3.7-4.83-6.8-6.12-11.56l-.95-3.38q-.48-2.02-.93-4.06l-.56-2.48c-1.84-9.41-1.67-18.73-1.56-28.27l.02-5.04q.03-6.1.1-12.21c4.8-.14 6.81.13 10.56 3.19 7.67 5.7 16.81 9.53 26.44 9.81l2.81.19c17.11.67 33.05-5.29 46.19-16.19"/><path fill="#f9c31d" d="M612 532c14.79 2.07 28.74 11.52 38.21 22.61 9.8 13.1 12.3 29.44 11.79 45.39-19.78-2-38-9.58-51.81-24.2-7.9-10.1-12.92-22.91-12.19-35.8l8-2 1.84 3.11c12.7 21.16 12.7 21.16 20.16 24.89-5.6-10.31-11.25-20.39-18-30z"/><path fill="#aea492" d="M326 327c3.59.42 7.15.85 10.7 1.48 9.22 1.6 18.29 1.95 27.61 2.14l4.6.12L380 331l-1.86.91c-13.8 7-21.54 18.28-26.53 32.52-5.93 24.83.31 50 12.17 71.91L365 439l-1 2c-11.43-10.42-22.39-20.83-32-33l-2.27-2.5c-2.09-3.02-2.07-4.23-1.54-7.81l.35-2.68.46-3.01c2.35-16.47 2.82-34.59-5.31-49.62-1.95-3.9-2.02-5.3-.69-9.38a100 100 0 0 1 3-6"/><path fill="#050505" d="M534.35 306.88c4.96 2.82 7.24 6.01 9.65 11.12l1 2c1.02 18.07 1.02 18.07-3 26l-1.25 2.51c-4.35 7.92-10 14.29-18.81 17.06-6.05 1.35-10.58.45-15.94-2.57-5.27-4.79-7.65-9.5-8.37-16.66-.21-12.62 2.62-22.8 11.37-32.34 7.05-7 15.4-10.83 25.35-7.12"/><path fill="#8f6103" d="M195.44 138.56h2.08c26.18.1 50.05 8.72 69.48 26.44l2.32 2.07c16.82 15.86 26.8 37.6 31.68 59.93l.74 3.16c5.52 28.46-.52 59.36-13.74 84.84h-6a165 165 0 0 1 5.94-15.81c12.26-29.37 10.9-64.26-.44-93.56-10.62-25.58-30.41-43.96-55.56-55-6.41-2.39-13.23-3.46-19.94-4.63l-2.86-.57A91 91 0 0 0 172 148l-3.18.8c-15.37 4.24-31.36 12.45-42.53 24C124 175 124 175 121 175c-.33-3.53-.49-5.36 1.7-8.24A127 127 0 0 1 161 144l1.95-.78c10.64-4.17 21.19-4.67 32.49-4.66"/><path fill="#e07266" d="m463.13 434.5 2.56-.06c5.71.06 10.68 1 15.31 4.56 1 3 1 3 .14 5.24-7.77 14.1-16.94 26.34-31.95 33.01-9.1 2.14-16.16.48-24.19-3.87-2.58-3.07-2.71-4.95-2.49-8.88 1.8-9.25 7.76-16.64 15.18-22.12A190 190 0 0 1 443 439l2.17-1.33c5.79-2.9 11.6-3.08 17.95-3.17"/><path fill="#0a0a09" d="M571.62 283.22c9.7 7.25 15.7 18.07 18.38 29.78 1.75 18.04-.72 37.08-12.14 51.75-2.2 2.52-4.48 4.9-6.86 7.25l-1.78 1.78c-9.91 9.19-21.41 11.62-34.54 11.4-7.68-.38-14.17-2.15-21.22-5.18a71 71 0 0 0-7.4-2.44c-3.83-1.26-3.83-1.26-5.69-3.69L499 371a269 269 0 0 0-3.5-4.25c-7-9.04-7.59-18.65-6.5-29.75 2.93-17.96 12.83-37.35 27-49 17.54-12.58 36.4-17.07 55.62-4.78M509 302c-5.47 7.42-9.48 15.5-13 24l-1.04 2.45c-3.31 9.12-3.68 21.02-.33 30.18 5.43 11.14 14.83 16.21 26.05 20.6 11.63 3.82 25.19 2.68 36.26-2.3 15.04-8 22.21-21.2 27.06-36.93 3.16-11.16 2.22-25.73-3-36-5.7-9.97-13.04-17.25-24-21-2.87-.75-2.87-.75-6-1l-2.36-.23c-15.7-.86-29.81 8.6-39.64 20.23"/><path fill="#0c0c0b" d="M429.5 242.5c6.7 4.6 10.5 11.73 12.5 19.5 1.95 20.66-3.22 39.17-15.37 56l-2.63 3h-2v2l10 1v2l2.58-.19c9.7.53 20.74 8.5 27.42 15.19l1 3a20 20 0 0 1-9.31-3.69c-6.81-4.22-14.13-6.78-21.69-9.31l-2.96-1c-9.72-2.87-19.97-2.74-30.04-3v-1l9-1v-1l3.94.25c3.5-.4 4.84-1.04 7.42-3.5C431.14 305.48 439.3 286.6 437 267c-1.8-7.98-5.08-14.59-11.9-19.31-6.63-3.55-13.77-3.84-21.1-2.69-14.59 4.7-25.16 15.4-32.06 28.87-4.21 8.68-7.33 16.75-7.25 26.5l.01 2.27c.19 8.7 1.98 15.19 8.3 21.36 2.75 2.06 2.75 2.06 6 3a40 40 0 0 0 6.85-2.14A40 40 0 0 1 392 323l2 5c-7.12 2.02-13.73 2.84-21 1-6.58-3.7-10.49-9.68-12.52-16.84-3-13.56-.5-26.94 5.52-39.16l1.57-3.23c7.25-13.53 18.98-25.73 33.58-31.12 9.77-2.24 19.78-1.49 28.35 3.85"/><path fill="#f6c11a" d="M508.13 504.83h2.86l5.98-.02q4.5 0 8.98-.03c43.82-.13 43.82-.13 61.05 9.22 4.7 5.27 4.26 10.7 4.23 17.46-.29 4.44-1.31 7.55-3.23 11.54l-1.81-2c-17.14-16.99-41.8-21.77-64.57-26.69l-15.1-3.32q-8.78-1.93-17.52-3.99v-1a153 153 0 0 1 19.13-1.17"/><path fill="#fdfbf5" d="M117 163h2l.73 3c4.49 17.87 4.49 17.87 10.2 22.25 5.39 2.64 11.32 4.12 17.07 5.75v2l-2.34.7c-16.32 5.1-16.32 5.1-20.75 13.27-1.59 3.53-2.37 7.2-3.16 10.97l-.52 2.36L119 229h-2l-.7-3.22c-4.07-17.96-4.07-17.96-11.11-22.65L103 202v-2l-1.76-.15c-4.68-.45-8.81-1.15-13.24-2.85v-2l3.32-1.02 4.37-1.35 2.18-.68q2.11-.65 4.23-1.34 2.38-.75 4.8-1.46c2.91-1.6 3.16-3 4.1-6.15l1.25-3.6 1.31-3.9.67-1.97A70 70 0 0 0 117 163"/><path fill="#d18b03" d="M317 207h2c4.19 11.89 8.03 23.51 10 36l.52 3.29c2.12 16.36 1.68 34.73-2.52 50.71l-.67 2.57c-2.56 9.73-5.44 19.14-9.33 28.43-3.6 0-4.41-.82-7.19-3l-2.17-1.69L306 322l.78-2.1 4.76-12.96A171 171 0 0 0 318 285l.84-3.6c2.12-9.99 2.63-19.63 2.55-29.82q-.01-3.87.02-7.74A140 140 0 0 0 318 213q-.52-3-1-6"/><path fill="#f4f1ea" d="m247 412 .45 2.5c2.35 11.73 6.61 20.48 16.55 27.5l3.63 1.63c5.52 2.81 7.23 9.94 9.37 15.37a82 82 0 0 1-13.12-5.44l-2.08-1.05c-14.89-7.6-29.2-15.71-42.94-25.24q-2.66-1.79-5.37-3.5L211 422v-2l3.38-.48a158 158 0 0 0 27.56-6.53C245 412 245 412 247 412"/><path fill="#d28f03" d="M134 391c2.82.91 5.62 1.85 8.4 2.92 26.52 10.12 58.12 10.95 84.44-.28 2.52-.75 3.73-.58 6.16.36l2.25 1.81c3.35 2.67 6.89 4.39 10.75 6.19-2.64 2.64-5.6 3.38-9.06 4.5l-2.06.67c-19.94 6.4-41.59 6.85-61.88 1.83l-2-.46A113 113 0 0 1 135 393z"/><path fill="#906203" d="M114 334h1l-.06 3.94c.87 7.66 6.96 11.52 12.58 16.12 21.9 16.79 46.79 22.68 74.19 19.64a84 84 0 0 0 25.88-8.53C230 364 230 364 232 364l-4 10-2.97.34c-5.04.72-9.79 2.31-14.63 3.84-21.89 6.72-46.92 3.51-67.4-6.18a182 182 0 0 1-13-8l-2.45-1.57c-4.33-2.94-6.64-5.6-8.57-10.5-.98-1.93-.98-1.93-3.07-3.78-2.56-2.89-2.32-4.6-2.16-8.4l.1-3.27z"/><path fill="#060605" d="M573.66 218.96c3.96 1.76 7.1 4.18 10.34 7.04l1.88 1.6c5.09 4.65 9.45 10.6 10.42 17.6.01 1.92.01 1.92-.3 4.8h-3l-3.3-4.15c-7.09-7.72-18.19-14.41-28.9-14.96l-2.35.01-2.56.01-2.64.03-2.7.01-6.55.05c-.4-5.48-.4-5.48 1.4-7.83l1.85-1.42 1.83-1.45c7.57-5.11 16.16-4.19 24.58-1.34"/><path fill="#916304" d="M96 199c2.44.38 2.44.38 5 1l1 2c-1 2.33-2.05 4.55-3.19 6.81-8.05 16.68-11.34 33.77-11.15 52.15q.03 3.55.02 7.1c.01 7.1.11 13.97 1.9 20.89.49 2.39.49 4.62.42 7.05-2.88-.62-2.88-.62-6-2-4.3-9.29-3.56-21.5-3.5-31.56v-2.4c.06-12.9 1.28-24.76 5.5-37.04l.76-2.28A139 139 0 0 1 96 199"/><path fill="#090807" d="m444.19 186.56 2.05-.03c4.63.08 7.83 1.05 11.76 3.47 3.11 3.45 4.9 5.65 5.25 10.31-.26 3.86-1.01 5.61-3.25 8.69-3.42-1.14-4.37-2.56-6.43-5.43-4.28-4.28-8.83-4.94-14.6-4.93l-2.53.05-2.54-.01c-4.46.04-7.8.4-11.9 2.32h-3c.88-5.1 3.94-7.12 8-10 5.46-3.65 10.7-4.37 17.19-4.44"/><path fill="#8f6104" d="M199 276c6.33 2.11 11.43 4.18 15 10 .87 5.17.62 9.7-1.62 14.44-4.99 5.37-7.94 6.5-15.38 7.56z"/><path fill="#936403" d="M317 207h2c5.79 12.79 6.84 24.24 6.56 38.19q-.08 4.8-.1 9.61l-.05 6.22-.03 2.85c-.23 10.75-2.7 20.91-5.39 31.27q-.88 3.43-1.67 6.87c-1.82 7.71-5.37 14.18-9.32 20.99l-3-1 .78-2.1 4.76-12.96A171 171 0 0 0 318 285l.84-3.6c2.12-9.99 2.63-19.63 2.55-29.82q-.01-3.87.02-7.74A140 140 0 0 0 318 213q-.52-3-1-6"/><path fill="#916203" d="M134 391c2.82.91 5.62 1.85 8.4 2.92 26.52 10.12 58.12 10.95 84.44-.28 2.47-.73 3.76-.49 6.16.36v3c-22.63 7.32-42.56 10.52-66.31 8.13l-2.37-.24c-7.9-.9-14.18-3.68-21.13-7.39l-2.35-1.22-2.23-1.19-2.03-1.07C135 393 135 393 134 391"/><path fill="#f6c31b" d="M351 587c10.86 1.8 10.86 1.8 15 5 1.75 3.5 1.55 7.18 1 11-1.81 3.06-1.81 3.06-5 5-5.4.75-10.22.8-15-2l1.44-8.37.4-2.41c1.05-6 1.05-6 2.16-8.22"/><path fill="#8f6204" d="m187 216-.44 12.38-.12 3.56-.12 3.4-.11 3.14C186 241 186 241 185 243c-4.85-.42-6.84-2.42-10-6-2.84-4.25-2.9-8-2-13 3.61-6.17 6.93-8.15 14-8"/><path fill="#f0bc1b" d="M605 507c3.93 4.15 5.36 7.02 5.29 12.77-.62 4.82-2.89 8.83-6.29 12.23-2 1-2 1-6 1l-.08-2.46A59 59 0 0 0 593 509c8.5-2.66 8.5-2.66 12-2"/><path fill="#f1f1f1" d="M534 315c2.07 1.59 2.89 2.48 3.43 5.05.01 5.47-.75 8.62-4.43 12.95-3.13 1.56-5.56 1.36-9 1-3.12-2.64-3.88-4.37-4.62-8.37.82-4.82 3.08-7.38 6.62-10.63 2.94-1.47 4.87-.77 8 0m-116-37c1.94 1.56 1.94 1.56 3 4 0 4.58-.44 7.75-3.12 11.5-2.88 2.5-2.88 2.5-6.5 3.19-3.38-.69-3.38-.69-5.32-2.75A18 18 0 0 1 405 284c3.47-5.75 6.42-7.75 13-6"/><path fill="#121110" d="M492 342h1l.08 2.05c.58 9.6 2.78 18.12 9.92 24.95a82 82 0 0 0 17 9l-3 3-6-2-2.3-.62c-6.26-1.8-6.26-1.8-8.32-4.5L499 371a357 357 0 0 0-3.5-4.12c-3.9-4.9-5.3-9.81-6.5-15.88h2z"/><path fill="#eae2cc" d="M394 327h26l-3 3c-.69 3.19-.69 3.19-1 6-13.43-1.62-13.43-1.62-17-4v-3l-5-1z"/><path fill="#0d0d0d" d="m365 313 2 3c6.4 9.57 6.4 9.57 12 11a40 40 0 0 0 6.85-2.14A40 40 0 0 1 392 323l2 5c-7.1 2.01-13.76 2.88-21 1-4.29-2.65-7.22-5.83-10-10 .35-2.28.97-3.93 2-6"/><path fill="#9a6905" d="M317 207h2c4.71 11.34 6.9 20.72 6 33h-1l-1 22h-1l-.04-2.78-.22-10.44-.09-4.47A161 161 0 0 0 318 213z"/><path fill="#f0efeb" d="M264 443c4.77 1.67 7.06 3.17 9.39 7.7l1.3 2.99 1.32 3L277 459a82 82 0 0 1-12.31-5l-3.18-1.56C259 451 259 451 258 449l5-1z"/><path fill="#ddae1b" d="M508.72 504.9h3l15.72.05L543 505v1l-32 1-1 4c-7.16-.7-14.02-2.3-21-4v-1c6.62-.85 13.05-1.13 19.72-1.1"/><path fill="#151101" d="m636 513 7.19-.06 2.04-.03c3.72-.02 7.15.2 10.77 1.09v2a81 81 0 0 1-21.12 2.13l-2.9-.03-6.98-.1-1-2 2.37-.15 3.07-.23 3.06-.2 2.5-.42z"/><path fill="#855601" d="M323 238c2 2 2 2 2.24 5.12l-.01 3.97v2.12l-.02 4.45-.02 6.8c-.04 11.1-.04 11.1-1.19 14.54h-2l-1 3q-.05-2.02-.06-4.06l-.04-2.29c.1-2.65.1-2.65.57-5.68.83-5.43.9-10.92 1.1-16.4l.12-3.38z"/><path fill="#875d03" d="M86 277a29 29 0 0 1 3.13 8.94l.5 2.52c.37 2.55.43 4.97.37 7.54l-6-2-1-11 2-1c.63-2.56.63-2.56 1-5"/><path fill="#ebeaea" d="m497 323 5 2-.62 1.55c-2.39 6.44-3.04 12.61-3.38 19.45h-1v-8h-2l-2 2a64 64 0 0 1 4-17"/><path fill="#c98601" d="M324 226c2.71 2.71 2.94 5.61 3.63 9.25l.4 1.99c2 10.22 2 10.22-1.03 14.76a100 100 0 0 0-1 6h-1z"/><path fill="#948e7d" d="M489 496c-3.35 3.06-5.6 3.36-10.08 3.3l-3.51-.04-3.66-.07-3.7-.04q-4.52-.06-9.05-.15v-1l2.96-.11c6.82-.34 12.77-.87 19.17-3.39 3-.8 5.17.18 7.87 1.5"/><path fill="#8e5f03" d="m312 306 3 1c-.4 6.32-2.71 10.65-6 16l-3-1z"/><path fill="#eabd27" d="m344 618 7 1 1 3-2.87 1.13c-3.13 1.87-3.13 1.87-4.5 5.06L344 631h2v2l-4-1 .44-4.75.24-2.67c.28-2.27.7-4.38 1.32-6.58"/><path fill="#0d0c0b" d="m464 168-1 2 3 2-5.69 1-3.2.56a47 47 0 0 1-8.11.44c1-3 1-3 3.14-4.2l2.67-1.05 2.65-1.08c2.68-.7 3.97-.6 6.54.33"/><path fill="#986801" d="M208 240h1l1 5 3 1v2l2 1c-1.2 1.55-1.2 1.55-3 3-2.26-.14-2.26-.14-4.69-.81l-2.45-.65L203 250c1.38-2.5 1.38-2.5 3-5h2z"/><path fill="#ded7bd" d="M422 479c4.85.78 9.38 2.4 14 4l-4 5-12-6 2-1z"/><path fill="#9b6802" d="M188 402v1l-7 1 15 1v1c-20.53.2-20.53.2-30-1v-1c7.41-1.84 14.38-2.24 22-2"/><path fill="#986a09" d="M96 199c2.44.38 2.44.38 5 1l1 2c-.78 1.95-.78 1.95-1.94 4.13l-1.15 2.19L98 210c-2-1-2-1-3.25-3.81-.75-3.19-.75-3.19.13-5.56z"/><path fill="#895c01" d="M201 402c-2.45 2.89-2.85 2.99-6.94 3.36q-2.31 0-4.62-.05l-2.37.01c-5.8-.05-5.8-.05-8.07-2.32 7.36-1 14.57-1.1 22-1"/><path fill="#8e6414" d="m113 176 1 2c-.9 2.31-.9 2.31-2.25 5l-1.33 2.69C109 188 109 188 106 190l-3-1c3.27-4.39 6.55-8.75 10-13"/><path fill="#050504" d="M492 336h1l-1 15h-3c-.56-10.73-.56-10.73 3-15"/><path fill="#d5d5d3" d="m730 439-2 6c-5.75-.87-5.75-.87-8-2v-2q1.93-.8 3.88-1.56l2.17-.88C728 438 728 438 730 439"/><path fill="#ececec" d="m494 337 2 1v12h-2l-1 3q-.05-3.15-.06-6.31l-.04-3.55c.1-3.14.1-3.14 1.1-6.14"/><path fill="#141210" d="m374 773 11 5-1 4c-3.96-1.67-6.84-4.13-10-7z"/><path fill="#e7b616" d="M612 532c3.37.55 5.08 1.05 8 3l-1.87.19c-2.13.81-2.13.81-3.38 3.37L614 541l-4-5z"/><path fill="#9b6a04" d="m315 297 4 2-3 11c-3-4-3-4-2.86-6.36l.67-2.39.65-2.42z"/><path fill="#d5d5d1" d="M51 245h2v24h-1l-1-16h-1q-.06-3.5 0-7z"/><path fill="#241c01" d="m636 513 7.19-.06 2.04-.03c3.72-.02 7.15.2 10.77 1.09v2c-13.63-.96-13.63-.96-20-2z"/><path fill="#1b1a17" d="M408 374h1c2.28 9.02 2.28 9.02 1.13 13.13L409 389c-1.88-3.18-2.25-5.51-2.19-9.19l.02-2.67C407 375 407 375 408 374"/><path fill="#100f0d" d="M454 336c3.82 1.56 6.2 4.04 9 7-3 1-3 1-4.82.22L453 340z"/><path fill="#22211c" d="M376 365h2l4 9-4 2c-1.42-3.82-2.24-6.91-2-11"/><path fill="#dfddd9" d="M514 133h1l2 13c-5-2-5-2-5.94-4l-.06-2 2-2c.63-2.62.63-2.62 1-5"/><path fill="#1d1d19" d="M408 324h9l-1 3h-17v-1l9-1z"/><path fill="#d4ad18" d="M660 586c2 2 2 2 2.2 4.82l-.08 3.3-.05 3.33L662 600l-4-1 1-2q.34-2.81.56-5.62l.26-3.04z"/><path fill="#ad7202" d="M325 242h1l1 5 2-4c.25 5.63.25 5.63-2 9a100 100 0 0 0-1 6h-1z"/><path fill="#a09787" d="M280 445h7l-2 3a98 98 0 0 0 0 7c-2.64-3.13-3.84-6.09-5-10"/><path fill="#181714" d="M507 397c2.43 3.64 2.16 5.71 2 10l-5-5c1.88-3.87 1.88-3.87 3-5"/><path fill="#242423" d="M391 323c1.5 1.38 1.5 1.38 3 3v2l-7 1-1-4z"/><path fill="#f2c013" d="M236 349h2q-.17 2.97-.37 5.94l-.22 3.34L237 361l-2 1c-1.43-8.43-1.43-8.43 1-13"/><path fill="#df9501" d="M328 249h1q.12 2.38.19 4.75l.1 2.67c-.34 3.03-1.3 4.34-3.29 6.58q-.08-2.66-.12-5.31l-.08-3c.2-2.69.2-2.69 2.2-5.69"/><path fill="#161512" d="M503 623v2h-14v-1c5.16-1.51 8.66-2.34 14-1"/><path fill="#e1b615" d="m511 507-1 4-8-1-1-3c7.75-1.12 7.75-1.12 10 0"/><path fill="#e6dfc6" d="m428 482 8 1-4 5-4-2z"/><path fill="#161411" d="m373 826 2 1-6 7 1 2h-5c2.38-3.74 4.74-6.98 8-10"/><path fill="#c7c5c3" d="M679 483c2 3 2 3 2 5l-9-1c1-2 1-2 4.06-3.12z"/><path fill="#deddda" d="M970 329c0 3.1-.54 4.35-2 7l-5-1v-2z"/><path fill="#895d02" d="m163 401 13 1c-4.24 2.12-6.36 2.43-11 2z"/><path fill="#191818" d="M492 342h1l1 13-4 1-1-5h2z"/><path fill="#c2c1c2" d="M494 332c2 1.38 2 1.38 4 4a57 57 0 0 1 0 10h-1v-8h-2l-2 2z"/><path fill="#e5dec4" d="m685 232 2 2-3 5-5-1z"/><path fill="#262622" d="M738 149h8v3c-2.31.69-2.31.69-5 1-1.81-1.37-1.81-1.37-3-3z"/><path fill="#e4be2b" d="m101 160 1 3-7 7-2-1z"/><path fill="#d5cfbc" d="M447 132h1v15l-3-3c.25-1.69.25-1.69 1-4 .4-2.66.69-5.33 1-8"/><path fill="#dcdbd6" d="M273 452c1.9 2.39 3.02 4.07 4 7-2.94-.81-2.94-.81-6-2l-1-3z"/><path fill="#e09c03" d="m181 406-1 3h-7l-1-2c2.96-1.48 5.74-1.06 9-1"/><path fill="#1f1f19" d="M483 384h9l-3 4-6-2z"/><path fill="#201f1a" d="m456 169-2 5h-5c1-3 1-3 2.94-4.19C454 169 454 169 456 169"/><path fill="#a39b8b" d="M688 663c0 4.32-2.13 5.93-5 9h-2c1.56-3.82 4.04-6.2 7-9"/><path fill="#e8bc13" d="m588 534 2 1c-.75 5.75-.75 5.75-3 8-.81-2.91-1.22-4.46-.06-7.31z"/><path fill="#7e5403" d="m308 316 3 1-1 5h-4z"/><path fill="#d4cdbc" d="m686 187 1 3-8 7-2-1z"/><path fill="#1e1c18" d="m427 66 5 2v3l-3 1c-2-3-2-3-2-6"/><path fill="#e8e2d2" d="M678 262h5v7a141 141 0 0 1-5-5z"/><path fill="#dabb10" d="M489 506c7.5-.37 7.5-.37 10 1.5l1 1.5-3.81-.37-2.15-.22C492 508 492 508 489 506"/><path fill="#a47306" d="M208 240h1c.37 5.42.37 5.42-1.5 8.38L206 250l-3-1c1.38-2 1.38-2 3-4h2z"/><path fill="#e2bf2b" d="M92 170c1 3 1 3-.31 5.69L90 178h-2v2l-2-1z"/><path fill="#855a05" d="m123 167 2 1-3 4h3l-1 3h-3c-.12-2.87-.12-2.87 0-6z"/><path fill="#bab9b9" d="M594 565c2 1 2 1 3.13 4.06L598 572l-4 1z"/><path fill="#050505" d="m518 379 7 1c-3.23 2.15-4.28 2.2-8 2z"/><path fill="#ede4ce" d="M697 178c0 3 0 3-1.31 4.39L691 186c.35-3.26 1.02-4.02 3.56-6.25z"/><path fill="#cacac4" d="m654 607 12 1v1c-6.62 1-6.62 1-10 1z"/><path fill="#edbb1e" d="M646 552c4.4 1.46 4.88 3.98 7 8h-2v-2h-2c-3-3.46-3-3.46-3-6"/><path fill="#c98802" d="M168 405h9c-3.19 2.13-5.27 2.5-9 3z"/><path fill="#7d5201" d="M224 396h4l-1 3-6 1c1.25-2 1.25-2 3-4"/><path fill="#e5b417" d="m260 328 1 4h-6v-2c3-2 3-2 5-2"/><path fill="#161616" d="M387 326v3l-4 1-2-3c2-1 2-1 6-1"/><path fill="#e5bf2c" d="M123 141v3c-2.36 2.36-3.78 2.5-7 3 4.75-4.87 4.75-4.87 7-6"/></svg>