<svg xmlns="http://www.w3.org/2000/svg" width="1024" height="1024"><path fill="#090a07" d="M435.75 26.77c8.91 4.86 16.53 11.1 23.89 18.02 1.82 1.7 3.65 3.3 5.61 4.84 3.65 3.15 6.64 6.7 9.75 10.37l2.47 2.8C490.13 77.3 500.5 93.3 510 110l10.91-5.16q6.49-3.05 12.91-6.2c17.86-8.7 36.06-16.71 56.18-17.08l2.47-.07c3.98.02 6.08.24 9.57 2.32C604 86 604 86 604.38 89.44c-1.43 7.53-8 15.33-13.38 20.56l2.52-.08c35.6-.97 35.6-.97 45.3 7.57C641 120 641 120 641.7 123c-.97 4.21-3.2 5.79-6.69 8-10 6-10 6-14 6v2l2.5.21c4.45 1 7.75 3 11.63 5.35q2.09 1.27 4.19 2.5l1.85 1.13c1.83.81 1.83.81 5.83.81 1.93-.85 1.93-.85 3.96-2.05l2.33-1.35 2.52-1.47c11.05-6.26 22.46-11.32 34.19-16.13l2.15-.9c8.84-3.68 17.87-6.33 27.1-8.85l3.26-.9c14.77-3.9 36.07-9.1 50.55-1.74 6.31 4.52 9.88 9.97 11.94 17.39.47 2.91.57 5.74.56 8.69v2.54c-.48 17.97-5.3 36.96-11.56 53.77l-1 2.71c-9.79 26.29-22.49 49.74-39.8 71.75l-1.61 2.06-1.44 1.82C729 278 729 278 728 281c.5 2.03.5 2.03 1.37 4.36l.98 2.6 1.09 2.79 1.1 2.85c4.68 11.77 9.57 22.3 18.67 31.35 1.84 2.11 2.6 3.27 2.79 6.05-3.54 4.46-8.15 7.17-13 10l2.12.8 2.75 1.07 2.75 1.06C751 345 751 345 753 347c-.48 5.92-4.07 8.9-8 13l-2.35 2.54c-11.3 11.83-24.79 20.88-38.65 29.46l1.89.2c7.34.96 14.15 2.92 21.17 5.24l2.82.9 2.66.9 2.38.8A12 12 0 0 1 740 404c.28 6.98-3.53 11-8 16l-2.2 2.48c-8.49 9.04-18.68 16.39-30.8 19.52l1.32 1.5 3.72 4.27q1.86 2.12 3.8 4.14c4.11 4.39 4.11 4.39 4.35 7.78-2.46 4.79-6.13 6.45-11.07 8.06A34 34 0 0 1 689 469a194 194 0 0 0 12 13c4.22 4.18 8.17 8.47 12 13l2.66 3.1C730 514.87 730 514.87 730 518h2l.36-2.2c1.1-4.78 3.61-8.84 5.95-13.11l1.63-2.97A171 171 0 0 1 757 475l1.42-1.78c22.86-28.58 54.76-47.28 90.58-54.22l2.76-.58c17.16-2.22 36.14-1.1 52.24 5.58l2.52 1.02c6.75 3.02 12.11 7.24 15.48 13.98 1.07 8.6-1.06 14.5-5.06 22l-3.04 6.07-1.5 3.02a153 153 0 0 0-5.4 12.85l-.8 2.07c-5 13.73-5.74 27.78-5.64 42.24v2.66c.05 16.63 1.58 32.93 3.73 49.4 1.48 11.47 1.95 22.88 1.96 34.44v2.16c0 13.53-1.13 26.72-3.25 40.09l-.34 2.27C896.31 700.12 877.28 737.72 848 768l-1.64 1.71C835.3 781.05 822.1 789.93 808 797l-2.08 1.06c-11.68 5.85-23.66 9.4-36.37 12.35q-2.37.54-4.74 1.16c-36.82 9.22-77.3.31-110.81-15.57a4971 4971 0 0 0 19.53 47.57 1432 1432 0 0 0 14.81 34.47l.98 2.2C690 882 690 882 690 884l3.88.19c20.95 2.13 46.57 11.14 61.12 26.81 8.97 11.24 14.32 22.41 13 37-2.09 10.6-7.36 17.64-16 24a96 96 0 0 1-11 5l-2.6 1.07c-20.37 7.9-48.3 5.82-68.18-2.56-10.34-4.84-19.58-9.94-28.22-17.51l-2.1-1.7c-9.75-8.06-18.13-19.08-21.9-31.3-.23-3.92-.23-3.92-.12-7.81-.13-10.53-6.56-17.17-13.05-24.98a289 289 0 0 1-6.19-7.8q-1.99-2.56-4-5.1a751 751 0 0 1-5.27-6.68c-6.78-8.7-13.76-17.23-20.8-25.73q-3.12-3.78-6.2-7.59-5.87-7.14-11.93-14.12a394 394 0 0 1-8.88-10.69c-4.05-5-8.37-9.7-12.78-14.38q-4.2-4.44-8.22-9.05a416 416 0 0 0-10.93-12l-1.99-2.12c-6.92-7.34-13.87-14.5-21.64-20.95-.37 8.71 1.05 17.11 2.38 25.69a5331 5331 0 0 1 4.18 28.23q.89 6.16 1.81 12.33l.38 2.53q1.06 7.05 2.16 14.09l.47 3.08 1 6.39a1888 1888 0 0 1 3.59 24.26l1.88 13.2.53 3.7c.64 3.6 1.59 7 2.62 10.5.98 8.46-.61 15.25-5.81 22-20.61 21.62-62.86 27.36-91.5 28.22-20.78.4-46.67.02-62.8-15.2-5.69-6.24-7.42-11.32-7.27-19.76 1.44-12.4 9.81-24.55 19.38-32.26 13.66-9.06 26.23-12.19 42.56-12.12l3.08-.02c4.9.01 9.55.1 14.36 1.14a1585 1585 0 0 0-17.87-36.69 1143 1143 0 0 1-19.2-40.27l-2.98-6.52c-9.24-20.28-18.28-40.58-25.95-61.52l-.74-2.02c-7.46-20.4-13.7-40.71-18.26-61.98l-1.02-4.57A239 239 0 0 1 329 632l-.27-2.67c-2.42-27.32-1.91-55.39 3.27-82.33l.72-3.84c3.95-20.98 8.96-42.82 18.14-62.19 1.3-3.4 1.44-4.6.14-7.97a112 112 0 0 0-4.44-6.87l-2.75-4.03-1.42-2.07a583 583 0 0 1-5.1-7.62c-13.14-19.85-26.9-39.29-40.54-58.79l-1.76-2.5q-3.86-5.55-7.8-11.05C272.7 359.7 258.77 338.88 245 318l-1.54-2.34a1339 1339 0 0 1-17.9-27.91l-1.61-2.57c-3-4.84-5.81-9.72-8.5-14.73l-1.8-3.32a245 245 0 0 1-3.37-6.4c-3.87-7.07-3.87-7.07-7.95-8.98A89 89 0 0 0 194 250c-12.61-4.66-22.62-13.78-31.06-24-5.19-5.9-10.4-7.43-17.94-9-14.59-3.43-29.84-7.23-39-20-3.02-5-2.69-10.35-2-16 2.29-6.5 6.95-10.05 13-13 3.5-1.17 6.26-1.1 9.94-1.06l3.71.02 3.35.04h4l-2.12-1.69c-19.68-15.82-19.68-15.82-21.33-27.45-.36-6.8.4-11.55 4.6-16.99 4.64-4.7 10.15-7.95 16.85-8.18 16.12.31 27.98 12.92 39 23.31l-1.02-2.82-1.35-3.74-1.34-3.7c-3.25-9.42-6.04-20.62-1.79-30.24 3.08-5.05 7.87-9.62 13.5-11.5 7.7-.64 14.7-.9 21 4 12.22 10.63 15.63 28.62 20.13 43.46A43 43 0 0 0 227 138l.85-2.5c4.25-11.83 9.87-21.62 20.9-28.12a29.2 29.2 0 0 1 21.09-.31c5.2 3.17 8.56 7 10.16 12.93 1.87 8.75-1.57 15.16-5.66 22.62L272 147l-1.59 2.83c-4.62 8.91-5.25 16.7-5.16 26.48-.01 16.11-.01 16.11-2.25 23.69-.46 2.6-.46 2.6 0 5a69 69 0 0 0 5.31 6.5l3.33 3.75 1.71 1.9c2.45 2.75 4.8 5.58 7.15 8.41 4.76 5.67 9.74 11.1 14.79 16.51q4.06 4.4 7.98 8.94c3.52 4.04 7.13 8.01 10.73 11.99l-.55-2.02-1.58-5.84q-.83-2.99-1.74-5.93c-1.93-6.39-3-12.53-2.13-19.21l2-3c2.4-.33 2.4-.33 5.38-.25l3.22.08q7.71.4 15.4 1.17l-1.1-1.54-1.4-2.09-1.4-2.03c-1.37-2.91-1.28-5.17-1.1-8.34l3.3-1.65c14.87-7.58 27.25-17.31 39.7-28.35l1.67-1.36c1.82-2.24 1.67-3.62 1.62-6.48l-.03-3-.07-3.24-.04-3.38q-.08-7.17-.21-14.33c-.33-20.38.79-40.11 5.81-59.96l.78-3.13c5.34-20.85 13.93-48.45 32.34-61.44 6.82-3.92 14.65-4.03 21.88-.9"/><path fill="#b3a690" d="M431.43 34.96C449.26 43.88 465.16 61.3 477 77l1.46 1.93a373 373 0 0 1 17.92 25.94l1.46 2.3 1.3 2.13q.6.92 1.17 1.88c.9 2.36.63 3.5-.31 5.82-2.47 2.07-2.47 2.07-5.5 4.13-5.41 3.69-5.41 3.69-6.5 5.87q3.63-1.08 7.25-2.19l2-.6c10.62-3.25 20.56-8 30.5-12.9C572.56 89.61 572.56 89.61 593 91a29 29 0 0 1-5.44 9.5l-2.12 2.6a558 558 0 0 1-5.38 6.3l-1.5 1.75q-1.47 1.7-2.97 3.38c-2.34 2.71-4.18 4.84-4.59 8.47l3.44-.81L580 121l3.75-.8c16.07-3.25 30.58-3.42 46.25 1.8v2l-1.78.91q-4.09 2.1-8.16 4.22l-2.8 1.43C604.86 137 604.86 137 600 141v2l2.17.04c19.54.94 35 12.27 49.83 23.96l1.81 1.41A100 100 0 0 1 658 172v2h2l-2.87-5.81-1.62-3.27C654 162 654 162 652 159v-3c78.17-40.68 78.17-40.68 113.3-33.53 4.56 1.64 7.03 4.68 9.7 8.53 9.43 26.78-9.6 67.64-20.7 91.42a231 231 0 0 1-25.9 41.49C726 267 726 267 724 270h-2l-.58-1.69c-3.73-10.84-7.72-21.45-12.67-31.81l-1.25-2.62A90 90 0 0 0 700 221c1.38-3.23 2.87-4.92 5.63-7.06 5.91-4.99 11.4-11.73 14.37-18.94-.25-2.69-.25-2.69-1-5-2.71-1.36-4.85-1.11-7.88-1.1l-3.54.01-3.7.03-3.74.01-9.14.05c4.41-9.3 14.1-15.77 22-22l3.06-2.47C743.03 143 743.03 143 753 143v-2c-22.79 3.06-40.16 15.78-56.7 30.92q-2.9 2.6-5.92 5.02c-5.17 4.43-11.39 10.18-12.38 17.19V197l3.63.06 2.03.04c2.34-.1 2.34-.1 5.03-.6 4.25-.64 8.4-.6 12.68-.56l2.52.01 6.11.05c-2.84 8.8-11.49 15.1-19 20 .57 5.17 3.1 9.16 5.56 13.63 8.5 15.83 14.6 32.43 20.8 49.26 13.24 35.95 13.24 35.95 22.58 46.55L742 328c-1 3-1 3-3.75 4.56-5.48 2.19-11.44 2.7-17.25 3.44 3 7.28 11.48 10.45 18.35 13.34l1.65.66c-11.59 25.59-58.5 45.6-82.58 54.87a586 586 0 0 1-11.84 4.22q-3.37 1.2-6.7 2.5c-43.82 17.05-96.79 24.34-143.63 24.91l-3.06.06c-6.85-.06-12.03-1.67-18.19-4.56l-2.26-.98c-12.69-5.5-24.25-12.35-35.74-20.02l-2.46-1.63A370 370 0 0 1 404 387l-1.66-1.37C387.65 373.51 373.2 360.66 361 346l-1.4-1.66C347 329.33 331.8 311.08 326 292l1-3 2.52 1.31 6.56 3.38C339 295 339 295 342 295l-1.9-2.94c-23.8-37.08-23.8-37.08-23.1-56.06l3.55-.11c8-.32 15.51-.7 23.19-3.17 2.4-.76 4.78-1.26 7.26-1.72-2.55-2.69-5.29-4.6-8.38-6.62-1.88-1.6-2.66-3.13-3.62-5.38l2.82-1.62a186 186 0 0 0 33.72-25.1q3.05-2.82 6.21-5.53 3.87-3.37 7.59-6.9A273 273 0 0 1 425 151l1.95-1.31L431 147l-.44-3.69-.24-2.07c-.32-2.24-.32-2.24-.85-4.52-.6-3.52-.58-6.98-.53-10.53l.01-2.1.05-5.09c5.64 3.44 9.79 7.72 14.23 12.57 4.12 4.3 4.12 4.3 7.55 4.95C453 136 453 136 455 134c1.9-15.44-2.93-31.6-8-46l-1.12-3.18C441.86 74.36 435.7 63.25 427 56l-3-1 .93 1.7c5.9 10.87 11.5 21.43 15.07 33.3l1.07 3.47c6.25 20.97 6.25 20.97 5.93 29.53-7.5-5.58-7.5-5.58-10.62-8.19-4.11-3.13-7.17-4.81-12.38-4.81a14.7 14.7 0 0 0-2.23 8.41v2.55l.04 2.67.02 2.7c.07 5.95.38 11.78 1.17 17.67l-2.93 1.9c-10.82 7.1-20.77 14.66-30.14 23.6-3.72 3.5-3.72 3.5-5.93 3.5q-.12-9.53-.16-19.04l-.07-6.45c-.16-13.84.57-26.92 3.23-40.51l.91-4.93c4.08-21.83 11.41-50.54 28.97-65.7 4.83-3.11 9.25-3.51 14.55-1.4"/><path fill="#b4a690" d="M635 439c8.99 3.13 15.93 8.82 23 15l3.24 2.72c14.66 12.32 29.36 25.39 41.8 39.99q2.29 2.67 4.64 5.3c14.26 16.14 31.1 35.72 30.7 58.33-1.92 18.82-19.24 34.21-32.93 45.7A238 238 0 0 1 695 614l-1.96 1.44c-19.23 14.05-39.84 27.76-61.56 37.63-3.7 2.06-4.58 2.93-5.98 6.8-2.86 6.52-7.08 9.5-13.37 12.5-8.76 1.76-14.9.34-23.05-3.28-4.53-1.6-8.5-1.5-13.08-.09v3h5l2 4c-5.56 3.7-11.47 4.21-18 3-4.57-2.63-8.03-6.07-10-11-.99-5.5-.5-9.93 2.5-14.69A51 51 0 0 1 569 642h2v-2c-6.96 2.06-12.1 4.32-17.25 9.51-1.96 1.67-3.18 2.27-5.75 2.49a24 24 0 0 1-8-11c-.7-6.47 1.17-10.18 4.63-15.5 4.78-5.04 11.03-8.72 17.37-11.5h2v-2a35.6 35.6 0 0 0-17.87 4.84C544 618 544 618 541 619c-.64-6.1-.06-10.16 3.52-15.22a33.4 33.4 0 0 1 22.59-12.09c14.86-.52 26.31 4.48 38.12 13.26A80 80 0 0 0 613 610l-.64-1.7c-1.9-6.09-1.9-6.09-.45-9.35a66 66 0 0 1 4.9-5.76l3.67-4.21 1.84-2.06a120 120 0 0 0 6.24-7.92l2.14-2.88 3.67-4.98c10.05-13.62 20.44-26.37 32.63-38.14-6.26 1.55-10.73 3.94-15.66 8.09-3.01 2.46-6.16 4.67-9.34 6.91l-1.41-.97c-31.92-21.9-31.92-21.9-50.59-23.03a32 32 0 0 0 7.19 5.69l2.17 1.32 1.64.99-.75 1.83C593.43 550.59 587.5 567 585 585l-2.01-.08c-24.77-.85-24.77-.85-33.99 5.08l-2.53 1.6c-6.12 4.34-11.1 9.83-12.47 17.4-.25 5.21-.3 10.36.63 15.5.37 2.5.37 2.5-.58 4.3-2.4 5.02-1.74 11.5-.4 16.77A24.5 24.5 0 0 0 546 659c.5 2.22.5 2.22.88 5.06 1.35 8 3.77 13.62 10.27 18.69 5.8 3.93 11.01 5.09 17.85 4.25 4.91-1.05 8.2-2.17 11.75-5.81 4.04-2.72 5.42-2.23 10.13-1.5q3.06.64 6.12 1.31c3.46 8.72 6.55 17.5 9.45 26.43a719 719 0 0 0 13.58 38.18 542 542 0 0 1 7.2 19.69 892 892 0 0 0 13.46 35.64l1.33 3.39c9.8 24.9 19.82 49.67 30.83 74.06q1.15 2.6 2.18 5.24c2.41 6.02 2.41 6.02 5.2 7.76l2.52.42 2.95.6 3.3.59a387 387 0 0 1 9.52 2.24c18.47 4.7 38.37 11.86 48.92 28.82q1.33 2.45 2.56 4.94l1.03 2.02a29.5 29.5 0 0 1 .78 21.3c-2.78 6.33-6.52 9.72-12.81 12.68l-.23-3.3c-.9-10.88-2.72-20.67-10.77-28.7v-2l-1.62-.81L724 926v2h2c8.77 9.98 12.6 20.64 12.37 33.75-.55 4.87-.55 4.87-2.37 7.25-8.04 4.18-18.13 4.35-27 4l.18-2.86c.36-10.47-1.06-19.12-7.68-27.7A35 35 0 0 0 694 937l1.2 2.05c5.48 9.63 9.25 18.66 7.8 29.95l-2 3c-15.63 2.86-33.07-6.13-45.67-14.62-9.27-6.56-17.06-14-23.33-23.5l-1.13-1.7c-3.93-6.27-5.01-12.13-5-19.43-.57-7.9-4.1-12.68-8.87-18.75l-3.3-4.3q-4.48-5.81-9.04-11.58-3.4-4.35-6.72-8.75a675 675 0 0 0-13.05-16.35 688 688 0 0 1-10.45-13.14 392 392 0 0 0-13.1-15.84q-4.55-5.25-8.9-10.66c-4.1-5.06-8.46-9.83-12.88-14.6q-3.15-3.41-6.18-6.9a315 315 0 0 0-19.73-21.07C512 769 512 769 512 767h-2q-2.57-2.43-5-5-2.86-2.98-5.75-5.94l-1.44-1.51c-7.5-7.65-14.58-11.3-25.12-13.05l-6.42-1.23-3.2-.63c-18.61-3.88-36.64-11.15-53.07-20.64 14.78 15.74 34.94 23.67 55.52 28.68L475 750l3.7 25.84.4 2.82 2.5 17.43q1.71 12 3.17 24.01a283 283 0 0 0 3 18.2c1.86 9.82 3.29 19.7 4.8 29.58l2.21 14.54a299 299 0 0 0 2.8 15.47c1.15 5.78 1.4 11.07-1.45 16.36-11.5 16-42.62 21.18-60.89 24.36q-2.94.51-5.88 1.08A129 129 0 0 1 398 941c-1.6-1.6-1.2-3.28-1.25-5.5.13-9.46 3.82-15.97 9.25-23.5l2-3c-8.4 4.2-12.98 9.52-16.25 18.36-1.18 4.17-1.57 8.32-1.75 12.64-8.07.47-15.37-1.46-23-4-2.53-5.06-1.59-11.87-.13-17.14 2.67-6.83 6.31-12.36 11.13-17.86-8.13 3.17-12.46 9.22-15.87 17a44 44 0 0 0-3.13 14c-4.42-1.35-6.4-3.2-9-7-2.29-6.87-1.53-12.63 1.56-19.12 7.2-13.12 17.08-20.13 31.14-24.93 19.43-5.58 39.09-.1 57.3 7.05l-2.25-3.25-1.27-1.83C435 881 435 881 433.11 879.28c-2.5-2.71-3.76-5.31-5.3-8.67l-.9-1.93-1.9-4.17q-2.65-5.76-5.32-11.5c-.2-.4-.2-.4-1.14-2.46-3.97-8.5-8.12-16.92-12.28-25.34a1254 1254 0 0 1-25.5-55.14q-1.71-3.94-3.44-7.86C361.05 725.35 346.58 686.91 340 647l-.4-2.38a232 232 0 0 1-2.94-39.78q.03-4.35.02-8.72c.02-16.52 1.09-33.02 4-49.3l.5-2.83C345.55 520.64 352.9 497.9 362 476h2l.45 3.06C370.85 521.08 385 561.38 410 596l1.32 2.37c1.68 1.63 1.68 1.63 4.91 2.06a34 34 0 0 0 11.02-3.3l2.08-.95c22.58-10.45 43.62-23.5 63.67-38.18l2.06-1.5A390 390 0 0 0 523 534l2.3-2q7.93-6.91 15.7-14l1.52-1.38c8.9-8.1 17.47-16.5 25.98-25l1.57-1.56a281 281 0 0 0 15.08-15.97c3.68-4.16 7.59-8.09 11.5-12.03l2.93-3c21.35-21.99 21.35-21.99 35.42-20.06"/><path fill="#36322c" d="M869.3 484.86A171 171 0 0 1 889 503l1.58 1.59c2.03 3.45 1.75 6.7 1.64 10.6l-.1 7.58q-.12 6.67-.14 13.35l-.01 2.63c-.03 12.1 1.4 23.86 3.1 35.81C899.54 607.46 899.1 643 890 675l-1.02 3.91c-7.32 27.5-20.4 53.98-39.9 74.86a137 137 0 0 0-5.46 6.3c-4.33 4.95-9.44 8.9-14.62 12.93l-2.81 2.25c-33.53 26.2-76.89 34-118.53 29.14-16.3-2.45-33.09-7.67-47.66-15.39 1.56-4.8 3.3-9.5 5.1-14.22 5.16-15.9 2.4-34.77-4.68-49.62A68.4 68.4 0 0 0 637 699v-2l3.63-1.21c16.73-5.77 29.91-13.18 42.37-25.79l2.02-1.98a70.3 70.3 0 0 0 17.31-33.15c2.99-14.41 5.79-24.05 18.07-32.69 2.45-1.81 4.5-3.99 6.6-6.18l1.74-1.56c9.8-8.96 16.36-21.6 17.46-34.8.45-10.4-2.52-19.95-8.34-28.54-1.28-3.14-.76-4.83.14-8.1 1.4-3.3 2.99-6.5 4.63-9.69l1.37-2.7A154 154 0 0 1 755 492l2.04-2.9A204 204 0 0 1 775 468l2.45-2.79c21.48-18.67 73.25 5.75 91.85 19.65"/><path fill="#fbefd5" d="M469.37 202.68c6.09-.44 10.29.98 15.36 4.34 6.4 5.58 8.92 12.38 9.54 20.62.6 17.31-4.47 31.94-15.97 45.08C477 274 477 274 475 275l1.73-.06c24.12-.76 46.18 3.2 65.27 19.06 7 7.42 7 7.42 7 11l2.25-.1c22.6-.59 44.82 6.1 61.5 21.75 8.15 8.48 12.44 18.2 12.63 29.98-.67 19.44-10.65 34.21-24.5 47.43-9.68 8.46-20.13 14.82-31.7 20.38l-2.6 1.25c-11.62 5.4-22.93 7.23-35.58 8.5l-2.53.26c-10.74 1.09-21.43 1.95-32.22 2.05l-3.05.06c-6.85-.06-12.04-1.67-18.2-4.56l-2.26-.98c-12.68-5.5-24.28-12.32-35.74-20.02l-2.44-1.63q-3.54-2.38-7.06-4.8-1.06-.74-2.16-1.47c-3.83-2.7-6.11-4.9-8.34-9.1q-2.01-2.26-4.12-4.44c-15.61-17.1-26.36-39.78-26.1-63.09.75-12.22 4.51-22.3 13.47-30.78 9.05-7.54 18.98-11.07 30.69-10.88h2.3c3.77.03 7.38.25 11.1.82 3.74.38 4.26.37 7.16-1.57L454 282l-1.98-.7c-9.55-3.56-14.52-7.4-18.88-16.73-4.26-13.35-.54-27.19 5.61-39.32 5.5-9.48 13.32-18.46 24.19-21.62 2.14-.4 4.28-.66 6.43-.95"/><path fill="#b4a691" d="M194 92c13.06 8.01 16.03 23.69 20.05 37.42 5.34 18.11 5.34 18.11 11.95 22.58 3.44.5 3.44.5 6 0l1.1-3.77c8.01-26.8 8.01-26.8 20.4-33.6 4.95-1.24 8.28-1.3 12.81 1.18 3.56 2.9 4.58 4.44 5.25 9-.13 6.5-3.55 11.85-6.6 17.4q-2.23 4.21-4.33 8.48l-1.47 2.88c-2.05 4.28-2.3 7.6-2.37 12.3l-.09 4.18-.1 6.54c-.11 8.3-.58 15.97-3.06 23.98A9.5 9.5 0 0 0 254 207c1.24 1.9 1.24 1.9 2.88 3.94l1.91 2.39q5.81 7.01 11.73 13.94l4.4 5.18a576 576 0 0 0 19.19 21.44q4.1 4.4 8 8.99c1.6 1.8 3.26 3.5 4.98 5.21l1.67 1.7q1.64 1.66 3.33 3.3c2.89 2.96 4.24 4.82 4.18 9.05L316 286c.65 3.14 1.84 6.02 3 9l.9 2.54c5.85 15.54 15.62 29.69 26.1 42.46l2.23 2.81c8.48 10.58 17.78 20.28 27.33 29.88l2.42 2.43 2.27 2.27 2.05 2.03A11 11 0 0 0 386 382a14 14 0 0 1-5.31 6.63c-4.93 4.18-8.2 8.85-8.91 15.44-.36 6.94-.31 13.88 1.16 20.68.7 4.86-1.87 8.39-4.18 12.52-2.92 5.43-3.98 10.69-4.7 16.78-.67 5.25-2.26 8.57-5.06 12.95h-2c-1.27-1.95-2.42-3.9-3.56-5.94-9.44-16.25-20.6-31.52-31.4-46.88a1285 1285 0 0 1-11.6-16.8 726 726 0 0 0-13.25-18.82c-4.1-5.64-8.1-11.32-11.93-17.15-3.03-4.6-6.15-9.12-9.26-13.66A2076 2076 0 0 1 241 295l-1.42-2.21a896 896 0 0 1-19.13-31.23l-1.54-2.63-1.47-2.52a256 256 0 0 0-5.56-8.83C211 246 211 246 211 244l-2.81.25c-10.53-.06-21.15-6.65-28.7-13.53-3.2-3.26-6.3-6.6-9.4-9.96-8.33-8.73-17-10.91-28.47-13.63-19.75-4.96-19.75-4.96-26.87-11.88-2.4-4.47-2.81-8.28-1.75-13.25 2.19-2.82 3.83-4.42 7-6 12.02-1.22 23.07 1.47 34.65 4.43q3.66.88 7.35 1.57c1-2.56 1-2.56 1-6-2.23-2.84-5.13-4.85-8-7l-4.66-3.6-5.02-3.85C126.33 147 126.33 147 124 140c-.49-4.06-.9-8.16.94-11.92 3.47-4.4 6.79-5.7 12.12-6.58 18.2 2.31 32.9 21.15 44.94 33.5 2.5-1.2 4.68-2.45 7-4a52 52 0 0 0-3-11.66l-1.19-3.15-1.25-3.25-1.23-3.26c-3.06-8.06-3.06-8.06-4.44-11.29-1.27-3.4-1.3-6.74-1.33-10.33l-.1-2.09c-.04-3.94.5-6.4 2.95-9.39 4.28-4.27 8.46-6.13 14.59-4.58"/><path fill="#35322c" d="M496 184c9.44 8.77 15.76 19.5 16.3 32.6q.03 2.44.01 4.9l-.01 2.65c-.3 16.36-4.8 31.34-12.3 45.85l3.07.4A82 82 0 0 1 531 280l.19-3.56c2.2-19.3 13.58-39.29 28.37-51.63C574.33 213.84 588.89 211.1 607 213c20.13 3.63 36.86 16.57 48.75 32.81 8.87 13.82 15.95 28.53 22.95 43.35 6.62 13.99 13.72 26.89 23.67 38.85 3.65 4.45 3.65 4.45 3.57 6.87-4.31 9.76-18.15 15.1-27.33 18.76L675 355l-3.17 1.26c-13.46 4.5-32.95 4.96-46.83 1.74l-.3-2.27c-2.05-14.02-7.13-24.74-18.14-33.97A90.4 90.4 0 0 0 554.94 306c-3.84-.23-5.34-.37-8.03-3.19q-1.89-2.88-3.72-5.82c-7.26-9.9-20.86-14.5-32.19-17.99l-3.32-1.03c-11.04-2.87-22.36-2.26-33.68-1.97l1.2-1.4 4.8-5.6 1.72-2.01c7.8-9.75 11.69-22.03 11.6-34.43l-.02-2.25c-.15-7.41-1.43-13.52-6.3-19.31v-2l-1.62-.81c-2.38-1.19-2.38-1.19-5-2.81-6.68-2.73-13.5-1.95-20.16.6-13.09 6.05-20.25 16.76-25.22 30.02-3.18 10.19-4.02 21.8.44 31.69 3.6 6.19 8.15 9.82 14.92 12.1 1.86.5 3.75.87 5.64 1.21-7.46 6.05-7.46 6.05-11.64 5.64l-2.14-.33c-14.97-2.12-27.97 0-40.26 9.1C400 297 400 297 398 299c-12.92-.55-23.72-9.7-33-18l-1.92-1.63c-7.76-7.07-16.76-19.72-17.27-30.3L346 246l2.72-1.33c16.46-8.27 30.09-19.97 43.86-32.06C418.4 190.02 462.26 157.01 496 184"/><path fill="#fac824" d="M396 391a92 92 0 0 1 7.69 5.63l4.26 3.27 2.09 1.6A287 287 0 0 0 422 410c-.72 4.12-2.02 7.3-4 11-6.5-4.2-12.54-8.47-18-14 3.23 12.5 10.88 18.16 21.68 24.6 35.8 19.38 81.5 13.2 120.2 8.65q4.47-.52 8.92-1c12.48-1.46 24.69-3.84 36.95-6.54q5.26-1.14 10.53-2.23l7.4-1.54 3.44-.7c6.8-1.45 13.34-3.24 19.92-5.47 3.17-.82 5.7-1.1 8.96-.77 2.62 2.96 3.9 4.91 4.25 8.88L642 433l-2.44-1c-8.24-2.31-15.1-1.14-22.56 3a124 124 0 0 0-19.97 16.93 79 79 0 0 1-5.84 5.32c-3.35 2.87-6.3 6-9.25 9.27-7.62 8.36-15.63 16.33-23.64 24.31l-12.63 12.63-2.28 2.29A267 267 0 0 1 529 519l-4.81 4.38A351 351 0 0 1 508 537l-1.94 1.55c-67.35 53.77-67.35 53.77-88.11 53.41-17.32-8.58-28.9-48.72-34.74-65.33-2-6.02-3.7-12.12-5.33-18.25l-.53-1.97c-5.15-19.57-11.2-43.71-3.35-63.41 1.6-2.32 1.6-2.32 3-4l1.5 3.15c4.77 9.83 9.55 19.17 17.5 26.85l-.73-1.81c-4.2-10.42-8.33-20.84-11.7-31.56l-.72-2.25c-3.62-11.8-6.55-23.78-.85-35.38 3.62-5.43 7.35-9.18 14-7"/><path fill="#37332d" d="m702 636 1 2 3.33-.07c28.56-.43 52.97 10.25 73.8 29.76 9.84 10.37 17.12 22.28 22.87 35.31l1.24 2.79c9.51 23.77 9.56 51.12.82 75.09l-.73 2c-2.12 5.38-4.32 8.13-9.51 10.68-41.34 16.08-85.57 15.83-126.82-.56a170 170 0 0 1-8-4c1.56-4.8 3.3-9.5 5.1-14.22 5.16-15.9 2.4-34.77-4.68-49.62A68.4 68.4 0 0 0 637 699v-2l3.63-1.21c16.73-5.77 29.91-13.18 42.37-25.79l2.02-1.98c7.8-8.23 15.26-20.7 16.98-32.02"/><path fill="#b3a690" d="M834.2 613.63 837 616l2.55 2.13c19.48 16.73 36.8 44.27 39.27 70.33L879 691l.34 3.5c.72 10.53-1.96 17.68-7.26 26.67q-1.47 2.52-2.85 5.08c-15.75 28.4-39.85 49.64-68.23 64.75 0-3.14.8-5.17 1.98-8.04 10.75-26.22 9.22-54.86-1.23-80.96-10.42-24.44-29.5-44.54-53.81-55.31q-3.45-1.38-6.94-2.69-1.41-.59-2.9-1.18c-11.2-4.1-23.3-4.14-35.1-4.82l1-8 .48-3.82c2.08-11.38 6.98-16.7 15.87-23.82a54 54 0 0 0 8-8.06c4.02-4.98 9.16-6.29 15.36-7.09 32.78-3.01 64.8 5.54 90.5 26.41"/><path fill="#b3a58f" d="M869.3 484.86A171 171 0 0 1 889 503l1.58 1.59c2.03 3.45 1.75 6.7 1.64 10.6l-.03 2.43-.08 5.15q-.11 6.66-.13 13.31l-.02 2.63c-.02 10.32.46 20.82 2.6 30.95.52 2.76.54 5.35.5 8.15l-.02 2.96L895 583a283 283 0 0 1-8.19-10.69c-21.33-28.42-52.96-48.85-88.36-54.53-18.02-2.4-35.97-1.72-53.45 3.22q-2.5.54-5 1c2.33-19.74 21.62-40.4 35-54l2.47-2.8c21.43-18.68 73.27 5.78 91.83 19.66"/><path fill="#b4a691" d="M672 680c6 .37 10.5 1.75 15.81 4.5l2.1 1.08c18.89 10.01 30.53 26.48 38.08 46 6.7 22.76 3.84 45.45-7.09 66.19-2.56 4.35-2.56 4.35-4.9 6.23-5.84 1.04-12.1-.32-17.81-1.56l-2.45-.53A148 148 0 0 1 660 789c1.56-4.8 3.3-9.5 5.1-14.22 5.16-15.9 2.4-34.77-4.68-49.62A68.4 68.4 0 0 0 637 699v-2l3.63-1.21c23.81-8.23 23.81-8.23 31.37-15.79"/><path fill="#0a0a07" d="m436 302 .26 2.27c1.76 12.82 6.48 21.63 16.74 29.73 23.18 15.61 53.34 18.32 80.44 14 13.34-3.02 27.8-8.36 38.56-17l1-2-5-2v-3c7.07-.5 12.11.66 17.58 5.36 3.36 3.6 4.13 6.82 4.42 11.64-4.05-1.78-7.45-4.4-11-7l-.52 1.85c-6.06 21.07-17.06 40.7-31.48 57.15l-1.43 1.87c-9.1 11.72-23.33 19.71-37.57 23.13-12.56 1.17-23.22-.05-33.37-8.25-13.5-13.1-16.32-31.72-19.45-49.49a312 312 0 0 0-3.24-15.71c-1.38-3.74-3.71-5.56-6.81-7.91-6.98-5.38-12.37-12.94-14.13-21.64-.38-4.2-.65-7.79 1.38-11.56C434 302 434 302 436 302"/><path fill="#35312b" d="m868.25 426.69 3.63-.02c13 .1 27.7 2.2 38.5 10.08 2.44 2.48 2.69 3.52 3.56 7.13-.5 6.14-3.88 11.45-6.71 16.8-7.7 14.65-12.32 30.06-15.23 46.32a365 365 0 0 1-7.62-7.76c-18.83-19.71-46-35.4-73.77-36.48a367 367 0 0 0-13.55.05l-4.7.04q-5.7.06-11.36.15a124 124 0 0 1 59-33l3-.9c8.39-2.28 16.59-2.38 25.25-2.41"/><path fill="#fbefd5" d="M761 142c2.46 2.17 2.92 3.52 3.43 6.75.05 36.67-19.23 73.04-41.43 101.25l-2.13 2.83L719 255h-2l-.91-2.04-5.65-12.55a111 111 0 0 0-9.53-17.28c-.91-2.13-.91-2.13-.17-4.31a21 21 0 0 1 4.88-4.88c5.92-4.99 11.4-11.73 14.38-18.94-.25-2.69-.25-2.69-1-5-2.71-1.36-4.85-1.11-7.88-1.1l-3.54.01-3.7.03-3.74.01-9.14.05c4.41-9.3 14.1-15.77 22-22l3.06-2.47a175 175 0 0 1 23.1-15.47 308 308 0 0 0 5.43-3.21l3.41-1.97 3-1.76c3.82-1.43 6.1-1.22 10-.12"/><path fill="#f9f8f9" d="M469.37 202.68c6.09-.44 10.29.98 15.36 4.34 6.4 5.58 8.92 12.38 9.54 20.62.59 17-4.23 32.18-15.85 44.97A21 21 0 0 1 472 277l-1.79.84c-7.65 3.1-17.2 4.08-25 1.1-5.25-3.23-8.56-7.42-11.21-12.94l-1.1-2.25c-4.14-12.72.06-27.08 5.85-38.5 5.5-9.48 13.32-18.46 24.19-21.62 2.14-.4 4.28-.66 6.43-.95"/><path fill="#060601" d="M425.84 457.9c7.36.8 14.5 2.42 21.66 4.26q3.09.78 6.18 1.52c10.67 2.66 18.76 6.3 25.32 15.32 2.5 5 1.66 12.41.32 17.68-2.65 6.52-6.37 9.57-12.38 13.13-2.97 1.2-4.8 1.3-7.94 1.19l1.03 1.83q2.29 4.14 4.53 8.3l1.62 2.88c3.86 7.17 3.86 7.17 3.66 11.67L469 538q-2.73-.25-5.45-.64c-2.55-.36-2.55-.36-5.47-.53-4.04-.51-7.58-1.01-10.3-4.31-2.44-3.9-4.2-8.1-5.9-12.36q-1.28-3.11-2.74-6.15c-4.2-9.06-4.2-9.06-3.98-12.78C436 499 436 499 439 497c3.53-.1 7.02.07 10.55.22 3.75-.24 5.5-.96 8.45-3.22 1.52-3.05 1.24-5.64 1-9-2.1-2.78-4.12-3.56-7.45-4.39l-2.57-.65-2.67-.65-2.7-.68q-3.3-.83-6.61-1.63l-.63 2.84C433.4 493.03 429.72 506 426 519l-.66 2.3L424 526c-4.2 1.17-7.07.75-11.25-.37l-3.2-.84C407 524 407 524 406 523c-.22-6.86 1.86-13.36 3.85-19.83a417 417 0 0 0 5.21-18.92c6.74-26.12 6.74-26.12 10.78-26.36"/><path fill="#fbefd5" d="M423 54c2.63 2.97 4.24 6.47 6 10l.95 1.85C439 83.67 445.97 102.92 447 123c-7.5-5.58-7.5-5.58-10.62-8.19-4.11-3.13-7.17-4.81-12.38-4.81a14.7 14.7 0 0 0-2.23 8.41v2.55l.04 2.67.02 2.7c.07 5.95.38 11.78 1.17 17.67l-2.93 1.9c-6.98 4.58-13.73 9.2-20.12 14.6C398 162 398 162 395 163c-1.58-3.16-1.18-6.55-1.2-10.02l-.02-2.46q-.03-3.94-.03-7.9v-2.7c0-12.9.47-25.29 3.25-37.92l.84-4.3c3.04-14.74 7.57-30.8 17.16-42.7 3.11-1.56 4.54-1.73 8-1"/><path fill="#37332d" d="m636 697 1 2 4 2c14.23 10.85 23.79 26.13 26.72 43.82 2.04 15.98-.55 29.78-7.72 44.18q-2.65-1.18-5.25-2.44l-2.95-1.37c-3.97-3.1-5.07-6.55-6.8-11.19l-1.13-2.85q-1.94-4.95-3.8-9.9l-1.42-3.73a1615 1615 0 0 1-12.57-34.76l-2.43-6.9-.72-2.05c-1.6-4.6-2.74-9.05-3.93-13.81z"/><path fill="#f8f4ec" d="M697 622c1.82 3.64-.39 7.46-1.57 11.16-8.56 24.02-24.2 40.82-47.05 51.72-10.6 4.84-20.8 6.58-32.38 7.12l-2-4.87-1.12-2.75C612 682 612 682 612 680l2.01-.73 2.68-1.02 2.63-.98c5.25-2.49 8.09-5.55 10.81-10.61 3.86-6.26 8.28-8.97 14.75-12.22l6.19-3.32 3.06-1.6q5.88-3.13 11.62-6.52l2-1.18A321 321 0 0 0 697 622"/><path fill="#392821" d="M568 343a85 85 0 0 1-5.81 13.88l-1.07 2.13c-2.47 4.84-5.1 9.47-8.12 13.99-8.52-2.79-8.52-2.79-11.5-4.12-14.44-5.06-32.3-2.04-45.75 4.25-9.7 5.16-16.26 11.44-21.75 20.87h-2c-4.12-7.86-6.33-15.69-7.94-24.37l-1.17-6.06c-2.06-10.67-2.06-10.67-1.89-15.57l1.63.52a330 330 0 0 0 18.57 5.12C515.15 362.12 538.26 343 568 343"/><path fill="#e37a5f" d="M548 378c-1.56 9.31-11.93 17.5-19 23-12.02 8.09-22.54 11.55-37 10-6.18-1.9-10.82-5.12-15-10 3.67-10.4 11.19-17.23 20.81-22.31 16.08-7.42 34.09-8.74 50.19-.69"/><path fill="#050603" d="m478.56 284.44 2.53.03c13.95.45 29.44 4.18 40.18 13.5 1.73 2.03 1.73 2.03 1.92 5.4-2.2 6.71-7.1 9.17-13.18 12.34-19.1 9.6-19.1 9.6-25.01 8.29-8.65-5.17-15.81-16.46-18.58-26-.66-3.12-.7-5.83-.42-9 3.24-4.77 7.23-4.66 12.56-4.56"/><path fill="#f7c623" d="m695.88 400.44 2.57.06c10.91.42 21.3 2.73 31.55 6.5-1.43 4.57-3.97 7.51-7.31 10.81l-1.6 1.59c-7.63 7.3-17.67 14.27-28.09 16.6-4.56-.3-7.89-2.56-11.62-5-6.04-3.89-6.04-3.89-9.38-5v-2l4.81-1.5 2.71-.84C682 421 682 421 685 421v-2c-10.42.43-20.68 1.05-31 2.6-3 .4-3 .4-7 .4l-1-4 2.27-.91 13.99-5.65a258 258 0 0 0 17.52-7.77c5.57-2.6 9.99-3.53 16.1-3.23"/><path fill="#f8f4ec" d="M608 537c4.81 1.37 8.74 3.5 12.88 6.25l1.84 1.2q6.84 4.51 13.28 9.55c-1.37 3.96-3.15 6.64-5.87 9.81a295 295 0 0 0-11.25 14.38A180 180 0 0 1 606 594c-3.3-.66-5.84-1.9-8.75-3.56l-2.42-1.38L593 588c.07-17.18 7.14-35.86 15-51"/><path fill="#070806" d="M479 227c4.42 2.34 6.83 4.51 9 9 1.43 11.13-.4 21.18-6.87 30.44-3.3 3.98-6.28 6.99-11.52 8.04-3.79.3-6.47.4-9.55-1.98-5.78-6.68-5.62-13.05-5.23-21.53.75-8.71 5.91-15.22 12.17-20.97 4.08-2.69 7.13-3.71 12-3"/><path fill="#f6c522" d="M650 428c12.52-.98 24.11 4.3 33.53 12.3q3.92 3.48 7.72 7.1c3.16 2.99 6.42 5.8 9.75 8.6l-1 3c-7.2 2.63-14.47 3.48-22 2-3.4-2.24-6.04-4.84-8.8-7.8a44 44 0 0 0-7.5-6.25l-2.23-1.53q-2.17-1.45-4.4-2.83c-2.06-1.42-3.58-2.57-5.07-4.59a33 33 0 0 1 0-10"/><path fill="#030502" d="M608.51 265.48c5.72 4.14 10.54 8.93 12.01 16.03.25 2.17.42 4.3.48 6.49a34 34 0 0 1-7.62-4.87c-9.02-6.75-18.18-8.67-29.38-7.13a84 84 0 0 0-24.08 9.08C558 286 558 286 555 286c.12-5.81 1.8-8.8 5.78-13.01 13.2-11.83 31.57-17.01 47.73-7.51"/><path fill="#1e1d18" d="M499.31 149.13c4.4 4.7 9.06 10.27 9.06 17L508 169l-1.5-1.17c-11.75-9-22.34-13.31-37.5-11.83-7.53 1.6-14.33 4.38-21.07 8.05-1.93.95-1.93.95-3.93.95 1.13-6.2 5.74-10.28 10.6-13.97 14.36-9.52 29.64-11.58 44.71-1.9"/><path fill="#1c1b16" d="m615.25 190.69 2.28.01c11.01.24 18.54 3.44 26.38 11.19 4.8 5.17 9.3 10.78 9.34 18.11l-.25 3h-2l-2.31-2.94c-8.36-10.03-20.84-16.4-33.69-18.06-2.8-.13-5.58-.14-8.37-.12l-2.18-.02c-4.9.01-9.6.45-14.45 1.14 1.43-3.52 3.08-5.07 6.25-7.12l2.27-1.51c5.49-3.02 10.53-3.73 16.73-3.68"/><path fill="#0a0b0a" d="M484.22 199.6c5.94 4.65 9.97 10 11.78 17.4.33 3.68.29 7.31.19 11l-.04 2.93L496 238h-1l-.11-2.05c-.67-9.43-2.3-17.25-7.89-24.95v-2l-1.62-.81c-2.38-1.19-2.38-1.19-5-2.81-6.68-2.73-13.5-1.95-20.16.6-14.5 6.71-20.76 19.18-27.22 33.02h-2a39 39 0 0 1 4.38-15.75l1.06-2.09c5.96-11.15 14.11-19.89 26.45-23.75 7.08-1.37 15.02-1.59 21.33 2.2"/><path fill="#0c0b09" d="M529.38 279.48c3.81 2.73 7 5.58 9.62 9.52v2c-4.02-1.52-7.76-3.4-11.56-5.37-13.76-7-27.22-10.01-42.63-9.75l-3.17.02-7.64.1c12.66-13.3 41.9-4.92 55.38 3.48"/><path fill="#100d02" d="m444.25 538.94 2.55 1.67 2.4 1.6 2.21 1.48L453 545v2c-6.63.29-12.44-.77-18.87-2.31l-2.82-.65q-4.16-.98-8.31-2.04l-2.89-.7-2.74-.72-2.48-.63c-1.89-.95-1.89-.95-2.66-3.05L412 535q4.63-.8 9.25-1.56l2.64-.46 2.56-.42 2.35-.4c6.18-.45 10.56 3.49 15.45 6.78"/><path fill="#191403" d="M570 451v3c-13.54 13-35.2 23.51-54 24 2.13-2.34 4-3.64 6.9-4.87l2.36-1.04 2.55-1.09a489 489 0 0 0 25.59-12.2A292 292 0 0 1 570 451"/><path fill="#0a0a08" d="M227 157a69 69 0 0 1-5.44 9.19c-6.35 10.05-8.54 20.39-6.04 32.26L216 200c-1.81-.56-1.81-.56-4-2-2.6-5.01-3.52-9.26-3.44-14.94l.03-2.13c.3-9.6 4.74-15.34 11.41-21.93 3-2 3-2 7-2"/><path fill="#a99b82" d="M429 417c4.38.57 7.25 2.18 10.94 4.56l3.41 2.16 1.8 1.13c3.17 1.96 6.41 3.8 9.66 5.65l1.87 1.06L461 434v1a109 109 0 0 1-18.56-3.31l-2.42-.61A67 67 0 0 1 425 425a37 37 0 0 1 4-8"/><path fill="#13130f" d="M525 277c5.4 3.19 10.6 6.6 14 12v2c-4.02-1.52-7.76-3.4-11.56-5.37A111 111 0 0 0 508 278l2-1 1-3c5.04-1.68 9.33.86 14 3"/><path fill="#eec01d" d="M638 422c2.62 2.96 3.9 4.91 4.25 8.88L642 433l-2.31-1c-4.94-1.34-9.6-1.16-14.69-1l-1-5-3-1c12.98-3.88 12.98-3.88 17-3"/><path fill="#0f0c01" d="M418 544a221 221 0 0 1 24 5v2l-6.25 2.06-3.52 1.16c-4.5 1.09-4.5 1.09-7.23-.22-1.92-1.78-1.92-1.78-3.75-3.94l-1.86-2.15C418 546 418 546 418 544"/><path fill="#e8be24" d="m414 539 1.77.43 8.1 1.95 2.79.67q9.13 2.18 18.34 3.95c-3.03 2.59-3.67 3-7.87 2.94-6.53-.96-12.84-3.02-19.13-4.94l3 5-4-1v-7h-3z"/><path fill="#eee" d="M471.69 233.19C474 234 474 234 475 235c.45 3.95.3 5.56-2 8.88l-2 2.12c-4.87-.87-4.87-.87-6-2-.37-3.92-.55-6.18 1.69-9.5 2.31-1.5 2.31-1.5 5-1.31"/><path fill="#eee6d4" d="M444 108c2.27 3.4 2.37 5.17 2.63 9.19l.22 3.29.15 2.52-3.94-2.81-2.21-1.58C439 117 439 117 438 114q1.19-.93 2.44-1.87C443 110 443 110 444 108"/><path fill="#f6f5f1" d="M654 796a154 154 0 0 1 11 4c-1.02 3.05-1.77 3.87-4 6l-1 2h-2l-2-4.87-1.12-2.75C654 798 654 798 654 796"/><path fill="#131211" d="M492 214h3c.98 2.94 1.12 4.83 1.1 7.89l-.01 2.84-.03 2.96-.01 3L496 238h-1l-.11-1.98a92 92 0 0 0-3.37-18.68L491 215z"/><path fill="#2a2505" d="M530 473v3c-4.84 1.34-8.93 2.25-14 2 3.3-4.08 8.87-7.26 14-5"/><path fill="#dbdad6" d="M310 252h2q.8 2.15 1.56 4.31l.88 2.43C315 261 315 261 314 264q-1.5-1.35-3-2.75l-1.69-1.55C308 258 308 258 308 254h2z"/><path fill="#1f1902" d="M390 457h2a563 563 0 0 1 3.13 6.74C396 466 396 466 396 469c-3.8-1.27-4.9-2.62-7-6 .25-3.31.25-3.31 1-6"/><path fill="#1a1b1a" d="m469 229 2 1c-.98 2.2-1.78 3.8-3.56 5.44-1.9 2.05-2.07 3.84-2.44 6.56h-1l-.37-2.44L463 237l-2-1z"/><path fill="#171410" d="m409 718 12 6v3l-3 1-4.5-3.87-2.53-2.18L409 720z"/><path fill="#dfded9" d="M132 163c4.54.16 5.49 2.49 9 6l-18-2v-1l3.38-.37C130 165 130 165 132 163"/><path fill="#1f1e19" d="m749.19 140.94 3.81.06v2l-9 4v-4l-2-1a19 19 0 0 1 7.19-1.06"/><path fill="#21221c" d="m424 109 7 1c-3.03 2.61-5.17 4.04-9 5l-1 3c.5-3.73.87-5.81 3-9"/><path fill="#cbcbca" d="M487 251c1.13 1.63 1.13 1.63 2 4-1.02 4.68-3.24 8.13-6 12l-2-2 1.06-2.05 1.38-2.7 1.37-2.67c1.02-2.22 1.7-4.2 2.19-6.58"/><path fill="#211a04" d="m418 544 12 2-4 2q-2.03 1.46-4 3c-4-4.75-4-4.75-4-7"/><path fill="#e2dcc8" d="M444 111h2l1 12-5-5z"/><path fill="#e0af17" d="M638 426h3l1 7-6-2c.88-3.87.88-3.87 2-5"/><path fill="#a59987" d="m590 469 2 2q-1.61 1.73-3.25 3.44l-1.83 1.93c-2.02 1.72-3.33 2.22-5.92 2.63l2.81-3.31 1.58-1.87A88 88 0 0 1 590 469"/><path fill="#e9c018" d="M434 545q2.79.14 5.56.44l3.07.3 2.37.26c-3.68 3.02-3.68 3.02-6.56 2.81C436 548 436 548 433 546z"/><path fill="#d8b11e" d="m432.25 543.31 2.75.69-1 2 2 2q-5.52-.89-11-2c2.64-2.54 3.5-3.05 7.25-2.69"/><path fill="#1a1814" d="m668 533-6 5-4-2c5.62-4.46 5.62-4.46 10-3"/><path fill="#aa9d88" d="m725 599 2 1-3.87 4-2.18 2.25C719 608 719 608 717 608c1.58-4.27 4.5-6.27 8-9"/><path fill="#a49986" d="m710 968 1 3h8v2h-10z"/><path fill="#958a75" d="M451 431c6.63.63 6.63.63 10 4l-9-1z"/><path fill="#504d44" d="m434 302 2 1-.87 1.5c-1.54 3.42-2.28 6.85-3.13 10.5h-1c-.47-8.2-.47-8.2 1.5-11.56z"/><path fill="#e3e2e0" d="M481 266c0 3.95-1.37 5.15-4 8l-3 1-2-2 2.81-1.81A32 32 0 0 0 481 266"/><path fill="#9e927f" d="M893 572h2v11c-3-4-3-4-2.69-7.75z"/><path fill="#ddd5c1" d="m699 179 2 2-6 6-3-1z"/><path fill="#d4d3ce" d="M596 568c2 3 2 3 1.83 5l-.58 2.13-.55 2.13C596 579 596 579 594 580c1-8.57 1-8.57 2-12"/><path fill="#d5af22" d="m679 424-2 4-5-2v-2c3.01-.93 3.87-1.04 7 0"/><path fill="#deae18" d="m418 408 4 2c-.75 4.75-.75 4.75-3 7-1.48-2.96-1.06-5.74-1-9"/><path fill="#e5e4e0" d="m707 389 5 5-9-1z"/><path fill="#e9e7e4" d="m654 796 6 2-4 5z"/><path fill="#e3dcc9" d="M719 197c1 4 1 4 0 5.7l-4 4.3-2-1z"/><path fill="#28251f" d="M595 197v6h-5c1.37-3.16 1.99-4 5-6"/><path fill="#cfcdc9" d="m485 755 4 4-2 2-2 4z"/><path fill="#a89b88" d="m549 511 2 1-6 6-3-1z"/><path fill="#e0b41c" d="M431 497h3l-1 7h-3z"/><path fill="#8a8070" d="M362 476h2v6l-4 1z"/><path fill="#d56d52" d="m545 377 3 1c-.57 2.87-.86 3.86-3 6-.93-3.01-1.04-3.87 0-7"/><path fill="#f2f1ef" d="M133 163c-1.19 1.5-1.19 1.5-3 3-2.69.19-2.69.19-5 0v-2c4.63-2.12 4.63-2.12 8-1"/></svg>