<svg xmlns="http://www.w3.org/2000/svg" width="1024" height="1024"><path fill="#0b0a09" d="M460 146c7.48 5.83 11.84 13.64 16 22l1.7-.6c11-3.8 21.8-7.42 33.3-9.4l2.1-.4c41.16-7.94 78.16 2.52 116.46 17.02q5.9 2.22 11.88 4.17a605 605 0 0 1 26.51 9.64C722.02 208.93 784.7 234.68 819 284l1.45 2.07c2.61 4.1 3.38 7.14 2.55 11.93-7.91 16.24-26.27 27.45-42.75 33.34-11.04 3.68-21.58 5.82-33.25 5.66 5.55 12.3 11.64 18.93 23.15 25.87a96 96 0 0 1 7.29 5l2.06 1.5c2.09 2.27 2.54 3.53 2.5 6.63a43 43 0 0 1-4.94 5.88l-1.52 1.58c-8.22 8.46-8.22 8.46-12.54 11.54h-2v2l1.88.38C765 398 765 398 767 400c-.07 4.2-1.88 6.35-4.8 9.25l-1.58 1.5-1.63 1.6A210 210 0 0 1 743 426l-3.27 2.65C721.75 443.12 721.75 443.12 712 448l1.96-.03c14.4.46 31.7 6.69 42.04 17.03-.13 4.81-2.82 7.52-6 10.81q-.75.78-1.5 1.6C734.8 491.7 721.57 498.42 702 501l1.24 2.46c2.63 5.4 4.94 10.16 5.57 16.17.94 6.96 5.53 11.4 10.19 16.37l2.03-.47c3.49-.62 6.95-.89 10.48-1.08l2.33-.13c7.31-.35 14.61-.42 21.93-.46l3.7-.03c10.19-.08 10.19-.08 15.19-.08q5.62-.01 11.23-.08l3.4.02c7.39-.1 13.12-1.62 19.88-4.59 4.02-1.57 7.03-1.47 11.33-1.29 8.3 0 12.53-2.87 18.57-8.36 6.19-5.17 12.24-6 20.03-6.58l2.88-.25 9.08-.75 14.73-1.22c4.46-.37 8.8-.9 13.21-1.65 3.58-.2 7.16-.19 10.75-.19l2.9-.03 2.77-.01 2.52-.01C920 509 920 509 922 511c-.24 4.42-2 6.51-5 9.63A277 277 0 0 0 903 537l-1.29 1.58c-6.37 7.8-11.2 15.39-14.61 24.94-2.6 7.07-6.53 12.53-11.1 18.48l-2 3 1.2 1.32c8.43 9.47 9.78 18.91 9.07 31.24C882.41 634.4 873.75 649.2 862 661l-1.79 1.9c-4.22 4.11-9 6.76-14.21 9.41l-2.01 1.03c-6.05 2.93-12.16 5.09-18.99 4.66.71 8.94 3.53 16.25 7.26 24.32 2.43 5.39 3.86 9.4 1.87 15.24l-2.25 4.88A17.4 17.4 0 0 0 831 731a27 27 0 0 0 3.5 4.88c9.23 12.04 18.03 28.6 16.5 44.12-2 2-2 2-4.24 2.23l-2.63-.04-2.62-.02c-2.51-.17-2.51-.17-4.35-.68a29 29 0 0 0-7.26-.57l-3.08.02-3.3.03-6.97.04-10.95.09-10.58.06-3.29.04c-5.97.02-11-.5-16.73-2.2-5.16-.9-5.16-.9-8 0a60 60 0 0 0-6.92 6.84c-3.56 3.7-6.85 4.45-11.83 5.28l-2.98.51-2.27.37c0 3.81.58 6.58 1.5 10.25 4.83 22-.67 44.54-12.15 63.64-5.83 9.1-12.54 17.72-19.35 26.11l2.69.19c13.34 1.94 26.82 9.36 35.31 19.81a48 48 0 0 1 4 8l1.25 2.75a39 39 0 0 1-.25 19.06c-5.78 9.22-14.8 13.47-25.14 15.94-36.73 6.27-80.6-4.97-111.09-26.3-3.76-3.08-7.5-6.78-8-11.79-.19-7.23.7-13.67 2.23-20.72 3.1-14.6 2.8-24.98-4.91-38.23-8.69-13.23-19.41-22.86-33.09-30.71l-2.58-1.49c-26-13.93-59.4-15.78-87.42-7.51-16.2 4.92-30.08 11.94-43 23l-1.92 1.48C433 851.84 427.23 861.32 424 871c-.91 9.3 1.17 17.2 4 26 2.25 7.1 3.68 15.11 1.2 22.34-9.04 16.26-36.8 21.9-53.2 26.66l-2.11.62c-24.72 7.18-58.3 14.2-82.29 2.18-4.72-2.7-8.14-5.87-10.6-10.8-.83-12 .28-20.58 8.08-29.88 8.76-9.67 23.6-19.21 37.01-20.29q2.46 0 4.91.17l-1.21-1.36q-2.92-3.3-5.79-6.64l-2.15-2.45c-13.76-16.16-23.12-34.85-22.91-56.36l.01-2.68.05-6.51-2.03.23c-46.5 5.15-89.55-12.38-125.6-40.8C133.97 741.31 108.6 702.31 96 656l-.7-2.48c-10.49-38.1-7.45-80.34 11.06-115.36C108 535 108 535 109 532l-2.55-1.46-3.33-1.91-3.3-1.9C97 525 97 525 95 523c.43-3.98 2.48-5.83 5.54-8.3a95 95 0 0 1 54.83-17.08l3.14.01c14.86.23 29.52 3.33 43.49 8.37l3.52 1.27c18.7 7.12 35.6 16.96 50.25 30.66 2.04 1.9 4.14 3.67 6.3 5.45 22.78 19.94 34.2 50.41 45.38 77.57 9 21.68 20.63 42.21 42.55 53.05q5.92 2.23 12 4l.31-3.37c.4-3.23 1.09-6.18 2.06-9.28 5.97-19.5 10.02-39.31 13.63-59.35l.52-2.88c2.25-12.64 3.47-25.33 4.48-38.12l-1.84-.88c-9.1-4.7-17.35-12.6-25.16-19.12l-1.55-1.29a537 537 0 0 1-21.96-19.34q-2.25-2.07-4.52-4.12c-8.83-8-17.49-16.16-25.24-25.23-1.99-2.32-4.05-4.57-6.1-6.83a319 319 0 0 1-12.3-14.52l-2.85-3.54C258.55 441.8 239.17 410.79 231 375l-.75-3c-6.65-30.07 4.73-60.77 20.63-85.86 14.16-21.02 32.63-39.31 53.12-54.14l1.9-1.4a323 323 0 0 1 25.29-16.85l2.56-1.54c3.69-2.2 7.37-4.32 11.24-6.18 9.77-4.87 14.09-11 19.7-20 12.92-20.11 31.38-38.22 54.31-46.03l2.06-.74c13.72-4.2 27.1-.44 38.94 6.74"/><path fill="#ada38f" d="M433.81 145.63h2.14c5.86.14 10.12 1.3 15.05 4.37l3.13 1.75c5.46 4.28 10.51 9.62 12.87 16.25-.01 2.43-.01 2.43-1 5a45 45 0 0 1-6.81 3.94l-1.91 1c-4.61 2.24-4.61 2.24-7.51 1.46a63 63 0 0 1-5.27-4.71c-6.87-6.14-15.38-9.16-24.5-9.69v3l1.84.41c10.59 2.72 18.74 8.75 25.16 17.59 2.27 3.89 2.72 7.57 2 12-1.77 2.96-2.78 4.64-6.14 5.63L441 204l-1.4-1.8c-7.17-8.68-14.63-12.25-25.6-14.2 1 3 1 3 3.48 4.36l3.14 1.39c8.55 4.13 13.53 9.03 17.5 17.7 1.96 5.67 1.65 10.41-.8 15.86-2.28 4.06-5.15 6.6-9.32 8.69-7.35.47-7.35.47-9.65-1.2-1.67-2.23-2.26-4.24-2.98-6.93-1.29-4.79-1.29-4.79-2.37-5.87-2.3-.43-2.3-.43-5 0-2.1 2.5-2.1 2.5-4.19 5.88-10.5 16.14-24.05 24.45-42.13 29.9C358 259 358 259 356 261l-.76 2.24c-1.66 3.68-4.24 6.11-7.1 8.87l-1.75 1.74q-2.78 2.75-5.58 5.46l-7.29 7.18-1.77 1.74A187 187 0 0 0 320 301l-2.56 2.92c-11.05 12.82-21.37 26.21-30.13 40.7l-1.45 2.4c-9.28 15.78-9.28 15.78-7.86 23.98 7.95 11.1 22.83 14.93 35.65 17.54 4.04.56 7.96.58 12.03.56h2.46l13-.05L354 389a88 88 0 0 1-12.44 12.63l-1.71 1.44a98 98 0 0 1-9.1 6.8C328 412 328 412 327.06 414.82L327 417a88 88 0 0 0 15 11l-2.06 1.69C338 432 338 432 338.1 434.39c4.1 11.93 26.95 21.13 37.52 26.8l1.83.99a82 82 0 0 0 9.69 4.42c11.87 4.7 15.57 11.46 20.67 22.84 1.95 4.18 4.24 8.15 6.56 12.12l1.39 2.38C434.89 536.42 459.75 568 489 592l1.58 1.32A457 457 0 0 0 546 633l2.4 1.55c3.67 2.25 5.9 3.43 10.27 3.58 3.95-1.34 6.62-3.35 9.64-6.13l1.71-1.51 3.4-3.06q2.06-1.86 4.15-3.67c11.07-9.7 21.41-20.12 30.43-31.76l2.38-2.97c20.34-25.56 35.22-54.9 44.96-86A86 86 0 0 1 658 496a21 21 0 0 1 5.13 7.06c7.13 13.07 18.14 20.86 32.15 25.27 2.72.67 2.72.67 6.47.8 5.46 1.46 8.29 6.25 11.25 10.87v2c-2.7.74-2.7.74-6 1-2.53-1.62-2.53-1.62-4.94-3.87-5.76-5.38-11.45-5.26-19.09-5.23l-3.9.01-8.1.04-9.97.05c-1.61 4.7-3.14 9.4-4.5 14.17-4.24 14.67-9.24 29.03-16.44 42.54-3.06 5.86-4.37 9.41-3.43 16.04 1.14 9.51-3.17 16.16-7.63 24.25l-3.1 5.76q-3.1 5.74-6.26 11.44l-1.4 2.55q-1.5 2.7-3.1 5.33c-2.95 7.54-.63 15.8.86 23.48a288 288 0 0 1 2.34 13.58c.35 4.22-.66 6.67-2.88 10.07-4.74 7.27-7.11 15.5-9.84 23.68l-2.85 8.4-1.82 5.4-.86 2.52c-1.52 4.6-2.76 8.94-3.09 13.79 1.69 2.48 1.69 2.48 4 4.63a24 24 0 0 1 4 4.37c-.46 3.82-1.72 7.37-2.96 11l-3.63 10.68c-6.95 20.6-6.95 20.6-6.41 27.32 3.95 1.07 6.33.88 10.18-.44l3.03-1.01 3.23-1.11c9.3-3.11 18.6-5.94 28.13-8.27a60 60 0 0 0 15.1-6.17c7.13-3.06 16.21.55 23.32 2.63 10.86 3.01 20.7.57 31.38-2.07 9.2-2.25 18.14-4.13 27.63-4.56 6.87 17.01 6 36.15-1 53-7.2 16.94-18 32-31 45-.62 2.12-.62 2.12-1 4l3.04.7c16.08 3.79 31.94 8.18 41.96 22.3 2.67 4.5 3.43 7.85 3.44 13.06l.06 3.6c-.59 3.94-1.69 5.57-4.5 8.34l-3 1-.08-2.12c-.43-7.16-1.55-13.02-6.37-18.54C734 923 734 923 731 922l1.06 2.01 1.38 2.68 1.37 2.63c2.6 5.85 3.23 12.57 1.19 18.68-2.3.95-2.3.95-5.19 1.69l-2.85.76a40 40 0 0 1-8.96.55l-.26-2.56c-1.67-13.45-1.67-13.45-6.74-18.44-2.67-1.2-2.67-1.2-5-2l1.31 2.24c3.96 7.2 5.56 12.56 4.69 20.76-28.15 1.74-66.41-7.13-88.55-25.64-5.24-4.92-5.24-4.92-5.89-9.42a89 89 0 0 1 2.64-12.83c4.38-17.02 3.47-31.02-5.52-46.5-15.42-23.93-39.02-38.64-66.36-45.26-18.85-4.05-39.66-4.09-58.32.65l-2.16.5A119 119 0 0 0 457 825l-2.9 1.6c-16.05 9.25-31.6 22.9-37.1 41.15-2.3 8.88-.64 16.49 2 25.06 4.74 16.42 4.74 16.42 3 23.19-2.8 4.5-6.38 6.65-11.06 8.88l-2.13 1.03C384.06 937.6 353.68 947.7 326 946c-.88-9.34.84-15.2 6-23-6.18 3.16-8.67 7.54-11 14a59 59 0 0 0-1 9l-6.81.06-3.83.04C306 946 306 946 303 945c-.72-11.13.88-17.82 7-27-5.35 2.99-8.58 6.3-11 12a100 100 0 0 0-2 12c-5.75-2.19-5.75-2.19-8-5-2.18-6.55-1.32-10.94 1.56-17.06 2.82-5.24 5.8-9.22 10.44-12.94l1.95-1.58c11.46-8.4 27.9-13.13 42.05-12.42-1.22-4.6-3.56-6.48-7.09-9.36-3.36-2.88-6.1-6.22-8.91-9.64l-2.38-2.84C320 863.07 315.16 854.57 311 845l-1.38-3.06c-5.95-15.63-4.17-34.84 2.38-49.94l.98-2.33c7.7-18.08 18.43-34.39 29.33-50.67l1.19-1.79q2.96-4.44 6.05-8.8C357.52 716.88 361.2 704.4 365 691l1.62-5.54q1.5-5.17 2.95-10.38 1.4-5.04 2.92-10.03c8.6-28.59 15.15-59.44 16.7-89.29.16-2.24.16-2.24.81-5.76 2.06-1.52 2.06-1.52 4-2-1.38-4.6-3.36-6.39-7.25-9.12l-3.26-2.36-1.73-1.24c-3-2.18-5.91-4.48-8.82-6.78l-1.79-1.4a443 443 0 0 1-23.81-19.98q-3.16-2.86-6.4-5.62a178 178 0 0 1-10.86-10.48C328 509 328 509 325.73 507.36L324 506v-2h-2c-1.41-1.43-1.41-1.43-3.06-3.44a124 124 0 0 0-8.31-8.87c-4.16-4.1-7.82-8.47-11.46-13.02a147 147 0 0 0-5.98-6.86c-30.86-34.4-58.83-79.8-56.37-127.35 1.97-26.93 17-52.85 35.12-72.25 1.82-1.95 3.54-3.96 5.25-6.02 10.18-11.6 22.37-21.15 34.81-30.19l1.94-1.41a462 462 0 0 1 26.12-17.22l2.96-1.86c7.26-4.45 7.26-4.45 11.75-4.81 3.9-.85 4.3-1.64 6.52-4.83q1.7-2.7 3.33-5.43l3.69-5.78 1.86-2.9C382.55 173.1 398.8 156.13 420 148l2.83-1.1c3.7-1.05 7.17-1.28 10.98-1.28"/><path fill="#aca28e" d="M628.15 184.8c4.5 2.4 7.28 3.35 12.47 3.04 6 .4 11.84 3.23 17.44 5.35l4.42 1.64a725 725 0 0 1 61.08 25.98l1.91.92a302 302 0 0 1 72.6 49.12c5.98 5.65 14.3 14.3 16.93 22.15-.38 6.61-5.43 10.7-10 15-16.52 13.13-35.63 20.72-56.75 21.38l-3.3.14c-2.95-.52-2.95-.52-5.34-2.92C738 324 738 324 738 322l2.5-.11c17.05-.97 37.65-3.27 50.5-15.89 1.52-3.04 1.58-4.6 1-8-4.8-5.58-10.49-8.5-17.31-10.87l-2.7-1c-8.72-3.13-17.52-6-26.3-8.91-30.08-9.95-52.73-22.77-74.9-45.47-3.58-3.65-3.58-3.65-5.79-4.75l1.08 1.46a3024 3024 0 0 1 27.44 37.66A749 749 0 0 1 717 301l1.61 2.51a540 540 0 0 1 22.3 38.66l1.59 3 2.87 5.47c2.14 4.01 3.9 7.24 7.7 9.92l2.31 1.68q6 4.02 12.12 7.87c2.54 1.92 3.23 3.07 4.5 5.89q-3.45 3.3-6.94 6.56l-2.06 1.95c-4.32 4.03-8.7 7.77-13.56 11.16L748 397v3l8 2c-12.29 30.4-73.04 56.08-101 68a589 589 0 0 1-24.1 8.98q-3.6 1.26-7.17 2.58c-10.67 3.77-21.67 6.13-32.73 8.44l-2.27.48a247 247 0 0 1-50.54 4.96h-2.73A299 299 0 0 1 458 485l-2.82-.76A579 579 0 0 1 434 478l-3.14-.98C402.14 467.88 371.6 455.29 348 436v-2l12-2c-4.5-4.5-4.5-4.5-7.53-6.25l-1.96-1.15-2.01-1.16c-8.04-4.68-8.04-4.68-11.5-7.44 1.2-3.6 2.33-4.25 5.31-6.5 17.77-13.93 30.15-29.6 40.69-49.5l1.35-2.53c6.55-12.39 11.55-25.18 16.09-38.4l.76-2.22c2.68-7.84 5.12-15.7 7.15-23.73l.51-2.04A33 33 0 0 0 410 283l-1.25 2.05A163 163 0 0 1 395 304l-1.68 2.09c-13.45 16.25-32.81 25.56-51.51 34.35l-7.69 3.65q-2.82 1.33-5.65 2.64c-18.45 8.74-18.45 8.74-23.47 16.27-.44 2.5-.44 2.5 0 5 15.51 10.84 38.92 6.4 56.23 3.42q3.9-.69 7.77-1.42c-2.54 6.5-2.54 6.5-5 9-9.8 3.75-21 3.29-31.31 3.31l-3.87.02c-14.2-.1-31.85-2.17-42.82-12.33-1.45-3.94-1.12-5.7.41-9.64q1.08-2.03 2.21-4.05l1.22-2.22a213 213 0 0 1 25.7-36.27c2.15-2.46 4.16-4.98 6.15-7.57 9.2-11.56 19.93-21.96 30.31-32.44l2.35-2.39c6.88-6.89 13.35-12.27 22.46-15.8 13.04-5.4 24.93-14.3 32.19-26.62a41 41 0 0 1 4.94 5.63c2.6 3 4.32 3.14 8.14 3.64 6.26.3 10.12-1.27 14.92-5.27 4.72-4.47 6.9-9.1 7.13-15.62v-3.82c.34-6.86.34-6.86 2.64-9.88a92 92 0 0 1 4.35-3.3c2.87-2.11 3.34-3.9 3.88-7.38q.19-5.5 0-11c19.04-9.7 38.99-16.94 60-21l3.5-.68c37.36-6.08 76.76 2.3 109.65 20.48"/><path fill="#f8edd6" d="M911 516c-1.69 4.1-4.6 7.15-7.5 10.44l-3.27 3.81a383 383 0 0 1-4.61 5.3c-7.09 8-10.91 16.32-14.92 26.18-3.13 7.48-6.48 12.92-12.7 18.27l-1 1q-2.72.05-5.43-.04l-3.41-.07q-3.54-.07-7.09-.2c-10.26-.15-17.94 1.89-25.7 8.75-2.34 2.67-3.4 4.53-3.28 8.15l.28 2.78c.14 5.06.14 5.06-2.07 7.54-2.17 1.53-2.17 1.53-4.35 2.77-2.35 1.6-3.03 2.65-3.95 5.32-.23 2.66-.23 2.66-.19 5.5l.02 2.84c.17 2.66.17 2.66.83 4.82L813 631a159 159 0 0 1-5 6c-.81 1.88-.81 1.88-1 4l-.37 3.75c.09 5.01 2.08 8.54 5.37 12.25q2.16 1.5 4.38 2.88A13 13 0 0 1 820 663q.83 6.3-2 12c-1.55 10.42 2.62 18.6 6.85 27.86 2.24 5 3.12 8.74 2.15 14.14q-1.31 3.09-2.75 6.13c-2.4 5.42-2.4 5.42-1.06 9.43A70 70 0 0 0 826 736c7.74 9.95 13.59 19.95 16.6 32.25l.8 3.27.6 2.48q-11.43.1-22.85.16-5.3.01-10.61.07-6.12.05-12.24.06l-3.8.05c-7.03 0-13.1-.8-19.89-2.66-3.43-.9-6.1-1.3-9.61-.68a58 58 0 0 0-5.64 5.72c-8 8.2-17.1 9.2-28.05 10.78l-5.43.9-8.04 1.3c-6.07.96-12.06 2.12-18.05 3.46l-2.3.5c-5.21 1.2-5.21 1.2-7.49 2.34-7.01.51-13.27-1.41-20-3.22-10.89-2.78-17.39-2.45-27.54 2.62-5.83 2.7-11.95 4.18-18.15 5.79l-10.98 2.9q-6.7 1.84-13.33 3.91c.58-5.17 1.8-9.82 3.54-14.73l1.5-4.37 2.4-6.8 2.29-6.64.73-2.04c1.3-3.84 1.89-6.54.54-10.42a67 67 0 0 0-5.7-5.55c-1.7-3.2-1.11-5.21-.18-8.62q2.55-8.25 5.35-16.41l2.1-6.25a148 148 0 0 1 10.04-23.18c3.96-8.5.78-18-1.19-26.73-2.26-10.26-1.77-15.82 3.46-25.07l3.01-5.55 1.57-2.83q3.61-6.62 7.1-13.31l1.27-2.37c3.47-6.56 5.36-10.65 4.73-18.25-.29-7.86 2.03-13.3 5.6-20.17 7.9-15.32 12.95-32.21 17.84-48.71 26.44-1.75 26.44-1.75 32.06 2.26 2.75 2.8 2.75 2.8 4.83 5.65L705 550c4.63-.22 8.08-1.34 12.14-3.54 8.5-4.6 16.2-5.4 25.76-5.14l4.38.03q5.67.05 11.35.17 5.82.1 11.64.14 11.37.12 22.73.34l-2.86 5.25-1.6 2.95q-3.34 6.04-6.81 12C777 570.43 777 570.43 777 574c5.4-1.15 10.71-2.42 16-4v-2l-13 1q2.89-5.1 5.9-10.14a235 235 0 0 0 2.2-3.8c5.76-10.09 10.42-15.55 21.9-19.06l1.93-.68c2.07-.32 2.07-.32 5.36.04 10.61 1.06 10.61 1.06 14.49-1.57q2.68-2.48 5.28-5.04c11.21-10.44 27.59-9.43 42.06-10.28 6.03-.36 11.9-1.09 17.87-2.07 4.67-.62 9.3-.57 14.01-.4"/><path fill="#32302b" d="m220.13 522.19 3 1.61c9.34 5.18 17.7 11.37 25.87 18.2l1.68 1.36a70 70 0 0 1 9.36 9.32q2.06 2.43 4.2 4.8c15.1 17.11 23.93 37.8 32.54 58.66l1.28 3.11 1.27 3.08C304.2 634.04 309.34 645.8 317 656l1.91 2.63c8.63 11.27 19.2 18.66 32.09 24.37a53 53 0 0 1-7.75 6.75c-17.34 12.95-26.3 32.01-29.93 52.97a75 75 0 0 0 .68 23.78c.66 5.98-1.95 10.2-4.74 15.28-3.25 5.96-5.36 11.93-7.35 18.4C301 803 301 803 300 804c-32.6 6.18-67.73-4.15-96-20l-2.41-1.23c-11.85-6.12-22.46-15.2-32.59-23.77q-1.1-.9-2.2-1.83a92 92 0 0 1-10.97-11.1 94 94 0 0 0-6.02-6.07c-30.97-30.71-48.25-76.1-51.65-118.96q-.24-2.85-.52-5.71c-1.18-20.43 14.92-40.85 27.74-55.33l4.62-5 2.05-2.25c19.8-20.87 59.78-46.3 88.07-30.56M572 294l2.02 1.4c17.74 11.8 34.92 11.24 55.4 7.68 24.42-4.01 48.8-.73 69.2 13.86 16.37 12.26 28.71 29.16 32.1 49.69 1.85 15.4-2.89 30.8-12.16 43.12-2.97 3.67-6.14 7-9.56 10.25a51 51 0 0 1-9.75-4.87c-17.32-10.49-34.03-10.58-53.75-10.57-16.2-.01-29.75-1.35-44.56-8.44l-4.55-2.09-2.22-1.03q-4.96-2.26-9.98-4.37l-3.27-1.4L578 386l-2.56-1.14a24.3 24.3 0 0 0-15.66-.13c-8.18 4.22-15.32 10.83-22.42 16.6a141 141 0 0 1-19.42 13.48l-1.86 1.06c-10.3 5.66-21.04 9.13-32.4 12.07-18.8 5.02-38.15 11.37-52.69 24.94-1.99 1.12-1.99 1.12-4.88 1.04-3.54-1.05-5.75-2.5-8.67-4.73l-2.76-2.08L412 445l-2.56-1.93c-9.6-8.16-17.04-21.5-18.44-34.07-1.2-22.12 2.93-39.55 17.67-56.52A102 102 0 0 1 446 327l2.68-1.08c9.98-3.7 20.45-4.85 30.94-6.27 20.64-2.8 35.5-7.67 50.38-22.65 11.75 18 20.94 37.55 30 57l.26-1.99a453 453 0 0 1 7.43-42.07l.47-2.08c2.61-11.4 2.61-11.4 3.84-13.86"/><path fill="#f8edd6" d="m592 391 7.02 3.23q2.12.97 4.23 1.98c15.9 7.33 31.1 7.33 48.29 7.28 27.05-.02 47.31 6.5 67.33 25.19C721 431 721 431 721 433c-1.47 1.21-1.47 1.21-3.57 2.58l-2.37 1.56-2.62 1.67-2.72 1.75a382 382 0 0 1-78.83 38.42q-3.6 1.26-7.16 2.58c-10.67 3.77-21.67 6.13-32.73 8.44l-2.27.48a247 247 0 0 1-50.54 4.96h-2.73A298 298 0 0 1 458 485l-2.92-.79c-32.52-8.93-32.52-8.93-43.08-14.21 0-2 0-2 1.36-3.37l1.95-1.63c2.44-2.06 4.83-4.13 7.14-6.33 18.67-17.74 40.58-26.58 65.22-32.87 20.22-5.22 36.25-14.65 52.3-27.92C559.16 382.1 569.5 380.57 592 391"/><path fill="#fbc72c" d="M409 477a623 623 0 0 1 18.6 5.8 417 417 0 0 0 56.71 14.45l2.12.38c16.78 2.98 33.39 4.78 50.44 4.75h2.4A245 245 0 0 0 584 498l2.38-.42q6.34-1.13 12.62-2.58l3.64-.83c16.2-3.87 32.32-8.5 47.6-15.2C653 478 653 478 656 479c-6.23 14.43-17.92 26.07-29 37 7.74-5.62 15-11.46 22-18 1.61 3.22.03 5.84-1.02 9.15A263 263 0 0 1 604 587l-2.23 2.85c-6.44 7.96-13.61 15.2-20.83 22.46l-1.56 1.57a301 301 0 0 1-15.75 14.98l-2.28 2C559 632 559 632 556 631.36a66 66 0 0 1-7.54-3.94l-2.53-1.56-2.67-1.67-2.8-1.75c-16.87-10.65-33.3-22.62-47.97-36.17q-3.01-2.75-6.12-5.4c-5.14-4.49-9.97-9.3-14.8-14.12l-2.7-2.66a195 195 0 0 1-14.85-16.57 300 300 0 0 0-6.26-7.52c-13.31-16.3-24.16-34.68-34.44-53l-1.31-2.34c-3-5.42-3-5.42-3-7.66"/><path fill="#32312c" d="M307 641c2.07 1.67 2.78 3.1 3.87 5.52 2.25 4.95 5.87 9.15 9.13 13.48l1.4 1.9c7.54 9.65 18.57 16.21 29.6 21.1a53 53 0 0 1-7.75 6.75c-17.34 12.95-26.3 32.01-29.93 52.97a75 75 0 0 0 .68 23.78c.66 5.98-1.95 10.2-4.74 15.28-3.25 5.96-5.36 11.93-7.35 18.4C301 803 301 803 300 804c-32.63 6.18-71.59-3.72-99-22-2.87-8.25-2.33-17.64-2.31-26.25l-.05-3.95c-.02-31.14 14.37-59.25 35.76-81.27 17.93-16.92 47.09-33.7 72.6-29.53"/><path fill="#ada28f" d="M277.33 599.95c3.67.05 3.67.05 6.43-.18 2.57-.1 3.98-.01 6.24 1.23 2.35 3.38 3.76 7.02 5.19 10.87 1.22 3.22 2.58 6.38 3.93 9.54q1.05 2.47 2.08 4.96a147 147 0 0 0 4.54 10.07C307 639 307 639 307 641l-3.81.26c-29.96 2.34-57.13 15.75-76.84 38.76-17.16 20.97-26.54 46.09-26.54 73.15l-.03 6.19c-.04 7.75.46 15.07 2.22 22.64-4.67-1.77-8.42-4.1-12.5-6.94l-2.12-1.46c-6.83-4.8-13.12-10.1-19.38-15.6l-4.19-3.5c-6.09-5.41-6.28-11.73-6.81-19.5-1.64-38.65 9.03-68.2 34.89-97.1 21.71-22.77 53.8-38.54 85.44-37.95"/><path fill="#fac72b" d="M304.06 41.34c5.37 4.13 8.67 9.82 11.94 15.66l1.1 1.9c4.14 8.61 2.82 21.03.34 29.98-2.25 6.35-5.62 11.6-9.44 17.12a784 784 0 0 0-4.81 7.38l-1.17 1.76c-2.97 4.56-5.32 8.52-5.2 14.05l.02 2.33c.22 3.45.8 6.83 1.43 10.22-.27 2.26-.27 2.26-2.13 4.3-4.22 2.64-8.62 4.37-13.26 6.15l-2.75 1.07c-11.18 4.37-11.18 4.37-17.13 3.74-7.3-7.71-9.86-18.11-9.8-28.49.44-7.79 3.78-13.86 7.63-20.5 9.89-17.04 9.89-17.04 9.17-23.51l-1-3.5a26 26 0 0 0-13-1c-4.52 2.3-8.23 5.15-10 10-.26 3.27-.31 6.52-.36 9.8-.88 4.38-2 5.59-5.64 8.2a92 92 0 0 1-11.87 3.31l-3.23.8c-10.68 2.56-10.68 2.56-15.9 1.89-5.46-4.34-7.01-13.5-8-20-1.28-14.71 1.88-25.49 11-37l1.4-1.9c20.94-26.8 63.09-31.66 90.66-13.76"/><path fill="#fac72c" d="M845.5 52.14c9.7 7.24 18.14 17.96 21.1 29.88 2.04 15.01.96 28.82-8.23 41.42-8.37 9.42-18.31 12.91-30.05 16.63-15.4 4.97-15.4 4.97-19.07 11.87l-1.16 2.06-1.09 2c-3.52 5.52-3.52 5.52-5 7-6.31.35-11.6-1.41-17.56-3.25l-3.12-.91c-9.77-2.98-9.77-2.98-13.32-6.84-1.47-9 2.24-18.8 7.06-26.31 6.96-9.05 16.29-13.67 26.66-17.81 5.26-2.16 9.62-4.56 12.28-9.88.39-3.58.5-5.33-1.69-8.25-4.65-3.52-8.5-4.26-14.31-3.75-6.19 2.23-9.44 6.39-12.75 11.94C783 100 783 100 779.07 99.9c-5.85-.8-11.04-2.98-16.45-5.28l-2.98-1.2c-8.33-3.47-8.33-3.47-10.64-6.42-1.43-9.68 3.33-19 8.69-26.81 21.35-27.53 60.64-26.44 87.82-8.05"/><path fill="#ada38f" d="m220.13 522.19 3 1.61a155 155 0 0 1 24.16 16.78q1.7 1.4 3.43 2.77c2.96 2.34 4.74 4.23 6.28 7.65l-3.81.11c-39.27 1.4-70.66 17.34-99.19 43.89l-2.05 1.9c-22.48 21.47-36.18 51.38-38.95 82.1-3.14-1.57-3.36-4.33-4.46-7.54l-.92-2.77q-.45-1.41-.94-2.86c-4.65-14.56-7.3-29.57-8.52-44.8q-.24-2.85-.52-5.7c-1.18-20.43 14.92-40.85 27.74-55.33l4.62-5 2.05-2.25c19.8-20.87 59.78-46.3 88.07-30.56"/><path fill="#ada28f" d="M331 671a42 42 0 0 1 4.69 3.25A88 88 0 0 0 351 683a50 50 0 0 1-7.75 6.75c-17.34 12.95-26.3 32.01-29.93 52.97a75 75 0 0 0 .68 23.78c.66 5.98-1.95 10.2-4.74 15.28-3.25 5.96-5.36 11.93-7.35 18.4C301 803 301 803 300 804c-6.14 1.2-12.2 1.12-18.44 1.06l-3.08-.01L271 805c-10.74-27.26-11.42-55.7 0-83 10.58-22.7 28.95-41.7 52.17-51.31 3.15-.77 4.77-.74 7.83.31"/><path fill="#0d0b07" d="M304.06 41.34c5.37 4.13 8.67 9.82 11.94 15.66l1.1 1.9c4.14 8.61 2.82 21.03.34 29.98-2.25 6.35-5.62 11.6-9.44 17.12a784 784 0 0 0-4.81 7.38l-1.17 1.76c-2.97 4.56-5.32 8.52-5.2 14.05l.02 2.33c.22 3.45.8 6.83 1.43 10.22-.27 2.26-.27 2.26-2.13 4.3-4.22 2.64-8.62 4.37-13.26 6.15l-2.75 1.07c-11.18 4.37-11.18 4.37-17.13 3.74-7.3-7.71-9.86-18.11-9.8-28.49.44-7.79 3.78-13.86 7.63-20.5 9.89-17.04 9.89-17.04 9.17-23.51l-1-3.5a26 26 0 0 0-13-1c-4.52 2.3-8.23 5.15-10 10-.26 3.27-.31 6.52-.36 9.8-.88 4.38-2 5.59-5.64 8.2a92 92 0 0 1-11.87 3.31l-3.23.8c-10.68 2.56-10.68 2.56-15.9 1.89-5.46-4.34-7.01-13.5-8-20-1.28-14.71 1.88-25.49 11-37l1.4-1.9c20.94-26.8 63.09-31.66 90.66-13.76M221 59l-2 1.93c-7.02 7.28-10.26 15.55-10.5 25.63.23 6.25.76 12.73 3.5 18.44 3.42 1.14 4.66.82 8.1 0l2.98-.69 3.1-.75 3.15-.73q3.84-.9 7.67-1.83l.1-2.54c.42-8.56 1.76-14.77 8.09-20.77 6.13-4.8 13.15-6.54 20.81-5.69 4.1 1.37 7.07 2.76 9.7 6.27 2.8 5.87 2.37 12.7.23 18.75A127 127 0 0 1 271 106l-3.23 5.63q-1.05 1.83-2.14 3.65c-4.43 7.53-4.44 15.16-3.63 23.72a44 44 0 0 0 5 10c5.4-.61 9.92-2.44 14.88-4.56l2.37-1q2.88-1.2 5.75-2.44l-.08-1.68c-.83-20.13-.83-20.13 5.08-28.32l2.13-3.06q1.72-2.5 3.48-4.96C308.97 91.13 312.25 80.37 311 66c-1.98-8.66-8.33-15.34-15.44-20.31C271.44 30.59 239.8 39.97 221 59"/><path fill="#aba18d" d="m850.44 585.5 2.54.04c7.07.23 12.48 1.2 17.8 6.1 6.06 6.58 6.68 12.72 6.47 21.45-1.15 17.97-10.03 33.6-22.84 45.91-7.5 6.23-18.52 12-28.41 12l2-9-2.05-1.36c-10.03-6.8-10.03-6.8-12.95-12.64-.52-4.38-.74-7.85 1.69-11.62C817 635 817 635 819.2 635.23c4.68 1.3 9 3.41 13.41 5.4A35 35 0 0 0 841 643v-4l-2-.76a191 191 0 0 1-11.12-5.12l-2.17-1.02c-6.7-3.3-6.7-3.3-8.71-7.1-1.05-6.53-1.05-6.53 1.32-9.85 3.03-2.87 4.7-4.06 8.97-4.45 4.03.33 7.27 1.26 11.09 2.61l1.96.7q2.85.98 5.66 1.99l5.44 1.81L855 619c-1.23-3.68-2.96-4.7-6.2-6.68-4.25-2-8.71-3.25-13.25-4.44-3.07-.86-5.23-1.57-7.53-3.82-1.65-3.33-1-5.55-.02-9.06 5.74-7.48 13.37-9.71 22.44-9.5"/><path fill="#0c0b07" d="M845.5 52.14c9.7 7.24 18.14 17.96 21.1 29.88 2.04 15.01.96 28.82-8.23 41.42-8.37 9.42-18.31 12.91-30.05 16.63-15.4 4.97-15.4 4.97-19.07 11.87l-1.16 2.06-1.09 2c-3.52 5.52-3.52 5.52-5 7-6.31.35-11.6-1.41-17.56-3.25l-3.12-.91c-9.77-2.98-9.77-2.98-13.32-6.84-1.47-9 2.24-18.8 7.06-26.31 6.96-9.05 16.29-13.67 26.66-17.81 5.26-2.16 9.62-4.56 12.28-9.88.39-3.58.5-5.33-1.69-8.25-4.65-3.52-8.5-4.26-14.31-3.75-6.19 2.23-9.44 6.39-12.75 11.94C783 100 783 100 779.07 99.9c-5.85-.8-11.04-2.98-16.45-5.28l-2.98-1.2c-8.33-3.47-8.33-3.47-10.64-6.42-1.43-9.68 3.33-19 8.69-26.81 21.35-27.53 60.64-26.44 87.82-8.05m-78.94 9.17C761.28 67.77 757.55 74.6 757 83c17 9 17 9 23 9 1.23-1.57 1.23-1.57 2.63-3.69 3.22-4.34 6.16-7.53 11.37-9.31 9.29-1.12 16.13-.36 23.81 4.94 3.4 3.2 4.51 6.1 4.69 10.75-.2 6.08-2.07 10.13-6.5 14.31-4.48 2.76-9.19 4.9-14 7-10.79 4.86-18.04 10.03-24.09 20.34-1.4 4.11-1.6 8.34-1.91 12.66l10.38 3 2.98.87 2.85.82 2.64.76c2.15.55 2.15.55 4.15.55l1.07-2.2 1.5-2.93L803 147c4.65-6.96 10.4-9.98 18.19-12.55l5.06-1.78 2.46-.86c10.48-3.67 20.6-7.42 26.26-17.56 4.84-10.52 6.1-22.87 2.53-33.99C851.8 66.73 842.04 58.07 829 52c-21.01-8.17-45.98-8.13-62.44 9.31"/><path fill="#33312a" d="M575.44 527.25c4.2 4.5 5.71 8.66 5.93 14.75-.22 5.62-1.26 9.88-5.35 13.98q-2.94 2.6-6.02 5.02a29.7 29.7 0 0 0 8 13c2.86.97 4.94 1 8 1l1 10q-3.02 1.27-6.06 2.5l-3.41 1.4c-4.02 1.25-6.38 1.98-10.53 1.1-2.64-2.75-4.43-5.9-6.31-9.19l-1.59-2.62A76 76 0 0 1 553 566h-9v13h7v12h-31v-12h7v-39h-7v-13c15.48-5.77 40.99-10.3 55.44.25"/><path fill="#fafafa" d="M517.02 342.7c7.92 5.21 13.17 11.03 15.98 20.3 1.22 8.5.95 17.27-3 25l-2-3c-2.12-2.86-3.73-4.7-7.27-5.53-5.92-.37-9.64.95-14.1 4.84-4.1 4.25-4.83 7.93-5.07 13.69.11 5.3.94 8.06 4.44 12-7.49 2.25-16.33 2.27-23.44-1.06-8.92-5.27-13.9-11.84-16.56-21.94-1.61-12.24 1.04-22.95 8.31-32.94A48 48 0 0 1 486 344l1.98-1.25c8.58-4.63 20.44-4.73 29.04-.06"/><path fill="#f9f9fa" d="M643.69 330.63c8.84 9.08 12.82 17.71 12.73 30.3-.34 9.5-3.52 18.35-10.42 25.07-6.64 4.93-13.56 8.51-22 8l.88-1.47c2.86-5.17 3.87-8.62 3.12-14.53a22 22 0 0 0-6.12-8.94c-4.36-1.6-8.3-1.8-12.88-1.06-4.02 2.15-5.45 3.24-6.8 7.56A81 81 0 0 0 601 383c-6-5.16-8.8-10.44-9.46-18.39-.56-11.42 1.02-19.84 8.36-28.97 11.96-12.94 28.98-13.97 43.79-5.01"/><path fill="#312f2b" d="M207 516v1l-2.32.2c-28.35 3.12-52.27 17.53-72.68 36.8l-2.08 1.92C115.67 569.52 106.37 586.98 99 605h-1c-1.67-23.18 5.48-48.46 18-68l2.27-2.1c1.73-1.9 1.73-1.9 1.78-3.95-1.47-2.72-3.25-3.63-5.92-5.14l-2.68-1.54C109 523 109 523 106 522v-2c33.56-17.35 65.85-17.82 101-4"/><path fill="#f6ecd5" d="M700 265c3.9 1.47 7.6 3.24 11.33 5.07A222 222 0 0 0 741 282l3.35 1.08q6.83 2.14 13.74 4.03c19.63 5.37 19.63 5.37 26.91 10.89.88 3.22.88 3.22 1 6-9.66 6.76-20.17 9.95-31.69 11.81l-2.3.38c-2.33.34-4.66.58-7.01.81l-2.77.46c-3.05.32-5.26.36-8.23-.46-3.33-3.16-5.29-6.92-7.44-10.94l-3.84-6.63c-.3-.55-.3-.55-1.89-3.32a153 153 0 0 0-8.33-12.42c-4.4-6.1-8.57-12.28-12.5-18.69"/><path fill="#0b0b0b" d="M523.69 340.88c7.02 5.83 12.34 13.08 14.31 22.12 1.25 14.47-.35 26.16-9.23 37.97-8 8.67-18.03 14.45-29.85 15.23-12.69.2-20.64-2.33-29.92-11.2-7.57-7.84-8.5-18.37-8.42-28.8A33.6 33.6 0 0 1 465 360l1.29-2.54c5.7-10.52 15.22-18.23 26.6-22.1 10.86-1.84 21.66-.88 30.8 5.52M475 353c-7.76 10.64-10.41 20.84-9 34 2.35 9.35 7.09 15.98 15.02 21.38 6.53 3.49 13.75 3.4 20.98 2.62 2.42-1.02 2.42-1.02 4-2l-2-1.75c-3.05-4.95-2.85-9.58-2-15.25 2.1-5.53 5.58-9.55 11-12a27 27 0 0 1 10 0c3.16 2.43 4.8 4.7 7 8 4.39-8.6 4.69-19.29 1.97-28.49-3.7-8.07-9.48-14.68-17.6-18.51-14.8-4.45-29.32.63-39.37 12"/><path fill="#f6ecd5" d="m396 311 2 1c-11.9 30.2-11.9 30.2-19.12 44.38l-.95 1.93c-2.13 4.04-3.67 5.28-7.93 6.69-12.44 3.14-25.2 4.37-38 4.38h-3.27A59 59 0 0 1 312 367l-1-4a165 165 0 0 1 28.25-15.58 930 930 0 0 0 10.88-4.83l2.11-.96A156 156 0 0 0 386 321l2.7-2.07C391 317 391 317 393 314h2z"/><path fill="#080808" d="M639.66 322.62c8.42 4.97 14.1 10.52 18.34 19.38l1.03 2.04c3.97 9.49 3.26 21.6-.22 31.08-3.77 8.47-7.95 13.9-15.81 18.88l-1.92 1.26c-7.94 4.38-18.14 3.75-26.86 2.27-10.17-3-18.65-10.13-23.76-19.3-4.86-10.81-5.66-23.53-1.52-34.73 5.31-10.77 13.82-18.22 24.9-22.63 8.35-2.3 17.96-2 25.82 1.75M600 336c-7.67 9.94-9.06 18.33-8.3 30.66.7 5.37 3.07 10 6.3 14.34l3 2 .23-2.01c1.2-8.13 1.2-8.13 4.27-11.12 4.66-2.5 8.32-2.77 13.5-1.87 3.8 1.8 5.52 3.3 7.88 6.75 1.85 5.36 1.91 9.38-.32 14.63L625 392l-1 2c7.55-.17 12.72-1.82 19-6l2.69-1.69c7.5-7.5 10.58-16.66 10.68-27.12-.05-10.93-3.56-19.45-11.37-27.19-14.64-10.73-32.56-9.65-45 4"/><path fill="#0d0b08" d="M307 157c4.87 4.08 8.52 8.47 9.39 14.84.28 7.8-.86 13.29-6.16 19.1-5.98 5.66-11.51 8.13-19.73 8.5-6.98-.22-11.36-2.35-16.31-7.19-3.86-5.73-6.16-11.24-5.19-18.25 2.66-7.83 7.23-13.3 14-18 7.8-3.4 16.6-3.2 24 1"/><path fill="#32302b" d="M352.93 683.43c1.94.82 1.94.82 5.07 2.57-1.97 21.79-13.21 37.81-25.22 55.4a358 358 0 0 0-10.4 16.23l-1.27 2.07A138 138 0 0 0 315 771c-5.7-8.56-3.76-23.13-1.82-32.94 4.63-21 15.07-37.52 31.82-51.06l1.59-1.42c2.1-1.72 3.6-2.76 6.34-2.15"/><path fill="#0d0b08" d="M790 166c3.86 3.07 7.2 6.34 9 11 .76 6.66.9 13.38-2.6 19.28-3.48 4.26-7.89 7.8-13.4 8.72-7.39.64-14.18 1.2-20.32-3.44-4.44-4.12-9.02-8.6-10.05-14.79-.2-6.87 1.22-12.21 5.37-17.77 9.67-8.48 20.8-9.34 32-3"/><path fill="#f8c62b" d="M746 466c0 4.98-3.61 7.6-7 11-11.14 10.35-23.13 16.54-38.46 16.18-6.43-.46-9.92-3-14.54-7.18l2-7a138 138 0 0 1 22-3 28 28 0 0 0-8.19-1.1l-2.36-.05q-2.45-.04-4.9-.02A24 24 0 0 1 688 474c-2.56-3.05-2.56-3.05-4-6 1.06-3.28 2.1-4.06 5.12-5.89l3.75-1.8 1.9-.93c17.44-8.43 35.37-1.94 51.23 6.62"/><path fill="#040403" d="m585.31 403.75 3.17-.02c12.28.03 12.28.03 15.52 3.27-.24 12.98-9.22 22.39-18 31l-1.47 1.5c-2.54 2.4-3.97 3.49-7.52 3.56-11.66-4.1-24.76-15.66-31.01-26.06-.5-2.69-.5-2.69 0-5 2.96-2.72 5.7-3.66 9.56-4.56l2.88-.7L562 406l2.42-.53c7.02-1.41 13.75-1.77 20.9-1.72"/><path fill="#040404" d="M534 378h3c-.34 10.07-4.21 18.4-11.06 25.81-6.34 5.86-14.34 11.6-23.25 11.63L499 415v-2l-3-1 9-3-2-1.75c-3.05-4.96-2.84-9.58-2-15.25 1.9-5.12 5.39-9.2 9.97-12.15 3.96-1.66 7.85-1.62 12.03-.85 3.6 2.1 5.48 4.13 7 8l.62-1.71.82-2.23.8-2.21C533 379 533 379 534 378"/><path fill="#0c0b0a" d="M674.43 636.14c3.32 1.11 4.1 2.47 5.88 5.42l1.55 2.5L683 646c4-.6 6.55-2.67 9.75-5.06l2.98-2.23L698 637c3 1.1 3.85 1.68 5.25 4.63L704 644l-4.81 3.88-2.71 2.17C694 652 694 652 691 654c.61 3.44 1.92 5.52 4.06 8.25l1.66 2.14L698 666c-1.37 3.16-1.99 4-5 6-3.37-.12-4.64-.64-7.02-3.07l-1.8-2.5-1.82-2.5L681 662l-4.25 2.81-2.4 1.58c-2.35 1.61-2.35 1.61-4.4 3.3C668 671 668 671 664 671c-1.81-1.75-1.81-1.75-3-4 .05-1.84.05-1.84 1-4 2-1.73 3.91-3.24 6.06-4.75l1.72-1.25 4.22-3c-1.62-3.48-3.68-6.25-6.07-9.22-.93-1.78-.93-1.78-.68-3.89 1.38-3.48 3.44-4.97 7.18-4.75"/><path fill="#0e0e0c" d="M525.27 451.96a25 25 0 0 1 7.92 6.85c1.81 2.19 1.81 2.19 4.15 2.51 3.18-.38 4.48-1.35 6.97-3.32 4.6-3.24 7.12-3.84 12.69-3a17 17 0 0 1 6.88 5.25c2.12 1.75 2.12 1.75 5.25 1.5L573 461c7.08-.88 11.38.18 17.29 4.2 2.1 2.2 2.38 3.82 2.71 6.8-1.77.66-1.77.66-4 1-1.82-1.03-1.82-1.03-3.69-2.5-4.05-2.75-6.68-2.8-11.43-2-1.88.5-1.88.5-3.88 1.5-3.25.5-3.25.5-7 0-1.55-1.56-1.55-1.56-3-3.5-2.63-3.41-2.63-3.41-6.31-4.31-3.66.8-5.16 1.68-8.13 3.81-3.52 2.49-6.12 4.1-10.5 3.8-3.9-1.52-6.44-4.68-9.18-7.73-2.55-2.81-4.25-3.3-7.94-3.5-6.4.05-11.07 3.54-15.48 7.98l-1.27 1.39L499 470c-2.31-.19-2.31-.19-4-1 .83-5.9 3.65-9.08 8-13 6.73-4.68 14.36-7.38 22.27-4.04"/><path fill="#f7c52a" d="M299 162c4.15 1.71 6.77 4.11 9 8 .82 4.97.57 8.82-1.62 13.38-3.73 4.1-7.8 7.2-13.43 7.86-5.5.18-8.7-.4-12.95-4.24-2.91-4.37-3.65-7.8-3-13 4.92-9.47 11.66-12.9 22-12"/><path fill="#070605" d="M574.5 268.94c3.7 1.12 4.88 2.14 7.63 4.75 7.07 6.68 15.96 11.5 25.82 11.37l2.82-.02 2.92-.04 5.76-.06 2.57-.04c1.98.1 1.98.1 2.98 1.1q.06 2.5 0 5c-10.53 6.45-21.89 7.78-33.98 5.42-8.26-2.87-16.16-9.54-20.02-17.42-.33-2.42-.33-2.42-.25-4.75l.05-2.36c.31-2.93.73-2.88 3.7-2.95"/><path fill="#f8c52a" d="M783.31 171.13c4.14 2.88 7.2 5.21 8.14 10.27.19 4.27-.23 7.12-2.01 11.04-3.83 4.02-7.5 5.32-12.94 6-5.62-.7-9.1-2.9-12.87-7.06-2.77-4.04-3.03-6.44-2.63-11.38a22 22 0 0 1 6.13-8.94c5.42-2 10.74-1.78 16.18.06"/><path fill="#070605" d="M519 270c4.56.56 4.56.56 6 2 1.27 7.8-.36 13.1-4.87 19.49-3.28 3.87-6.9 6.74-11.13 9.51l-1.78 1.24c-6.76 4.36-16.26 5.93-24.22 4.76l-2-2c.13-1.94.13-1.94 1-4 3.23-2.82 6.88-4.44 10.75-6.25 10.06-4.92 15.9-11.2 22.37-20.18C517 272 517 272 519 270"/><path fill="#100f0d" d="M709 735a69 69 0 0 1-1.37 15.88l-.85 4.19-.42 2.03a99 99 0 0 0-.8 5.05c-.88 6.23-.88 6.23-3.87 8.98-6.79 1.6-13.86 2.58-20-1.13-2.18-3.87-2.48-6.66-1.69-11 1.88-4.6 4.74-6.58 9-9a25.4 25.4 0 0 1 12-2l.11-2.08.2-2.73.18-2.71c1-4.83 2.68-5.48 7.51-5.48"/><path fill="#12110f" d="m779.56 726.94 2.44.06c-.32 7.14-1.47 14.07-2.87 21.06l-.5 2.56-.5 2.42-.44 2.16C777 757 777 757 774 759c-2.02-.03-2.02-.03-4-1-1.48-2.5-1.48-2.5-2.75-5.56l-1.3-3.07L765 747l-1.4 2.01-3.8 5.43a404 404 0 0 0-3.92 5.68c-1.88 1.88-1.88 1.88-4.5 2L749 762c-.24-7.68.1-15.13.94-22.75l.26-2.42c.67-5.7.67-5.7 1.8-6.83h5v17l3.25-5c1.83-2.81 1.83-2.81 3.75-5h4l4 9 .84-3.9 1.1-5.04.55-2.57.54-2.45.49-2.27c.76-2.8 1.05-2.76 4.04-2.83"/><path fill="#f7c62a" d="M682.25 491.63c10.14 5.06 15.16 15.06 19.12 25.28.63 2.09.63 2.09.63 5.09-5.63.37-9.08-.6-14.06-3.19l-3.54-1.79c-5.73-3.4-9.74-6.95-13.21-12.64l-1.77-2.86C668 499 668 499 667 496l2.34-.84 3.03-1.1 3.03-1.09c4.99-1.86 4.99-1.86 6.85-1.35"/><path fill="#10100e" d="m742.56 731.94 2.44.06c-.65 4.22-2.08 7.68-3.87 11.54l-.86 1.85-1.79 3.84q-1.38 2.94-2.73 5.89l-3.35 7.16C731 765 731 765 729 767c-2.62.13-2.62.13-5 0-3.1-6.08-5.05-12.25-6.81-18.81l-.7-2.54-1.2-4.6c-.32-2.29.01-3.86.71-6.05l5-1c1.32 3.62 2 6.1 2 10 10.84-1.64 10.84-1.64 13.65-4.95.95-2 1.68-3.95 2.35-6.05 1-1 1-1 3.56-1.06"/><path fill="#f7c52e" d="M544 535c14.06-.43 14.06-.43 19 3 1 1 1 1 1.38 4.75-.05 3.47-.32 4.17-2.5 7.13-6.18 4.56-9.86 4.12-17.88 4.12z"/><path fill="#f5c22a" d="M679 470c2.6 2.95 3 4.56 3 8.5-1.35 4.71-3.69 7.06-7.8 9.63-2.77 1.1-4.99 1.07-7.95 1l-2.98-.06L661 489c-1.39-5.55-.95-10.03 2-15 4.93-3.57 9.99-5.98 16-4"/><path fill="#1e1c18" d="m751 699 1 1c-.14 3.68-.6 7.34-1 11l-.22 2.47q-.3 2.78-.78 5.53c-3.2 1.6-6.52 1.47-10 1-2.5-1.5-2.5-1.5-4-4-.67-4.09-.94-6.44 1.21-10 3.94-4.8 7.36-7.52 13.79-7"/><path fill="#9e8f76" d="m804 587 2 1-1.63 1.11-7.43 5.08-2.57 1.75-2.53 1.73-2.5 1.7q-3.17 2.22-6.27 4.56C780 606 780 606 777 606l-.34 2.2a26 26 0 0 1-3.22 7.61l-1.38 2.4L771 620l3-1q2.16-.22 4.32-.32l2.6-.12 2.77-.12 2.82-.13c8.17-.35 16.32-.41 24.49-.31v7h-1v-5l-2.56.28-13.72 1.44c-8.6.92-17.07 1.5-25.72 1.28-.92-2.97-1.11-3.73.12-6.73 8.2-14.08 21.12-22.77 35.88-29.27"/><path fill="#1c1b18" d="m704 706-1 19c-3.46 1.73-7.22 1.48-11 1-2.06-1.5-2.06-1.5-3-4-.6-4.1-.94-6.5 1.28-10.04 4.64-5.52 5.9-5.96 13.72-5.96"/><path fill="#131310" d="M855 537c2.38.31 2.38.31 5 1 2.4 3.59 2.56 4.76 2 9-4.46 10.2-13.04 15.38-22.75 19.93-3.6 1.18-6.5 1.26-10.25 1.07v-4l2.53-.88c19.08-6.95 19.08-6.95 23.47-16.12.25-3.12.25-3.12 0-6z"/><path fill="#161411" d="M684 709c1.88 1 1.88 1 3 3 .55 5.6.15 9.16-3 14-1.81 1.94-1.81 1.94-4 3-3.12-.12-3.12-.12-6-1-2.48-3.72-2.66-6.69-2-11 2.6-6.4 5.02-8.57 12-8"/><path fill="#1b1a16" d="m665 711 4 1 1 17-4 1-2-9-3 6h-3l-2-4-4 9h-3c.5-7.15 3.32-13.41 6-20h4l2 6 1.44-2.94C664 712 664 712 665 711"/><path fill="#161513" d="M646 712h3q-.45 3.88-.94 7.75l-.26 2.21A74 74 0 0 1 646 732c-2.31-.06-2.31-.06-5-1-1.81-3.56-1.81-3.56-3-7l-2 9-4 1c.5-6.37 1-12.7 2-19l5-1c3 6.63 3 6.63 3 10h2l-.12-3.19c.11-3.55.6-5.66 2.12-8.81"/><path fill="#a08f74" d="M650 603c13.88-1.04 24.7-.74 36 8a101 101 0 0 1 4.25 5.06c5.82 7.31 15.12 9.33 23.75 11.94v1c-11-.89-19.24-2.73-27-11l-1.94-2.69c-2.58-2.9-5.17-3.91-8.74-5.32-2.32-.99-2.32-.99-4.67-2.57-3.32-1.78-5.9-1.9-9.65-2.04-4.11-.2-7.98-.45-12-1.38z"/><path fill="#1e1d1a" d="m734 701-.87 9.38-.24 2.69-.26 2.58-.22 2.38C732 720 732 720 730 722c-3.84 1.48-7.95 1.07-12 1l1-3c1.85-.73 1.85-.73 4.06-1.19l2.23-.48L727 718l1-4h-6l2-4h4v-4l-8 1 1-4c4.52-1.23 8.3-2.13 13-2"/><path fill="#9d8f77" d="m793 542 4 1a731 731 0 0 1-16 25l12-1v4c-5.34 1.92-10.35 3.4-16 4-1.07-2.7-1.1-3.74.02-6.47l1.59-2.74 1.73-3.02q.9-1.56 1.85-3.14l1.79-3.12c2.86-4.95 5.77-9.81 9.02-14.51"/><path fill="#a6977c" d="m723.31 669.88 2.25.02 5.44.1c-.8 4.8-3.26 6.14-7 9 .88-4.75.88-4.75 2-7-6.46.32-10.93 1.73-16.71 4.54C699 681.1 687.89 684.27 677 687c2.66-3.25 5.82-4.34 9.68-5.85l1.97-.78q3.1-1.22 6.23-2.43l4.16-1.65 7.69-3q3-1.19 5.95-2.45c3.5-1.27 6.97-1.05 10.63-.97"/><path fill="#12110e" d="m787 696 3 1-.87 8.94-.24 2.57-.26 2.45-.22 2.27L788 715c-3.25 1.63-6.4 1.11-10 1-1-1-1-1-1.31-3.81.31-3.19.31-3.19 2.06-5.57C781 705 781 705 785 705l.44-3.94c.43-3.93.43-3.93 1.56-5.06"/><path fill="#1a1915" d="m774 697 2 1-1 4h-6l-1 3 2.94.94C774 707 774 707 775 708c-.25 3.44-.25 3.44-1 7-3.64 2.43-5.71 2.16-10 2v-4h6l1-3-2.37-.87C766 708 766 708 764 706c-.37-2.94-.37-2.94 0-6 2.93-3.38 5.7-3.37 10-3"/><path fill="#f1e8d3" d="m700 753-.44 5.94-.24 3.34C699 765 699 765 698 766q-2.47.18-4.94.19l-2.71.04C688 766 688 766 686 764c0-2.31 0-2.31 1-5 4.33-4.15 6.94-6 13-6"/><path fill="#181713" d="M799.56 694.69C802 695 802 695 804 697c.23 2.43.23 2.43.19 5.31l-.02 2.87c-.16 2.7-.57 5.19-1.17 7.82h-3v-14c-3 2-3 2-3.73 4.82l-.46 3.3-.48 3.33L795 713l-4 1c-.4-6.2.34-12.79 4.45-17.75C797 695 797 695 799.56 694.7"/><path fill="#e8e6df" d="m774 156 2.02.55 2.8.76 3 .83q3.15.86 6.32 1.62l2.99.74 2.75.66 2.12.84 1 3c-1.44 2.69-1.44 2.69-3 5l-1.54-1.02c-6.73-4.36-12.53-6.16-20.46-6.98 0-3 0-3 2-6"/><path fill="#281e03" d="M427 487c3.07 1.02 4.2 2.11 6.4 4.38 11.9 12.07 26.13 21.86 40.6 30.62l-2 1a87 87 0 0 1-6.87-3.37l-2.04-1.1A123 123 0 0 1 427 488z"/><path fill="#a8987e" d="m620 661 1 3 2.17-.12c9.81.43 20.3 7.75 28.98 12.18q3.91 1.99 7.85 3.94l4 2c-4.24 1.41-6.92-.39-10.8-2.11l-2.32-1-7.32-3.2-4.91-2.13c-12.76-5.54-12.76-5.54-16.65-7.56l-2 3z"/><path fill="#a19278" d="M811 618v7h-1v-5l-2.63.28-13.95 1.44c-14.32 1.5-14.32 1.5-21.42 1.28v-1l6-1-4-2a547 547 0 0 1 37-1"/><path fill="#080806" d="m803.77 565.89 2.27.01 2.45.01 2.57.03 2.59.01 6.35.05c-.31 1.94-.31 1.94-1 4-3.56 1.19-6.44 1.1-10.19 1.06l-3.85-.02L802 571c-.56-1.94-.56-1.94-1-4 1-1 1-1 2.77-1.11"/><path fill="#131311" d="M699 706h5l-1 19c-2.7 1.35-5 1.07-8 1v-3h4l.18-2.3.26-3.01.24-3C700 712 700 712 701 709h-3z"/><path fill="#9e8d73" d="M813 676c-9.95 6.63-24.46 6.1-36 7 1-2 1-2 2.69-2.78a93 93 0 0 1 16.93-3.4q1.05-.14 2.14-.26c4.77-.52 9.44-.63 14.24-.56"/><path fill="#181714" d="M793 567v4c-5.34 1.92-10.35 3.4-16 4l-1-4c6-2.65 10.35-4.15 17-4"/><path fill="#272521" d="M757 699h3c.11 6.11-.1 11.95-1 18l-4 1q-.08-3.06-.12-6.12l-.08-3.45c.2-3.49.95-6.19 2.2-9.43"/><path fill="#a29276" d="m723.31 669.88 2.25.02 5.44.1c-.8 4.8-3.26 6.14-7 9 .88-4.75.88-4.75 2-7-4.57.3-8.69.66-12.87 2.63C710 676 710 676 707 675c4.5-5.21 9.8-5.28 16.31-5.12"/><path fill="#eae5d3" d="M679 712h3c1.24 2.47.98 3.77.69 6.5l-.24 2.4C682 723 682 723 680 725c-2.12-.37-2.12-.37-4-1-.29-4.93-.2-8.1 3-12"/><path fill="#1e1c19" d="M332 923a45 45 0 0 1-3.56 7.56c-2.1 5.02-2.19 10.05-2.44 15.44h-1l-1-10-3 1c.64-5.4 3.06-9.3 7.13-12.87C330 923 330 923 332 923"/><path fill="#141310" d="m742 633 4 2v12l-5 1q-.04-3.46-.06-6.94l-.04-3.9c.1-3.16.1-3.16 1.1-4.16"/><path fill="#a3947a" d="M639 745c-21.64 8.58-21.64 8.58-29 8 1-2 1-2 2.78-2.76l2.3-.71 2.52-.79 2.65-.8 2.6-.82c11.69-3.6 11.69-3.6 16.15-2.12"/><path fill="#1d1c18" d="M770 576c-.2 1.8-.2 1.8-1 4-2.18 1.7-2.18 1.7-4.87 3.25l-2.68 1.58C759 586 759 586 756 586c.3-3.1.46-4.56 2.93-6.58l2.38-1.23 2.37-1.27C766 576 766 576 770 576"/><path fill="#ece7d7" d="M700 710c.08 4.16-.02 7.95-1 12h-5c-1.42-2.84-1.31-4.85-1-8 2.34-3.07 3.07-4 7-4"/><path fill="#161512" d="M739 654h4c-.26 6.45-2.5 9.48-7 14l-3-2z"/><path fill="#e9e1d0" d="M763.88 706.13A45 45 0 0 1 771 710l-1 4-2.87-.12C764 714 764 714 762 716v-3l-3 1c-.23-2.84-.36-4.46 1.25-6.87 1.75-1.13 1.75-1.13 3.63-1"/><path fill="#aa9c82" d="m827 713-1 4v-2q-3.98 1.2-7.94 2.44l-2.28.7c-5.67 1.75-5.67 1.75-6.78 2.86q-2.77.34-5.56.56l-3.07.26-2.37.18c2.16-2.16 3.31-2.58 6.18-3.47l2.5-.79 2.63-.8 2.6-.82C821.95 713 821.95 713 827 713"/><path fill="#e6dec8" d="M747 704c.08 4.16-.02 7.95-1 12-4.87-.87-4.87-.87-6-2 .46-6.24.46-6.24 2.38-8.94C744 704 744 704 747 704"/><path fill="#161512" d="M730 618c4.6.27 6.78 2.28 9.96 5.33 1.04 1.67 1.04 1.67.7 3.87L740 629c-1.94-.31-1.94-.31-4-1l-1-3c-1.94-1.12-1.94-1.12-4-2l-2-1z"/><path fill="#efede4" d="m774 156 5.38 1.38 3.02.77c2.6.85 2.6.85 4.6 2.85l-2 2c-3.04-.02-3.04-.02-6.62-.37l-3.6-.34L772 162c0-3 0-3 2-6"/><path fill="#0f0f0d" d="M759 657q3.18-.04 6.38-.06l3.58-.04c3.04.1 3.04.1 5.04 1.1l-1 4-15-1z"/><path fill="#090908" d="M705 591h4c2.3 9.41 2.3 9.41 2 14l-5-1c-1-3.01-1.1-5.04-1.06-8.19l.02-2.73z"/><path fill="#171614" d="M676 710h2l-.22 2.96-.28 3.85-.28 3.83A98 98 0 0 0 677 727h-2l-1-2h-2c-.45-6.46.4-9.6 4-15"/><path fill="#171613" d="M778 663c1.75.13 1.75.13 4 1 2.7 3.22 3.94 5.16 4.25 9.38L786 676c-1.86-.26-1.86-.26-4-1-1.27-1.7-1.27-1.7-2.25-3.81l-1.02-2.08C778 667 778 667 778 663"/><path fill="#1a1915" d="M714 608c3.06.61 5.2 1.58 7.75 3.38l1.86 1.27L725 614v3c-2.97.35-5.16.54-7.73-1.11A97 97 0 0 1 713 612z"/><path fill="#1a1916" d="M719 575c-.57 3.63-1.92 5.26-4.56 7.75l-1.94 1.86L711 586l-3-1c.22-3.89.99-4.99 3.81-7.81C715 575 715 575 719 575"/><path fill="#e3e2dd" d="M506 816h29v1h-5v2h-14v-2h-10z"/><path fill="#2c2a25" d="m653 716 1 2h2a40 40 0 0 1-4 14h-3c.6-5.65 2.08-10.66 4-16"/><path fill="#090908" d="M748 703c2.14 3.48 2.21 6.21 2.13 10.25l-.06 3.27L750 719c-2.96 1.48-5.74 1.06-9 1v-3l7 1-1-2q-.14-2.47-.12-4.94l-.01-2.65C747 706 747 706 748 703"/><path fill="#99886e" d="M650 603q5.06-.17 10.13-.25l2.88-.1c5.96-.08 9.5.27 13.99 4.35v2c-2.11-.45-3.83-.9-5.7-2-3.1-1.35-5.88-1.4-9.24-1.56A69 69 0 0 1 650 604z"/><path fill="#98886e" d="m772 611 2 1c-1.87 5.75-1.87 5.75-3 8h8l-1 2c-2.29.41-2.29.41-5.06.63l-2.79.22-2.15.15c-.65-1.73-.65-1.73-1-4 1-2.14 1-2.14 2.44-4.25l1.43-2.14z"/><path fill="#262420" d="m751 699 1 1q-.14 2.79-.44 5.56l-.3 3.07L751 711l-.87-1.94C749 707 749 707 747 706v-2l-5 1c1.96-5.45 3.2-6.3 9-6"/><path fill="#22211d" d="m739 579 9 3 1 5c-3.94.37-5.57.3-8.87-2l-2.13-2z"/><path fill="#e1dbc9" d="M798 699h2v14l-2-3-3 1c-.3-4.96-.13-8.03 3-12"/><path fill="#25231e" d="M724 573c7.43-.29 7.43-.29 11 2l-2 4-9-2z"/><path fill="#221d03" d="M688 474q4.35-.08 8.69-.12l2.47-.06c4.41-.03 7.83.1 11.84 2.18v1a99 99 0 0 1-23-2z"/><path fill="#1b1a16" d="m774 697 2 1-1 4h-11c2.75-5.5 4.16-5.24 10-5"/><path fill="#b6a78c" d="m794 678 4 3-21 2c1-2 1-2 3.07-2.85 9.43-2.8 9.43-2.8 13.93-2.15"/><path fill="#161513" d="m729 719 1 3c-3.98 1.33-7.85 1.07-12 1l1-3c1.78-.77 1.78-.77 3.94-1.25l2.15-.52C727 718 727 718 729 719"/><path fill="#161610" d="m787 696 3 1-1 10-3 1-1-1q.1-2.5.38-5l.27-2.75C786 697 786 697 787 696"/><path fill="#e3ddce" d="m729.06 747.94 2.94.06c-1.16 3.91-2.36 6.87-5 10l-1.06-4.44-.6-2.5L725 749c1-1 1-1 4.06-1.06"/><path fill="#0a0a08" d="M699 706h5c.29 7.43.29 7.43-2 11-1.43-2.35-2.09-3.48-1.62-6.25L701 709h-3z"/><path fill="#0f0f0d" d="M757 699h3q-.14 2.19-.31 4.38l-.18 2.46C759 708 759 708 756 710l-.06-4.94-.04-2.77c.1-2.29.1-2.29 1.1-3.29"/><path fill="#24231f" d="M646 712h3l-1 10-4-1c.88-7.87.88-7.87 2-9"/><path fill="#dfb227" d="M309 63c2.03 3.05 2.25 3.6 2.2 7.01l-.02 2.3-.06 2.38-.02 2.41-.1 5.9h-1l-1-6h-1c-.18-3.95-.1-6.6 2-10l-2-1z"/><path fill="#12100e" d="M332 923a29 29 0 0 1-5 9l-3-2c1.52-3.68 3.68-7 8-7"/><path fill="#a89b82" d="m639 745-13 5-1-2-2-1q2.87-.8 5.75-1.56l3.23-.88C635 744 635 744 639 745"/><path fill="#ab9d86" d="m620 661 1 3 2.13-.19c3.52.23 5.81 1.48 8.87 3.19v2c-3.72-.5-6.73-1.12-10-3l-2 3z"/><path fill="#272621" d="M617 398h14v1h-7v3l-7-1z"/><path fill="#23221e" d="M746 711h1l1 7-7-1-1 3-3-2 2-4 7 2z"/><path fill="#c1b399" d="M774 619h7v2h12v1l-21 1v-1l6-1z"/><path fill="#100f0c" d="M770 576c-.31 1.88-.31 1.88-1 4-3 2-3 2-6 2 .38-2.44.38-2.44 1-5 2-1 2-1 6-1"/><path fill="#413f36" d="m803.85 565.9 6.15.1v1h-7v2l13 1v1h-14l-1-4c1-1 1-1 2.85-1.1"/><path fill="#ded8c8" d="M814 535h12v3l-3 1v-2h-9z"/><path fill="#e3dac4" d="M648 716h4c1 3 1 3 0 6h-2l-2 4c-1.24-3.58-.75-6.34 0-10"/><path fill="#ebbf2d" d="m822 100 1 3c-2.6 4.8-5.76 7.73-10 11l-2-2 3.25-2.06c3.94-2.78 5.65-5.65 7.75-9.94"/><path fill="#9e8f77" d="M658 778c1.03 3.1.97 4.53.56 7.69l-.3 2.45L658 790l-4-1 1.44-4.94.8-2.77C657 779 657 779 658 778"/><path fill="#dfd9c6" d="M697 710h3c.08 4.16-.02 7.95-1 12-2.14-3.2-2.23-4.02-2.12-7.69l.05-2.45z"/><path fill="#6d604c" d="M728 670h3c-.18 2.38-.7 3.7-2.4 5.38q-2.26 1.85-4.6 3.62c.52-3.78 1.33-6.22 4-9"/><path fill="#e4d8bf" d="M604 752c.3.1.3.1 1.88.56C608 753 608 753 610 752l3 2-2 3c-2.5.31-2.5.31-5 0l-2-2z"/><path fill="#d6cfbb" d="M753 703h1c1.04 5.05 1.1 9.87 1 15h-1l-.37-2.37C753 713 753 713 751 711c-.38-3.73-.15-4.78 2-8"/><path fill="#dcd7c9" d="m732 709 1 4h2l1-2 .88 3.38C738 718 738 718 740 720c-3.85-.77-5.24-2.24-8-5-.12-3.12-.12-3.12 0-6"/><path fill="#ebe6d5" d="m757 734 2 1q.12 2.38.19 4.75l.1 2.67c-.34 3.03-1.3 4.34-3.29 6.58-.1-5.13-.04-9.95 1-15"/><path fill="#181715" d="M709 597c2.15 3.23 2.2 4.28 2 8l-5-1c1.88-4.75 1.88-4.75 3-7"/><path fill="#e1ddcc" d="M678 714c1.35 2.7 1 5 1 8l1 3-4-1c-.25-6.62-.25-6.62 2-10"/><path fill="#b1a187" d="m810 719-1 2c-2.5.41-2.5.41-5.56.63l-3.07.22-2.37.15c3.73-3.73 6.97-4.44 12-3"/><path fill="#d8ac26" d="m656 479-3 7h-1v-5l-4-1c4.63-2.12 4.63-2.12 8-1"/><path fill="#48453d" d="M617 397v3l3 2c-3.47-.46-6.67-.9-10-2v-2c2.5-.69 4.38-1 7-1"/><path fill="#12110e" d="M420 165h8l-1 3c-4.75 1.13-4.75 1.13-7 0z"/><path fill="#201e1a" d="m652 725 2 1-2 6h-3c.75-4.75.75-4.75 3-7"/><path fill="#948b7b" d="M658 496c2.25 2.05 3 3 4 6l-6 1z"/><path fill="#d6d3c9" d="m396 311 2 1-4 8-1-2-2-1 2-3h2z"/><path fill="#181613" d="M414 188h6l-1 5-5-2z"/><path fill="#e7bb2a" d="m765 64 1 2c-1 2.38-1 2.38-2.44 5.13l-1.43 2.75L761 76h-2c1.32-4.62 3.21-8.1 6-12"/><path fill="#090807" d="M678 709h6l1 2-1 2h-6z"/><path fill="#ac9e86" d="m709.25 626.38 2.7.9 2.05.72v1c-9.41-.96-9.41-.96-14-2 3.53-2.3 5.34-1.96 9.25-.62"/><path fill="#99907f" d="m831 591 2 2-1.44 1.13c-2.08 2.5-2.2 4.69-2.56 7.87h-2c.44-4.56.85-7.58 4-11"/><path fill="#0c0c0a" d="M724 573h7l1 3h-8z"/><path fill="#171613" d="m310 918-1 3-4 2a141 141 0 0 0-5 5c1.28-4.5 4.77-10 10-10"/><path fill="#151411" d="m764 713 5 1v2l2 1h-7z"/><path fill="#f5f0e1" d="m725.63 705.88 2.37.12v4l-5 1v-2l-2-1c2-2 2-2 4.63-2.12"/><path fill="#272521" d="m802 695-3 2 1 2-4 2-2-3c2.47-3.12 4.1-3.32 8-3"/><path fill="#12110f" d="m739 579 5 2v2l-5 1c-.56-1.94-.56-1.94-1-4z"/><path fill="#70500c" d="M427 487c4.71 1.57 7.3 4.94 10 9-3 0-3 0-4.82-1.71l-1.87-2.23-1.88-2.21C427 488 427 488 427 487"/><path fill="#eae8e0" d="M757 413c0 3 0 3-1.53 4.6l-1.97 1.59-1.97 1.6L750 422l-2-1z"/><path fill="#c3beb0" d="M700 753v6l-2 1v-5h-5c3-2 3-2 7-2"/><path fill="#d1cbb8" d="M782 708h3l-1 5-4-1z"/><path fill="#050505" d="M738 708h2c.19 2.88.19 2.88 0 6l-3 2q-.06-3.5 0-7z"/><path fill="#d5cfbf" d="m789 699 1 2h2l1-2-1 8h-3z"/><path fill="#1d1c18" d="m787 696 3 1-1 5-3 1q-.06-3 0-6z"/><path fill="#392b05" d="M453 509c4.88 1.75 4.88 1.75 6 4l-2 2-6-4z"/><path fill="#e7b924" d="m674 496-5 5-2-5c3.13-1.04 3.99-.93 7 0"/><path fill="#facd38" d="M696 470c2.63-.19 2.63-.19 5 0v2l2 1h-9z"/><path fill="#e7bd2b" d="M783 129c1 3 1 3 .22 4.82L780 139h-2c1.16-3.91 2.36-6.87 5-10"/><path fill="#2e2c27" d="M709 735v3l-2.37.31C704 739 704 739 702 742c.38-2.94.38-2.94 1-6 2-1 2-1 6-1"/><path fill="#e5deca" d="m670 715 2 1c.37 5.54.37 5.54-1.5 7.88L669 725c-.12-7.75-.12-7.75 1-10"/><path fill="#dbd7c5" d="m728 714-1 5h-4l-1-4c2.08-.55 3.84-1 6-1"/><path fill="#e6decd" d="M742 659c1 3 1 3-.25 5.56C740 667 740 667 737 669c.61-4 2.7-6.74 5-10"/><path fill="#ddb331" d="M581 539h1l1 10-3 2z"/><path fill="#dfae27" d="M679 471c2.1 2.36 2.97 3.55 3.19 6.75L682 480l-2 1-1.06-4.44-.6-2.5L678 472z"/><path fill="#171512" d="M410 282c.93 2.6 1.15 3.64.06 6.25L409 290l-3-1z"/><path fill="#100f0c" d="M741 717c2.38-.19 2.38-.19 5 0l2 3h-7z"/><path fill="#a7977c" d="M646 674c3.3.33 4.62.62 7 3-2.79 1.03-3.87 1.05-6.75.06L644 676z"/><path fill="#a39989" d="M112 668h1v11l-2-1c-1.33-4-.82-6.26 1-10"/><path fill="#cfa31a" d="M700 515c1.46 2.65 2 3.9 2 7h-7l4-1z"/><path fill="#383630" d="m607 394 7 3c-1.81 1.06-1.81 1.06-4 2l-3-1z"/><path fill="#9a8d74" d="M625 748v2l-8 1v-2c2.9-.83 4.89-1 8-1"/><path fill="#f9f4e1" d="M751 711h3v7l-3-1z"/><path fill="#f2ecd8" d="M745 710h1v6l-5-1 2-1v-2h2z"/><path fill="#141310" d="M655 712h4v2h-2l-2 4c-1.12-3.75-1.12-3.75 0-6"/><path fill="#201f1c" d="M676 710h2l-1 7-3-4z"/><path fill="#2f2d28" d="m766 698 6 2c-3.09 1.76-4.23 2-8 2z"/><path fill="#9d8c70" d="m640 671 6 2v2l-6-1z"/><path fill="#99896c" d="M689 618c1.88.31 1.88.31 4 1l2 3h-4z"/><path fill="#ac9e86" d="m804 587 2 1-8 5-2-2q1.93-1.05 3.88-2.06l2.17-1.16z"/><path fill="#edece7" d="m792 90 2 1c-1.31 1.5-1.31 1.5-3 3h-3v2l-2-1c2.63-3.87 2.63-3.87 6-5"/></svg>