<svg xmlns="http://www.w3.org/2000/svg" width="1024" height="1024"><path fill="#0a0908" d="M330.44 35.93q3.92 1.98 7.76 4.1 2.56 1.37 5.15 2.68C375.73 59.46 406.95 85.97 429 115l1.87 2.38C435 122.7 435 122.7 435 125l2.81-1.5C441 122 441 122 444 122l.84-2.19C448.97 109.78 455.12 101.3 462 93l1.3-1.57c8.65-10.26 22.23-25.1 36.14-26.87C502 65 502 65 504 67c1.04 8.32-.64 16.06-3 24l2.57-1.54c12.53-7.4 25.73-14.84 40.62-14.77l2.11-.05c3.12 0 5.39.2 8.17 1.63C556 78 556 78 556.45 79.87c-.78 8.23-5.73 14.4-11.45 20.13l2.86.15c7.24.42 14.23 1.04 21.36 2.45 3.48.5 6.27.9 9.78.4a34 34 0 0 0 4.38-6.81q1.13-2.08 2.3-4.15l1.16-2.08C589.66 85.2 593.32 81.1 597 77l1.82-2.07C613.22 59.54 632.1 50.9 652 45l3.1-.97c15.93-4.55 28.77-1.85 42.93 5.79a96 96 0 0 1 6.79 4.57c4.9 3.48 9.95 6.4 15.24 9.24l2.83 1.52a802 802 0 0 0 19.04 9.94l6.33 3.2c11 5.6 24.1 12.82 29.18 24.65 3.25 10.11 3.03 22.91-1.63 32.5-5.12 9.32-11.12 14.48-21.2 17.83a44 44 0 0 1-12.47 1.83l-2.69-.01-2.76-.03-2.82-.01L727 155l-.26 2.68c-1.87 16.48-6.4 35-15.51 49.05C710 209 710 209 710 210.95c5.86 12.12 19.22 20.09 31.38 24.32 5.2 1.45 10.09 1.84 15.47 1.76l3.88-.04q3.03-.03 6.05-.09l5.88-.06 3.54-.05c2.8.21 2.8.21 4.8 2.21-.17 5.93-2.14 9.37-5.56 13.94l-1.29 1.78L771 259l3.76 1.2 7.4 2.4c8.92 2.93 8.92 2.93 11.84 5.4 1.3 3.66 1.21 5.44-.15 9.08-6.8 12.07-15.45 21.86-24.85 31.92 2.41 2.41 4.95 3.5 8 5 1 1 1 1 1.33 3.18-.45 3.8-2.3 6.02-4.64 8.88l-1.36 1.71c-4.02 5-8.3 9.74-12.7 14.41q-3.48 3.75-6.82 7.63c-4.1 4.57-8.48 8.8-12.93 13l-2.03 1.93c-4.08 3.8-8.25 7.12-12.85 10.26l3.04.3c28.25 2.99 28.25 2.99 36.96 11.7-.87 12.37-11.42 22.69-20 31-7.4 6.4-17.07 13.25-27.25 13.31L715 431l1.29 1.4C730 447.65 730 447.65 730 456c-1.81 1.81-4.61 1.38-7.06 1.56l-3.35.26-2.59.18q4.34 4.42 8.69 8.81l2.47 2.53 2.41 2.43 2.21 2.24A38 38 0 0 0 740 479l4.56-6.62 1.48-2.15q5.26-7.66 10.5-15.36c19.96-29.37 19.96-29.37 27.84-38.8a46 46 0 0 0 6.43-11.32c5.45-12.37 13.6-20.68 26.19-25.75 5.27-1.8 9.82-2.28 15.31-2.19h2.17c5.24.05 5.24.05 7.52 1.19 13.19 1.07 22.98-.76 35-6 7.54-2.77 14.53-4.6 22.31-1.81A21.6 21.6 0 0 1 907 379c.82 7.09-.15 12.95-4 19a46 46 0 0 1-10 9h-3v2c9.46 2.3 18.87 4.25 28.52 5.53l2.7.35q5.45.72 10.92 1.4c28.2 3.52 28.2 3.52 37.74 14.97 1.63 3.99 1.78 7.5 1.12 11.75-1.69 3.5-1.69 3.5-2.8 5.18-1.36 2.06-2.4 4.19-3.51 6.38-4.9 8.7-12.32 12.5-21.69 15.44-3.17.56-6.34.95-9.54 1.34-3.93.75-7.46 2.1-11.15 3.6-25.77 10.15-57.03 8.4-83.31 1.06l-.31 3.75c-.66 5.89-2.13 11.48-3.69 17.19l-.93 3.42c-9.07 32.54-22.2 79.52-53.99 97.64-7.98 3.82-15.31 4.4-24.08 4l.56 2.94.44 3.06c-1 1-1 1-4.94 1.25-23.08-.4-46.32-21.07-61.48-36.6L689 571c.92 9.02 1.94 18 3.44 26.94a502 502 0 0 1 3.52 25.87c.74 6.8 1.16 13.53 1.32 20.36.76 29.33.76 29.33 10.22 40.83 3.07 4.1 5.35 8.68 7.75 13.19l1.64 3.06c21.86 41.07 44.29 87.22 30.49 134.72-1.04 3.37-2.2 6.7-3.38 10.03l-.67 1.9c-3.71 10.36-8.75 19.66-14.33 29.1l1.9.04c24.75.64 47.94 4.64 66.71 22.38 9.57 10.34 16.92 22.8 16.66 37.24-.67 5.8-3.33 9.9-7.83 13.53-4.84 3.3-10.02 5.64-15.44 7.81l-2.7 1.1c-44.64 16.45-106.61 7.3-149.12-12-17.39-8.29-17.39-8.29-20.58-16.82-2.25-8.58 0-17.7 1.84-26.15l.7-3.34L623 892l.56-2.5c.84-4.81.62-9.7.63-14.56l.03-3.24c.05-22.49-7.28-41.93-22.22-58.7l-2.01-2.26c-10.42-11.03-27.72-24.58-43.55-25.05-25.91.3-52.2 13.4-70.1 31.54-17.4 18.32-26.55 41.32-26.59 66.4v2.1c-.02 9.97.75 19.49 2.56 29.3 1.3 7.06 2.41 14.7-1.19 21.22-1.43 1.87-1.43 1.87-3.12 3.75l-1.75 2.1c-18.47 19.25-52.3 25.83-77.5 30.4q-3.78.7-7.54 1.47c-10.66 2.02-21.27 2.32-32.08 2.34l-2.11.01c-18.35.05-42.95-1.33-57.28-14.38-5.86-6.48-6.25-12.28-6.08-20.73.73-13.54 10.86-27.1 20.34-36.21 16.22-13.94 36.27-23.3 57.88-23.06l2.37.01 5.75.05-1.5-2.32c-6.52-10.28-12.38-20.83-15.5-32.68l-3.45 1.76c-44.65 22.23-96.67 23.86-143.8 8.43-32.01-10.97-65.03-29.17-85.55-56.72-1.2-2.47-1.2-2.47-1.2-5.16 1-2.31 1-2.31 3.56-3.62L115 791l-2.68-2.57c-29.7-28.87-48.77-65.07-49.57-107.02q-.05-4.65-.06-9.28l-.01-2.24c-.09-33 9.8-63.3 33.07-87.2A95 95 0 0 1 117 567l2.66-1.48c22.24-11.16 49.79-12 73.34-4.52 6.2 2.25 12.1 5.04 18 8l3.07 1.46c30.17 15.2 48.06 44.3 63.46 72.95 15.1 28 32.15 50.94 63.31 61.68 5.73 1.65 11.1 2.05 17.04 1.97L365 707c3.45-11.27 6-22.65 8.38-34.19l.58-2.83c5.14-24.73 9.62-49.58 12.75-74.65l.91-7.04c1.5-11.47 1.5-11.47 1.38-16.29l-1.21 1.62A227 227 0 0 1 373 591l-2.3 2.47c-13.54 14.02-35.47 33.17-55.7 34.53l-2-2c.38-3.13.38-3.13 1-6l-3.52-.04c-15.26-.38-25.5-4.26-37.48-13.96l-2.45-1.92c-26.55-22.13-44.85-64.1-48.3-98.08q-.15-2-.25-4l-2.76.95C187.65 513.55 153.6 515.8 123 501l-3-2.16c-3.53-2.16-5.65-2.3-9.75-2.34-8.2-.37-16.49-2.21-22.25-8.5-.8-1.99-1.46-4-2.12-6.04-1.48-3.29-4.05-4.8-6.88-6.96-2.3-3.04-2.43-6.2-2.3-9.98.76-5.04 4.15-8.09 7.92-11.14 8.85-6.13 18.4-7.85 28.88-9.44l4.03-.65q8.4-1.35 16.83-2.56a120 120 0 0 0 26.26-7.02C164 433 164 433 167 433v-2l-2.12-.25c-8.12-2.12-13.38-8.96-17.82-15.69-1.64-4.73-2.08-9.27-.33-14.05 2.42-4.6 5.65-7.7 10.27-10.01 10.6-1.7 17.82.53 27.38 5 12.08 5.52 22.74 5.86 35.74 5.24 15.03-.69 26.7 2.07 38.07 12.26 4.25 4.45 6.7 9.7 9.27 15.23 2.3 4.89 4.58 8.53 8.54 12.2a125 125 0 0 1 11.55 13.34q5.7 7.37 11.64 14.54l1.8 2.19c3.8 4.6 7.68 9.08 11.75 13.43C314 486 314 486 314 488h2l.71-2.46c1.57-4.3 3.62-8.13 5.85-12.1l1.33-2.38c3.96-7 8.37-13.57 13.11-20.06h-13c0-10.86 7.34-17.7 14.65-25.03A46 46 0 0 1 348 419l-2.91-.96C296.27 401.91 296.27 401.91 291 395c-.62-2.37-.62-2.37 0-5 2.14-2 4.51-3.48 7-5l3-2-1.72-.78C261.98 365.3 261.98 365.3 255 351c-.46-2.6-.46-2.6 0-5 1.8-1.8 1.8-1.8 4.31-3.44l2.74-1.78C274.93 333 274.93 333 278 333v-2l-2.2-.34c-9.57-2.25-19.45-10.63-24.8-18.66.32-3.32.6-4.6 3-7 2.57-.49 5.1-.89 7.69-1.25 16.57-2.64 31.4-9.31 41.62-23.06 3.07-4.5 5.69-9.17 8.19-14l1.1-2.07c1.38-2.76 2.4-5.04 2.42-8.15-1.47-3.56-3.64-6.58-5.83-9.72C291.94 220.97 281.9 191 275 161l-.64-2.72c-7.87-34.43-15.88-89.84 3.45-121.4 13.01-17.5 36.28-8.85 52.63-.95"/><path fill="#ada391" d="M895 377c3.84 2.39 3.84 2.39 4.53 5.02-.07 5.41-.8 9.8-4.53 13.98-6.68 5.68-14.4 8.61-23 10 1 3 1 3 3.53 4.43 18.78 7.96 37.9 11.48 58.1 13.63 10.6 1.15 18.6 2.43 27.37 8.94 2.29 3.44 2.18 4.99 2 9-3 0-3 0-5-1.75-6.35-4.76-14.96-7.37-22.9-7.38h-5.91l-3.1.01c-8.07.05-16.06.4-24.09 1.12v2l3.09.06a2801 2801 0 0 1 16.35.36l9.32.2c9.15.26 17.37 2.73 24.74 8.25 1.5 2.13 1.5 2.13 2.13 5.07-.73 3.55-2 4.84-4.91 6.95-6.61 4.26-6.61 4.26-10.1 3.8L941 460l.25-2.62c-.32-4.35-1.4-6.1-4.25-9.38-5.93-3.76-11.39-5.2-18.37-5.19h-2.17c-5.55.05-10.82.78-16.29 1.74A68 68 0 0 1 878 444c.69 1.94.69 1.94 2 4 3.8 1.08 7.5 1.13 11.44 1.13h3.3c3.26-.13 3.26-.13 5.95-.62 4.95-.76 9.87-.73 14.87-.76l3.12-.06c9.48-.05 9.48-.05 13.32 3.31 2.18 3.27 2.72 4.2 2 8-7.8 8.92-21.88 11.05-33 13l-3.05.56c-25.83 2.86-53.12.21-76.1-12.68C820 459 820 459 817 459c1.46 3.6 3.35 5.32 6.44 7.63l2.37 1.78q2.56 1.85 5.19 3.59c-2.53 34.76-19.4 82.11-43 108l-1.73 1.98c-6.67 7.18-15.37 11.87-25.2 12.52-7.62-.08-14.26-3.41-21.07-6.5l1.4 3.32.78 1.86c1.08 2.4 2.41 4.6 3.82 6.82-4.52-.6-8.17-2.42-12.12-4.56l-2.01-1.08c-6-3.31-11.49-7.12-16.87-11.36l-2.6-2.01a286 286 0 0 1-16.34-14.24l-1.93-1.79c-5.93-5.55-9.53-9.47-10.57-17.77l-1.12-7.45c-2.01-12.52-4.6-25-8.57-37.05l-.73-2.25c-1.23-3.55-2.38-5.92-5.14-8.44l.25 1.65 3.6 23.64a2949 2949 0 0 1 5.97 40.45c4.08 28.47 8.02 57.03 10.43 85.7l.25 2.82c.34 4.25.52 8.43.41 12.7-.2 13 4.26 20.68 11.37 31.36 2.99 4.65 5.6 9.5 8.22 14.37l1.63 3.03c20.73 38.92 41.15 81.86 28.17 126.7-7.1 23.04-16.73 45.03-38.63 56.87A16.4 16.4 0 0 0 694 897a350 350 0 0 0 21.52-8.1c7.33-2.65 13.92-3.26 21.67-3.21l3.09.01c7.58.12 14.5.89 21.72 3.3l3.25 1.03c16.64 5.8 29.37 16.34 37.47 31.99A29.7 29.7 0 0 1 805 938c-2.35 5.09-5.3 7.06-10.2 9.34-1.8.66-1.8.66-3.8.66l-.19-3.75c-1.15-10.15-6-20.56-14.02-27.04-3.92-2.75-7-4.48-11.79-5.21l2 1.94c15.8 15.92 15.8 15.92 16.1 26.42l-.04 3.83-.02 3.85L783 951c-9.14 3.24-17.26 5.3-27 5l-.19-3.69c-1.35-11.45-6.2-20.67-14.81-28.31-2.99-1.96-5.48-3.35-9-4a11.3 11.3 0 0 0 4.35 5.8c2.82 2.34 4.42 4.53 6.34 7.64l1.76 2.8c2.85 5.07 3.8 8.71 3.67 14.57l-.05 3.52L748 957c-18.9.38-37.26-.08-56-3l-2.53-.39c-19.28-3.13-50.11-8.98-62.47-25.61-1.36-7.3.8-14.84 2.44-21.94 6.49-28.4 5.88-57.62-8.78-83.44A109 109 0 0 0 611 810l-2.05-2.5c-9.52-11.16-21.16-18.63-33.95-25.5v-1l1.99-.34 8.88-1.53 3.13-.53 3-.53 2.75-.48C597 777 597 777 599 775c-41.83-1.33-85.38 4.9-116.95 34.5-17.23 16.73-30.67 41.52-31.35 65.86q-.03 3.48-.01 6.95v3.71c.1 9.35 1.13 18.3 2.63 27.51 2.11 13.14 2.11 13.14-.34 18.85-5.16 6.84-11.74 11.01-19.42 14.56l-2.73 1.27c-18.1 8.19-37.34 13.2-56.83 16.79l-2.15.4c-10.6 1.88-21.13 1.8-31.85 1.6-.51-13.57 2.6-24.16 11.81-34.5l1.77-1.84C355 929 355 929 356 926c-9.53 4.2-16.3 11.56-20.26 21.22-1.72 6.44-2.16 13.16-2.74 19.78-10.05.38-19.3.03-29-3-2.77-2.77-2.36-4.5-2.44-8.37.2-11.65 4.95-20.02 12.44-28.63l1.78-2.1q2.1-2.47 4.22-4.9c-10.5 3.72-16.89 11.21-22 20.9-2.65 6.06-2.71 12.57-3 19.1-3.75-.53-5.92-1.36-8.75-3.87l-1.8-1.56c-2.8-3.02-2.91-6.73-2.85-10.71 1.52-10.78 7.1-20.03 14.4-27.86l1.8-2.07c12.17-13.27 32.27-23.2 50.2-24.21 14.55-.48 27.6 2.65 41 8.28l5.81 2.31L399 902v-3l-1.95-.71c-10.37-4.38-21.77-9.65-28.05-19.29l-2.15-3.05c-17.54-25.4-23.75-56.68-19.03-87.15 4.4-23 13.87-45.58 21.88-67.53 3.9-10.72 7.34-21.47 9.68-32.64l.62-2.94c2.7-12.84 5.21-25.72 7.61-38.63l1.16-6.12c4.52-23.92 7.33-47.93 9.75-72.14l.25-2.38.45-5.1.22-2.65.2-2.38c.66-4.16 2.66-7.67 4.61-11.35 5.89-11.76 10.12-23.69 10.75-36.94h-2l-1.09 3.61c-2.26 6.78-5.42 13.16-8.54 19.58l-.94 1.95c-4.56 9.4-9.28 18.4-15.43 26.86l-2.23 3.14a185 185 0 0 1-13.66 16.56 188 188 0 0 0-5.49 6.3c-10.36 11.8-25.13 24.53-39.62 31l-2-1 3.13-5.27C328 609 328 609 328 607l-4.81 1.44-2.71.8q-2.75.84-5.48 1.76c-13.42 1.16-23.48-1.45-33.99-10.26L279 599l-1.8-1.4c-9.88-7.85-16.79-18.88-23.2-29.6l-2.03-3.38C243.2 549.36 237.24 532.04 233 515l-.93-3.59c-2.57-10.33-2.57-10.33-1.07-13.41 2.7-2.18 5.54-4 8.43-5.9 2.75-2.25 3.6-3.74 4.57-7.1-5.09-.6-8.48 1.48-12.81 3.81-26.46 14-61.37 19.28-90.3 10.56-17.31-5.55-17.31-5.55-21.89-11.37-.81-3.62-.81-3.62 0-7 3.9-4.13 8.06-5.86 13.67-6.27l4.08.02 2.17.01c3.66.06 7.05.28 10.58 1.24 4.2 1.13 8.36 1.26 12.69 1.31l2.05.06c4.65 0 7.82-.92 11.76-3.37l1-2-3.81.5c-7.35.8-14.36.94-21.63-.5a100 100 0 0 0-16.81-1.37l-2.54-.08c-6.54-.02-11.75 1.48-16.77 5.8-3.37 3.6-4.15 6.82-4.44 11.65-5.99.5-9.92-.8-15-4-2-2-2-2-2.56-5.25.69-4.6 1.96-5.75 5.56-8.46 7.7-4.96 15.7-5.4 24.56-5.6l2.39-.07 12.6-.31L151 464l-1-2c-8.26-1.68-17.17-1.22-25.56-1.25l-3.79-.06c-11.42-.05-21.86 1.78-30.37 9.97L89 472l-3-1c-.97-3.48-1.37-5.29.31-8.56 9.3-8.44 21.3-9.22 33.22-10.95 22.08-3.25 40.66-8.03 60.47-18.49l2-1v-3l-3.25-.92c-15.9-4.62-15.9-4.62-22.12-11.83-2.06-4.12-3.05-7.63-2.63-12.25 1.56-3.06 1.56-3.06 5-5 9.66-1.98 17 .72 25.52 4.98 10.27 5.13 19.72 5.24 31.04 5.02 14.43-.28 26.36.6 37.48 10.74a51 51 0 0 1 9.93 18.46c1.13 3.07 2.03 4.05 4.6 5.99 4.71 3.89 8.33 8.36 12.1 13.14q3.84 4.79 7.7 9.55l1.68 2.06a592 592 0 0 0 20.39 24c7.77 8.59 15.41 17.21 22.19 26.62l1.25 1.73A38 38 0 0 1 338 531h3c-3.66-12.11-8.94-22.7-17.62-32.06-2.38-2.94-2.38-2.94-2.2-5.28a42 42 0 0 1 3.63-8.12l1.75-3.16 1.88-3.32 1.9-3.4c5.04-8.8 10.27-17.65 17.08-25.24A76 76 0 0 0 351 446l-1-3-14-1c4.93-8.74 14.47-17.63 24-21 3.91-.09 7.28.86 11 2l3.39.94q3.57 1 7.11 2.08c3.5.98 3.5.98 6.81 1.52 7.69 1.29 7.69 1.29 10.6 4.7q1.69 2.82 3.24 5.7c3.9 6.44 9.9 11.4 15.44 16.4 2.9 3.2 4.5 6.4 6.29 10.29 9.04 18.74 22.5 36.32 37.51 50.76a91 91 0 0 1 5.05 5.61 82 82 0 0 0 9.2 8.96q3.57 3.12 7 6.35c10.04 9.39 20.77 17.84 31.6 26.3l5.03 3.97a1870 1870 0 0 0 44.48 33.97l1.7 1.25a68 68 0 0 1 4.17 3.6c2.38 1.6 2.38 1.6 4.91 1.62 3.07-1.27 4.7-2.86 6.97-5.27l2.22-2.33L586 597q3.87-3.9 7.8-7.73A211 211 0 0 0 612 569l2.8-3.4A284 284 0 0 0 656 498l.92-2.06a152 152 0 0 0 12.83-53.25c.46-7.9.46-7.9 3.45-10.89a46 46 0 0 1 7.8-2.8l2.25-2.37L685 425c13.66 1.24 24.37 11.3 32.85 21.28C720 449 720 449 720 450l-16 1c1.12 5.62 1.12 5.62 4.13 8.66l1.89 1.96 1.98 2 3.88 3.98c.28.3.28.3 1.74 1.76C719 471 719 471 720 474l4 2a162 162 0 0 1 5.75 5.13l1.54 1.41L735 486a101 101 0 0 1-5.5 11.69c-2.92 5.64-4.79 10.98-5.5 17.31 3.37-3.1 5.74-6.5 8.13-10.37 3.05-4.86 6.2-9.6 9.56-14.25q13.74-19.1 26.93-38.57 6.88-10.14 13.88-20.19l1.49-2.12a87 87 0 0 1 8.01-9.87c3.31-3.56 4.43-7.32 5.92-11.89 3.31-8.4 10.76-15.6 18.61-19.93 6.95-3 14.55-1.9 21.93-1.6 15.63.59 27.77-.04 41.94-7.24A22 22 0 0 1 895 377"/><path fill="#ada391" d="M495 76c.93 11.67-4.26 23.13-8 34a26.5 26.5 0 0 0 9.38-5.56C510.04 93.28 528.85 82.24 547 83c-4.42 9.57-12.1 16.35-20.03 23.09C525 108 525 108 524 111l3.06-.48c20-2.46 40.67-1.34 59.94 4.48l2.18.65c26.63 8.23 49.24 24.97 68.82 44.35l1.82 1.78a118 118 0 0 1 9.55 10.47c4.59 5.7 4.59 5.7 6.71 8.23a398 398 0 0 1 15.69 20.39c28.6 39.03 28.6 39.03 53.48 43.75 4.8.66 9.55.59 14.38.5l3.04-.02 7.33-.1c-1.81 5.78-5.8 9.17-9.98 13.38L758 261a18 18 0 0 0 1 4l1.85.41 8.34 1.9 2.9.65c4.78 1.1 8.88 2.1 12.91 5.04-3.95 13.96-19.48 29.46-31.23 37.53L752 312v3l15 3c-1.89 4.72-3.3 6.72-6.69 10.31a245 245 0 0 0-8.56 9.5A219 219 0 0 1 726 363l-1.6 1.34c-42.66 35.64-93.11 61.53-147.34 74.22l-2.91.69c-15.46 3.4-30.96 4.08-46.75 4.01q-4.35-.01-8.7.01c-11.7.01-23.1-.67-34.7-2.27l-3.29-.44c-23.39-3.3-46.36-8.72-69.33-14.12l-2.38-.56a735 735 0 0 1-34-8.88l-2.04-.58C325.13 402.8 325.13 402.8 304 393a30 30 0 0 1 9.06-5.06c3-1.13 5.24-2.14 7.94-3.94l1-3-1.97-.46c-7.62-1.9-14.43-4.78-21.47-8.23l-3.33-1.62C284.4 365.34 274.84 359.32 266 351c1.36-4.09 3.16-4.45 6.93-6.43l3.66-1.97 5.78-3.05 5.56-2.98 3.38-1.79c2.7-1.79 3.64-2.78 4.69-5.78l-3.25-.69A75 75 0 0 1 264 314v-2l2.94-.6C285.72 307.34 301 299.26 312 283c1.99-3.37 3.78-6.83 5.56-10.31l1.55-3a674 674 0 0 0 9.81-20.03c10.51-22.21 23.1-42.9 39.31-61.44C370 186 370 186 370 184l-12-6c4.52-4.52 4.52-4.52 8.56-5.75l2.32-.73C371 171 371 171 374 171c-2.38-6.07-5.56-11.47-9-17a62 62 0 0 1 18.46 7.9c3.1 1.35 4.38 1.26 7.54.1 2-1.53 2-1.53 4-3.5 12.68-11.74 28.08-20.05 43.87-26.8 11.07-4.74 11.07-4.74 13.82-10.51C458.84 109.29 479.5 76 495 76"/><path fill="#faedd0" d="M561.94 304.19h2.46c16.34.08 31.22 3.21 46.85 7.74q13.28 3.77 26.8 6.56l3.37.7 6.7 1.35c9.97 2.1 20.85 5.76 27.88 13.46 5.97 9.18 7.06 16.32 5.38 26.94-3.1 10.44-8.79 18.41-16.38 26.06q-1.19 1.27-2.44 2.56L660 392l-2 1.95c-34.31 32.34-84.22 45.26-130.25 45.3h-2.26A218 218 0 0 1 487 436l-2.37-.39c-23.54-3.92-52.14-11.24-68.63-29.61-4.33-6.4-4.7-12.4-4-20 2.83-11.94 11.27-20.44 21.36-26.86 8.5-5.13 17.67-8.93 26.84-12.7a280 280 0 0 0 47.74-25.25c17.2-11.26 33.46-17.2 54-17"/><path fill="#383430" d="M273.34 664.31c2.68-.4 4.13-.35 6.66.69a61 61 0 0 1 5.42 8.1c11.61 19.97 32.83 34.45 54.8 40.83 7.23 1.8 14.35 2.64 21.78 3.07a209 209 0 0 1-7.81 24c-8.8 23.4-15.39 44.71-15.31 69.88l-.02 3.89c.01 7.8.35 15.48 1.14 23.23-31.7 21.55-75.97 24.1-112.65 17.6-12.52-2.42-19.82-9.25-27.03-19.51-13.9-20.99-17.74-49.05-13.07-73.53A411 411 0 0 1 189 755l.74-3.58c6.7-29.36 26.7-57.6 52.13-73.73 10-6.14 20.22-10.07 31.47-13.38"/><path fill="#36322d" d="M496.67 207.95c16.5 13.91 23.86 33.55 28.33 54.05l.75 3.18c1.48 7.58 1.45 15.24 1.5 22.94l.03 3.33c-.06 14.37-.06 14.37-2.28 20.55-2.66 2.44-2.66 2.44-6.06 4l-3.83 1.91-2.04 1c-3.6 1.9-6.94 4.2-10.32 6.46-15.34 10.01-31.04 17.7-47.96 24.63-16.85 6.92-32.97 14.32-40.73 31.94-2.2 6.67-1.52 14.29-.06 21.06-6.12-.57-11.32-3.1-16.87-5.56l-3.1-1.37a409 409 0 0 1-23.21-11.13l-5.4-2.72A209 209 0 0 1 323 354l-2.8-2.3-2.82-2.39-2.54-2.13C313 345 313 345 312.46 342.57c.75-3.57 2.43-5.3 4.85-8l2.78-3.2 1.46-1.67c2.39-2.8 4.63-5.72 6.89-8.64 4.02-5.17 8.18-10.2 12.44-15.17 3.27-3.84 6.4-7.77 9.5-11.76a434 434 0 0 1 17.24-20.56q2.49-2.84 4.94-5.7C385.64 253.02 399.2 238.02 415 226l3.34-2.63c21.15-16.38 53.3-33.7 78.33-15.42"/><path fill="#fac227" d="M658 416c1.8 6.1-1.3 11.5-4 17-4.3 7.8-9.54 14.94-15.2 21.8a148 148 0 0 0-6.8 9.2c14.32-8.87 22.98-20.76 30-36h2c.57 15.38-1.25 30.3-6 45l-.67 2.08c-10.8 33.12-27.79 63.86-50.85 90.08a177 177 0 0 0-6.42 7.9c-7.55 9.34-16.5 17.54-25.06 25.94a29 29 0 0 1-8.76-4.77l-2.11-1.67-2.25-1.81a613 613 0 0 0-19.57-14.87 565 565 0 0 1-22.55-17.46q-3.49-2.8-7.02-5.5c-22.2-17.23-44.52-36.65-61.74-58.92l-2.63-3.26a269 269 0 0 1-14.06-18.99L433 469.8c-3-4.55-3-4.55-3-6.8a46 46 0 0 1 9.13 4.56 171 171 0 0 0 15.37 8.13l2.37 1.15c6.27 2.96 13.1 6.16 20.13 6.16l-1.73-.93c-42.12-22.58-42.12-22.58-59.46-38.38l-1.64-1.5A38 38 0 0 1 407 433a910 910 0 0 1 30 5.99 710 710 0 0 0 44.75 8.46c14.23 2.3 28.31 2.84 42.69 2.86l2.54.01c16.2.04 31.99-1.44 47.9-4.57l3.35-.66c27.94-5.68 54.12-16.9 79.77-29.09"/><path fill="#35322d" d="m621 192 2.23.75c28.92 9.86 55.1 26.23 79.1 44.95 2.57 2 5.18 3.92 7.8 5.86C740 266 740 266 753 279c-.23 5.74-2.1 9.74-4.94 14.56l-1.2 2.1C740.53 306.43 733 316.43 725 326l-1.39 1.66c-10.45 12.45-21.4 24.34-34.2 34.43a151 151 0 0 0-6.47 5.47C680 370 680 370 678 370l.66-2.46c2.92-11.61 4.16-20.1-1.84-30.88-7.54-11.05-22.5-13.92-34.88-16.29a520 520 0 0 1-26.95-6.13l-2.9-.74q-5.8-1.48-11.6-3a1302 1302 0 0 0-10.83-2.79 91 91 0 0 0-19.28-2.68c-2.76-.18-4.82-.48-6.83-2.44a36 36 0 0 1-5.05-9.4l-.77-2.12L557 289l-1.47-3.7c-8.23-22.2-10.21-48.99-1.07-71.16 5.62-11.46 13.75-19.31 25.54-24.14 12.17-3.63 29.18-2.06 41 2"/><path fill="#38342f" d="m258 625 1.55 2.95a1733 1733 0 0 0 17.14 31.74l1.35 2.45C279 664 279 664 279 665l-1.73.3c-27.7 5.1-50.73 21.01-66.99 43.82A159 159 0 0 0 200 727l-.98 1.93a119.3 119.3 0 0 0-7.29 87.44c4.7 13.92 12.48 24.64 23.27 34.63-3.25 1.08-3.96.96-7.1.03l-2.46-.72-2.63-.81-2.71-.83A184 184 0 0 1 176 839l-2-.93c-18.33-8.54-36.2-20.15-50-35.07 2.73-1.37 4.13-.36 6.91.52 3.67.84 7.35.63 11.09.48-5.54-5.73-11.36-11.57-18-16a60 60 0 0 1-1.69-7.62l-.38-2.4c-4.12-29.03 1.22-56.56 15.1-82.2q1.31-2.43 2.58-4.88c16.44-30.2 45.82-51.65 78.08-62.21 13.44-3.83 26.45-3.95 40.31-3.69"/><path fill="#ada392" d="M273.34 664.31c2.68-.4 4.13-.35 6.66.69a61 61 0 0 1 5.4 8.08c2.84 4.9 6.03 9 9.91 13.1l1.53 1.64a50 50 0 0 0 6.52 5.92L305 695v2l-2.71 1.47c-7.68 4.23-14.71 8.67-21.29 14.53l-2.3 2.05c-16.47 15.56-29.79 40.17-30.85 63.1q-.04 5.49-.04 10.98l-.03 3.8c-.04 22.81 7.38 42.17 22.99 58.89C273 854 273 854 276 856v2c-52.09 1.3-52.09 1.3-63.58-8.1-18.83-18.62-26.57-41.71-26.8-67.96A115 115 0 0 1 189 755l.74-3.58c6.7-29.36 26.7-57.6 52.13-73.73 10-6.14 20.22-10.07 31.47-13.38"/><path fill="#ada391" d="m213 592.81 3.45-.03c14.75-.03 14.75-.03 20.32 4.44l2.48 2.84 1.36 1.55C257 620.77 257 620.77 257 626l-3.78-.1c-34.88-.7-65.37 12.62-90.67 36.44C141.35 683.06 128.17 710 123 739l-.59 3.29c-.57 5.14-.6 10.23-.6 15.4v3.24c.04 6.44.36 12.5 1.75 18.8.48 2.47.51 4.76.44 7.27-14.36-12.02-25.12-26.26-34.86-42.18a97 97 0 0 0-2.94-4.38c-7.1-11.2-3.81-29.11-1.17-41.46 8.6-36.58 32.86-68.03 64.22-88.1 20.19-11.99 40.23-18.05 63.75-18.07"/><path fill="#ada392" d="M699.45 63.23c6 4.24 12.4 7.6 18.9 11q3.19 1.65 6.38 3.35 9.07 4.81 18.23 9.43c9.91 5 18.75 9.69 25.16 19.11 1.96 8.65 2.4 18.07-1.94 26.02L765 134l-2 3.25c-5.84 6.24-14 7.99-22.23 8.34-24.12.3-43.4-12.72-60.6-28.6a96 96 0 0 0-5.36-4.55c-3.67-3.18-6.68-6.74-9.81-10.44l-9.04-10.54-1.46-1.7q-1.59-1.87-3.14-3.75l-1.6-1.94-1.46-1.78C647 81 647 81 645 81a56 56 0 0 0 3 13l-1.72 1.29c-10.23 7.76-16.63 15.84-23.28 26.71-4.65-.6-8.4-2.59-12.5-4.75A174 174 0 0 0 589 108c6.28-17.14 21.01-32.56 37-41l1.77-.97c23.8-13.02 48.4-19.72 71.68-2.8"/><path fill="#ada391" d="M306 38a93 93 0 0 1 15 5l2 .83c28.55 12.14 54.3 31.14 76 53.17q3.6 3.64 7.29 7.18c4.97 4.8 9.48 9.78 13.77 15.2l1.45 1.8c2.27 2.91 3.76 5.21 4.49 8.82l-2.94 1.55a165 165 0 0 0-24 15.64C394.17 151 394.17 151 392 151l-.8-1.55A247 247 0 0 0 368 113l-2.29-3c-13.52-17.26-34.01-42.63-57-46.37-4.04-.12-6.16.02-9.65 2.24-4.84 7.34-4.39 16.67-4.31 25.2l.02 3.33c.1 8.22.6 16.25 1.88 24.37q.37 2.36.7 4.73c4.37 30.32 13.76 76.6 36.65 99.5-.4 3.02-1.64 5.45-3.07 8.1l-1.22 2.3-1.27 2.35-1.29 2.4L324 244c-14.53-6.52-23.56-38.55-28.95-52.45-10.13-26.72-16.18-56.03-16.22-84.66v-2.82l-.02-5.85q0-4.43-.03-8.84c-.12-37.04-.12-37.04 10.22-49.38 5.17-3.45 10.98-2.57 17-2"/><path fill="#36332e" d="M223 586c2.8 2.2 5.53 4.43 8 7v1l-2.6-.05c-31.51-.5-31.51-.5-44.4 3.05l-3.17.77c-34.5 9.34-62.55 34.81-80.36 65.08C88.15 684.35 84.38 705.47 83 730c-2.9-2.9-3.7-6.5-4.94-10.31l-.8-2.46c-10.64-33.02-9.65-72.3 5.88-103.72 4.34-8.26 9.57-15.6 15.86-22.51l1.77-1.98c11.87-12.6 27.65-19.34 44.23-23.02l2.34-.58c27.26-4.28 53.75 4.72 75.66 20.58"/><path fill="#faedd0" d="M306.44 68.31c18.24 1.3 35.88 21.62 47.15 34.5 2.82 3.36 5.48 6.83 8.07 10.37q1.38 1.87 2.78 3.73a228 228 0 0 1 17.37 26.97l1.62 2.9 1.46 2.71 1.31 2.42c.8 2.09.8 2.09-.2 5.09l-2.78-1.24C366.8 148.5 366.8 148.5 359 149c-.63 1.8-.63 1.8-1 4a70 70 0 0 0 4.94 6.63c5.06 6.15 5.06 6.15 5.06 8.37l-1.94.48c-6.01 1.62-10.2 3.62-15.06 7.52.18 1.83.18 1.83 1 4a26 26 0 0 0 5.06 2.75l2.79 1.3 2.15.95c-1.44 3.25-3.22 5.49-5.66 8.06-4.52 4.99-8.18 10.36-11.84 16l-1.91 2.91q-2.31 3.5-4.59 7.03c-3.49-3.35-5.91-6.85-8.25-11.06l-1.18-2.13c-4.53-8.33-8.16-16.97-11.57-25.81l-1.03-2.64C309.9 161.58 306.1 145.6 303 129l-.54-2.74c-2.36-12.05-2.76-24.01-2.83-36.26l-.03-2.3q-.02-3.25 0-6.51l.01-3.83c.6-5.16 1.56-8 6.83-9.05"/><path fill="#f9f9f9" d="M487 235c7.02 5.19 10.72 12.05 14 20l1.04 2.48c2.14 6.29 2.23 12.56 2.27 19.14l.02 2.68c-.14 12.4-3.51 24.52-12.23 33.7-8.22 7.85-15.87 10.63-27.2 10.55-6.25-.28-10.79-2.06-15.9-5.55l-2.81-1.81c-8.44-8.44-11.1-19.7-11.38-31.31.23-16.3 4.67-31.23 15.56-43.57 11.23-9.88 22.77-14.2 36.63-6.31m120.44-13.32c4.34 2.24 7.94 5.06 11.56 8.32l2.09 1.84c7.46 7 12.83 15.83 16.91 25.16l.9 1.93c3.38 8.28 3.9 19.79.48 28.13-1.13 2.05-1.13 2.05-2.38 3.94l-1.21 1.92c-4.02 5.45-9.32 8.34-15.79 10.08-14.46 1.5-24.44-1.6-35.87-10.45C574.8 284.3 569.02 269.2 568 257c-.66-12.23.76-22.5 9-32 8.66-8.48 19.76-7.74 30.44-3.32"/><path fill="#2d291f" d="M584.44 474.31c5.49 5.76 6.82 9.17 7.06 17.13-.24 7.52-1.18 12.26-6.55 17.6q-2.88 2.58-5.95 4.96c2.97 7.78 13.87 11.64 21 15-1.52 4.43-3.93 8.03-6.62 11.81l-1.28 1.81L589 547c-12.53-1.48-24.62-15.56-33-24l.44 3.44.56 4.56.29 2.25c.6 4.96.8 9.76.71 14.75a45 45 0 0 1-13.25 2.75l-3.7.3C538 551 538 551 536 549c-.56-2.72-.56-2.72-1-6.29l-.24-1.98c-1.12-9.37-2-18.77-2.88-28.17L530 493l-6 1c-3.57-5.36-3.12-10.77-3-17 18.2-8.23 45.9-15.8 63.44-2.69"/><path fill="#aca291" d="m344.19 714.44 2.81.77c4.92 1.3 9.94 1.43 15 1.79a209 209 0 0 1-7.81 24c-8.97 23.86-15.03 45.58-15.75 71.13L338 827c-13.89-13.67-20.92-32.48-21.35-51.76-.15-20.05 4.37-36.27 15.35-53.24l1.62-2.6c3.19-4.44 5.04-6 10.57-4.96"/><path fill="#f8ebcf" d="M651 98q5.6 5.56 10.94 11.38l1.61 1.74a167 167 0 0 1 7.51 8.63c4.72 5.6 10.88 10.13 16.87 14.29l2.76 1.96 2.5 1.69c2.83 3.62 2.3 6.87 1.81 11.31-.62 4.06-1.44 8.05-2.31 12.06l-.65 3.15A96 96 0 0 1 687 181c-3.62-1.2-4.35-2.43-6.62-5.44-6.62-8.47-13.9-16.17-21.44-23.81l-2-2.04a88 88 0 0 0-12.47-10.47L643 138v-2l1.93-.8 2.5-1.07 2.5-1.06C652 132 652 132 653 130l-3.95.36-5.17.39-2.6.25c-5.86.4-8.76-.18-13.28-4 1.44-10.86 12.25-19.9 20-27z"/><path fill="#070706" d="m571.19 317.56 2.28-.03c5.97.1 12.48 1.02 17.25 4.86 1.8 2.28 1.88 4.4 1.74 7.25-2.17 11.1-12.52 22.3-21.65 28.55-6.1 3.28-10.91 3.31-17.43 1.44-10.43-3.82-22.82-10.83-28.56-20.64-1.25-3.03-.79-4.9.18-7.99 10.42-11.46 31.64-13.31 46.19-13.44"/><path fill="#f6c026" d="M756 390c-1.78 10.46-13.36 20.78-21.47 26.85-9.18 5.9-19.63 8.67-30.53 7.15-5.04-1.58-10.21-3.21-14-7 2.55-3.83 5.4-4.5 9.56-5.94l4.35-1.56 2.13-.77c3.74-1.4 7.34-3.05 10.96-4.73-7.08-.48-12.56.86-19.28 3.13-2.72.87-2.72.87-4.72.87-.65-3.5-.78-6.5 0-10 15.15-19.13 43.23-17.88 63-8"/><path fill="#100f0d" d="M635 360c2.61 1.44 3.94 2.73 6 5v4c-4.75-.87-4.75-.87-7-2-3.37-.37-3.37-.37-7 0-2.29 2.15-3.7 4.52-5.36 7.16-3.68 5.69-6.94 10.6-13.64 12.84-6.44.53-10.03-.52-15.44-3.94l-1.89-1.13c-4.4-2.65-4.4-2.65-5.67-3.93-6.34-.8-9.64.43-14.78 4.15-2.97 2.47-5.57 5.23-8.24 8.02a27.4 27.4 0 0 1-16.23 7.1c-4.33-.31-6.93-1.5-10.75-3.52l-1.86-.97a148 148 0 0 1-9.14-5.22c-3.47-1.8-5.13-1.93-9-1.56-2.93 1.4-2.93 1.4-5.87 3.25l-3.17 1.93L503 393c-5.54 3.36-10.44 5.46-17 4-6.5-3.04-10.25-8.7-14.14-14.51-2.91-3.9-4.78-5.31-9.61-6.12-4.7.18-7.2 2.51-10.5 5.67a39 39 0 0 0-4.06 5.4L446 390h-3c-.46-5.76.3-8.55 4-13 4.5-4.38 8.34-7.73 14.75-8.37 4.87.2 8.43 1.28 12.25 4.37 2.84 3.15 5.33 6.56 7.8 10l2.2 3 1.3 1.9c3.04 1.96 6.27 1.7 9.7 1.1 2.8-1.16 5.24-2.7 7.75-4.37l3.86-2.47 1.8-1.15c4.18-2.64 7.62-4.03 12.59-3.01a108 108 0 0 1 14.5 7.51c4.12 2.5 7.54 4.39 12.46 4.04 5.88-1.58 10.44-5.8 14.54-10.11 5.14-5.31 10.42-8.67 17.94-9.06 6.72.3 12.4 3.08 17.6 7.26 2.6 1.8 4.9 1.9 8.01 1.75 3.4-.69 5.06-2.67 6.95-5.39l3.44-5.56c4.85-7.73 9.45-11.26 18.56-8.44"/><path fill="#040404" d="M462 150c6 2.08 8.97 5.8 12.31 11.06A13.4 13.4 0 0 1 475 168c-3.07 2.05-5.27 2.7-8.81 3.63-20.64 6.22-38.1 22.34-50.47 39.6L414 213h-4c-1-1-1-1-1.31-3.81.34-15.37 11.41-31.28 21.31-42.19l1.63-1.91c7.63-8.4 18.84-16.14 30.37-15.09"/><path fill="#0b0b0b" d="M485.47 228.68c10.2 5.31 16.68 15.19 20.7 25.7 5.17 16.4 5.08 35.96-2.63 51.58-3.67 6.35-7.5 11.73-13.79 15.67l-2.7 1.72c-6.68 3.62-12.38 5.19-19.99 5.09l-2.4-.03c-5.97-.16-10.61-1.05-15.66-4.41l-2.06-1.25c-8.91-5.94-13.71-14.55-16.28-24.79-3.58-18.99.75-38.87 11.34-54.96 10.88-14.56 26.19-21.44 43.47-14.32m-37.42 14.61c-10.6 14.43-14.87 31.51-12.74 49.28 1.54 8.68 4.2 17.22 10.69 23.43 9.6 6.54 17.59 7.97 29 7 9-1.78 16.45-7.91 21.63-15.34A77 77 0 0 0 500 301l.93-1.87c5.88-12.5 4.67-31.27.33-44.11-4-9.56-9.41-18.14-19.13-22.46-13.15-4.61-25.28.37-34.08 10.73"/><path fill="#0c0c0c" d="M606.21 215.34c16.3 6.97 28.23 21.35 35.41 37.26 4.39 11.04 6.77 23.23 3.36 34.9-4.05 8.76-10.1 15.12-18.98 19-11.05 3.48-23.72 2.85-34-2.5a66 66 0 0 1-9-6l-2.05-1.6c-11.08-9.78-17.18-26.97-18.15-41.4-.2-12.62 2.04-24.37 10.93-33.85 9.12-8.2 20.97-9.96 32.48-5.81m-32.59 13.91c-6.5 10.84-7.21 22.95-4.37 35.15 4.25 14.66 10.77 27.28 24.38 34.98 8.1 4.34 17.32 4.82 26.37 3.62 9.43-2.94 15.23-7.93 19.88-16.44 3.69-11.47 1.24-23.05-3.88-33.56l-1.28-2.83c-6.05-12.32-17.2-24.27-29.97-29.6-12.74-4.1-23.1-2.35-31.12 8.68"/><path fill="#050504" d="M589.66 148.32c12.3 6.18 25.4 15.91 31.34 28.68.15 2.77.15 2.77 0 5-2.27.78-3.54 1.16-5.84.35l-1.88-1.08-2.12-1.18-2.22-1.28c-10.96-6.05-20.69-9.96-33.38-9.94h-3.8c-3.7.13-7.13.54-10.76 1.13-2.52-3.78-2.59-6.64-2-11 1.32-5 2.92-8.9 6.56-12.62 8.39-3.36 16.01-1.47 24.1 1.94"/><path fill="#060606" d="M485 261c5.44 2.57 7.47 5.76 10 11a35 35 0 0 1-1.75 24.9c-2.12 3.56-3.56 5.05-7.25 7.1-5.16 1-8.8.7-13.37-1.94-5.33-5.45-6.89-11.51-7.13-19 .25-7.6 1.64-14.64 7.19-20.19 4.3-2.43 7.48-2.79 12.31-1.87"/><path fill="#070707" d="M593 247c6.06 3.03 11 8.31 13.5 14.68 1.73 7.98 1.72 16.23-2.5 23.32-1.9 2.18-3.2 2.88-6.05 3.32-5.5.28-8.68-.63-12.95-4.32-6.13-6.41-8.53-12.29-8.44-21.06l-.06-2.07c0-5.09 1.3-7.97 4.5-11.87 4.05-2.7 7.24-2.65 12-2"/><path fill="#aba190" d="M700 144a71 71 0 0 1 11.38 4.63l2.64 1.35L716 151c.25 6.34-.6 11.85-2.12 18l-.68 2.77A140 140 0 0 1 702 202a99 99 0 0 1-8.37-8.87l-1.6-1.87c-2.23-4.88.22-10.35 1.78-15.2 3.1-10.46 4.54-21.29 6.19-32.06"/><path fill="#a59b8a" d="M904 437a2408 2408 0 0 1 18.3-.15q3.35-.04 6.7-.05l2.06-.03c9.07 0 17.2 2.67 24.44 8.1 1.5 2.13 1.5 2.13 2.13 5.07-.73 3.55-2 4.84-4.91 6.95-6.61 4.26-6.61 4.26-10.1 3.8L941 460l.25-2.62c-.32-4.35-1.4-6.1-4.25-9.38a35 35 0 0 0-16.69-5.56l-3-.26L915 442l4-2v-2h-15z"/><path fill="#f5c127" d="m558.75 485.69 3.73-.12c4.12.5 5.75 1.38 8.52 4.43.64 3.17 0 5.95-1 9-3.33 3.84-8.09 5.83-13 7-3-.31-3-.31-5-1-.89-6-1.4-11.94-1-18 1.92-1.92 5.2-1.26 7.75-1.31"/><path fill="#f2bd26" d="M685 402c.61 7.58-.8 12.63-5 19-3.1 3.1-5.97 4.44-10 6l-2-5.81-1.12-3.27C666 415 666 415 666 412l8.94-5 2.57-1.45 2.45-1.36 2.27-1.27C684 402 684 402 685 402"/><path fill="#11100f" d="m233 441-1 3-1.77.04c-15.31.9-26.68 9.6-37.94 19.2C190 465 190 465 188 465c1.3-7.5 9.1-13.68 15-18 8.81-5.6 19.86-11.73 30-6"/><path fill="#0f0e0c" d="M835.06 415.81c10.95.21 17.77 4.48 25.75 11.75L863 430l1.4 1.54c3.6 4.06 3.6 4.06 3.6 7.46-3.4-.57-4.81-1.56-7.06-4.12-8.47-8.82-18.9-13.6-30.94-14.88 0-4.46 1.02-4.15 5.06-4.19"/><path fill="#a59b8a" d="M554 438v2l4 2c-7.33.78-14.55 1.14-21.92 1.1h-2.98l-15.64-.05L502 443v-1h11l1-3 16.43-.57c7.86-.28 15.7-.51 23.57-.43"/><path fill="#adaba9" d="M581 324v2l-2.1.21c-24.58 2.53-24.58 2.53-36.47 5.6-6.06 1.54-6.06 1.54-9.43.19 15.58-6.97 31.09-8.58 48-8"/><path fill="#e7e7e7" d="M478.56 269.63C481 270 481 270 483 272c.48 3.66.43 5.37-1.69 8.44-2.31 1.56-2.31 1.56-5.06 1.31L474 281c-1.33-6.29-1.33-6.29.13-9.44 1.87-1.56 1.87-1.56 4.43-1.94"/><path fill="#ebebeb" d="M585 256c3.13.38 3.13.38 6 1 1.35 6.4 1.35 6.4-.44 9.44L589 268c-2.44-.37-2.44-.37-5-1-1.5-3.01-1.18-5.68-1-9z"/><path fill="#eae9e5" d="m688 570 5.37 4.5C695 576 695 576 696 578a38 38 0 0 1-6 11l-1-6.69-.56-3.76A55 55 0 0 1 688 570"/><path fill="#171613" d="m878 444 10 1v3l10 1v1q-3.06.08-6.12.13c-.57 0-.57 0-3.45.07-3.56-.2-6.2-.68-9.43-2.2z"/><path fill="#281c03" d="M464 476c5.31 1.46 9.46 3.98 14 7-3.97 1.56-6.81.36-10.75-.94l-3.55-1.15-2.7-.91z"/><path fill="#e9bb2b" d="M430 463a58 58 0 0 1 10.31 5.13l2.68 1.63L445 471c-3 1-3 1-6 0l-3 2-3-3.87-1.69-2.18C430 465 430 465 430 463"/><path fill="#a29989" d="M353 425c0 3 0 3-2.48 5.63l-3.27 2.93-1.63 1.5c-2.71 2.44-5.23 4.55-8.62 5.94 2.15-4 4.6-6.7 8-9.69l2.63-2.32C350 427 350 427 353 425"/><path fill="#b8b5b2" d="M555 328v1q-4.37 1.04-8.75 2.06l-2.5.6-2.42.56-2.22.53c-2.31.27-3.9-.05-6.11-.75 7.79-3.48 13.53-5.87 22-4"/><path fill="#867f72" d="M337 801h1v26l-3-3c.28-2.1.28-2.1 1-5 .28-3.1.41-6.2.56-9.31l.13-2.54z"/><path fill="#b9af9b" d="M136 466h13v1h-6v2h-15v-1l8-1z"/><path fill="#1a1914" d="M640 130h13l-1 3c-3.06 1.19-3.06 1.19-6 2l-1-3-5-1z"/><path fill="#efbe2e" d="M699 414c-.69 1.94-.69 1.94-2 4-2.5.88-2.5.88-5 1l-2-2c2-3 2-3 3.94-3.75C696 413 696 413 699 414"/><path fill="#020201" d="M607 304c1.69.31 1.69.31 4 1q3.5.53 7 1v2h-13c0-2 0-2 2-4"/><path fill="#140f02" d="M708 403h10c-3.1 3.1-4.9 3.81-9 5z"/><path fill="#bfbfbb" d="M300 619h15l-1 3h-2l-1 2v-3l-11-1z"/><path fill="#191102" d="m464 476 6 2-1 3-8-1z"/><path fill="#161512" d="M392 897c4.75.88 4.75.88 7 2v3c-5.75-.75-5.75-.75-8-3z"/><path fill="#3d3935" d="M569 196c0 3 0 3-1.75 5.04L565 203.2l-2.25 2.17L561 207l-2-1q1.65-1.95 3.31-3.87l1.87-2.18C566 198 566 198 569 196"/><path fill="#191815" d="M413 508h2v10l-1-4-4 2c1.88-5.75 1.88-5.75 3-8"/><path fill="#e4e2de" d="M815 551c.98 2.65 1.06 3.82.19 6.56C814 560 814 560 812 563h-2q2.4-6.04 5-12"/><path fill="#171513" d="m668 492 3 1c.69 2.06.69 2.06 1 4l-4 3z"/><path fill="#d4d3d0" d="M715 431h5v4h-3z"/><path fill="#eabe21" d="M658 416c1.13 3.75 1.13 3.75 0 6h-2v-2l-4-1z"/><path fill="#faf3dc" d="m511 376 12 1v1l-13 1z"/><path fill="#eceae3" d="m356 879 4 1v2h-11v-1h7z"/><path fill="#c6c5c3" d="m688 570 4 4h-2v6h-1z"/></svg>